<svg xmlns="http://www.w3.org/2000/svg" xmlns:xlink="http://www.w3.org/1999/xlink" width="500" zoomAndPan="magnify" viewBox="0 0 375 374.999991" height="500" preserveAspectRatio="xMidYMid meet" version="1.0"><defs><clipPath id="6688235f59"><path d="M 54.886719 54.886719 L 133 54.886719 L 133 166 L 54.886719 166 Z M 54.886719 54.886719 " clip-rule="nonzero"/></clipPath><clipPath id="3aa682ae1d"><path d="M 220 165 L 320.386719 165 L 320.386719 320.386719 L 220 320.386719 Z M 220 165 " clip-rule="nonzero"/></clipPath><clipPath id="ab05959461"><path d="M 110 154 L 254 154 L 254 320.386719 L 110 320.386719 Z M 110 154 " clip-rule="nonzero"/></clipPath></defs><g clip-path="url(#6688235f59)"><path fill="#5ce1e6" d="M 93.5625 54.886719 C 92.296875 54.886719 91.03125 54.949219 89.773438 55.070312 C 88.511719 55.195312 87.261719 55.382812 86.015625 55.628906 C 84.773438 55.875 83.546875 56.183594 82.335938 56.550781 C 81.125 56.917969 79.933594 57.34375 78.761719 57.828125 C 77.589844 58.3125 76.449219 58.855469 75.332031 59.453125 C 74.214844 60.050781 73.128906 60.699219 72.074219 61.402344 C 71.023438 62.109375 70.003906 62.859375 69.027344 63.664062 C 68.046875 64.46875 67.109375 65.316406 66.214844 66.214844 C 65.316406 67.109375 64.46875 68.046875 63.664062 69.027344 C 62.859375 70.003906 62.109375 71.023438 61.402344 72.074219 C 60.699219 73.128906 60.050781 74.214844 59.453125 75.332031 C 58.855469 76.449219 58.3125 77.589844 57.828125 78.761719 C 57.34375 79.933594 56.917969 81.125 56.550781 82.335938 C 56.183594 83.546875 55.875 84.773438 55.628906 86.015625 C 55.382812 87.261719 55.195312 88.511719 55.070312 89.773438 C 54.949219 91.03125 54.886719 92.296875 54.886719 93.5625 C 54.886719 113.035156 85.519531 157.957031 89.011719 163.007812 C 89.265625 163.375 89.558594 163.707031 89.894531 164.003906 C 90.226562 164.300781 90.59375 164.550781 90.988281 164.761719 C 91.386719 164.96875 91.800781 165.125 92.234375 165.234375 C 92.667969 165.339844 93.109375 165.394531 93.558594 165.394531 C 94.003906 165.394531 94.445312 165.339844 94.878906 165.234375 C 95.3125 165.125 95.730469 164.96875 96.125 164.761719 C 96.523438 164.550781 96.886719 164.300781 97.222656 164.003906 C 97.554688 163.707031 97.851562 163.375 98.105469 163.007812 C 101.609375 157.957031 132.242188 113.035156 132.242188 93.5625 C 132.242188 92.296875 132.179688 91.03125 132.054688 89.773438 C 131.929688 88.511719 131.746094 87.261719 131.496094 86.015625 C 131.25 84.773438 130.941406 83.546875 130.574219 82.335938 C 130.207031 81.125 129.78125 79.933594 129.296875 78.761719 C 128.8125 77.589844 128.269531 76.449219 127.675781 75.332031 C 127.078125 74.214844 126.425781 73.128906 125.722656 72.074219 C 125.019531 71.023438 124.265625 70.003906 123.460938 69.027344 C 122.65625 68.046875 121.808594 67.109375 120.914062 66.214844 C 120.015625 65.316406 119.078125 64.46875 118.101562 63.664062 C 117.121094 62.859375 116.105469 62.109375 115.050781 61.402344 C 114 60.699219 112.914062 60.050781 111.796875 59.453125 C 110.679688 58.855469 109.535156 58.3125 108.363281 57.828125 C 107.195312 57.34375 106.003906 56.917969 104.789062 56.550781 C 103.578125 56.183594 102.351562 55.875 101.109375 55.628906 C 99.867188 55.382812 98.613281 55.195312 97.355469 55.070312 C 96.09375 54.949219 94.828125 54.886719 93.5625 54.886719 Z M 93.5625 110.140625 C 93.019531 110.140625 92.480469 110.113281 91.9375 110.058594 C 91.398438 110.007812 90.863281 109.925781 90.328125 109.820312 C 89.796875 109.714844 89.269531 109.582031 88.75 109.425781 C 88.230469 109.269531 87.722656 109.085938 87.21875 108.878906 C 86.71875 108.667969 86.226562 108.4375 85.75 108.183594 C 85.269531 107.925781 84.804688 107.648438 84.355469 107.347656 C 83.902344 107.042969 83.46875 106.722656 83.046875 106.375 C 82.628906 106.03125 82.226562 105.667969 81.84375 105.285156 C 81.457031 104.902344 81.09375 104.5 80.75 104.078125 C 80.40625 103.660156 80.082031 103.222656 79.78125 102.773438 C 79.480469 102.320312 79.199219 101.855469 78.945312 101.378906 C 78.6875 100.898438 78.457031 100.40625 78.25 99.90625 C 78.042969 99.40625 77.859375 98.894531 77.699219 98.375 C 77.542969 97.855469 77.410156 97.328125 77.304688 96.796875 C 77.199219 96.265625 77.121094 95.726562 77.066406 95.1875 C 77.011719 94.648438 76.988281 94.105469 76.988281 93.5625 C 76.988281 93.019531 77.011719 92.480469 77.066406 91.9375 C 77.121094 91.398438 77.199219 90.863281 77.304688 90.328125 C 77.410156 89.796875 77.542969 89.269531 77.699219 88.75 C 77.859375 88.230469 78.042969 87.722656 78.25 87.21875 C 78.457031 86.71875 78.6875 86.226562 78.945312 85.75 C 79.199219 85.269531 79.480469 84.804688 79.78125 84.355469 C 80.082031 83.902344 80.40625 83.46875 80.75 83.046875 C 81.09375 82.628906 81.457031 82.226562 81.84375 81.84375 C 82.226562 81.457031 82.628906 81.09375 83.046875 80.75 C 83.46875 80.40625 83.902344 80.082031 84.355469 79.78125 C 84.804688 79.480469 85.269531 79.199219 85.75 78.945312 C 86.226562 78.6875 86.71875 78.457031 87.21875 78.25 C 87.722656 78.042969 88.230469 77.859375 88.75 77.699219 C 89.269531 77.542969 89.796875 77.410156 90.328125 77.304688 C 90.863281 77.199219 91.398438 77.121094 91.9375 77.066406 C 92.480469 77.011719 93.019531 76.988281 93.5625 76.988281 C 94.105469 76.988281 94.648438 77.011719 95.1875 77.066406 C 95.726562 77.121094 96.265625 77.199219 96.796875 77.304688 C 97.328125 77.410156 97.855469 77.542969 98.375 77.699219 C 98.894531 77.859375 99.40625 78.042969 99.90625 78.25 C 100.40625 78.457031 100.898438 78.6875 101.378906 78.945312 C 101.855469 79.199219 102.320312 79.480469 102.773438 79.78125 C 103.222656 80.082031 103.660156 80.40625 104.078125 80.75 C 104.5 81.09375 104.902344 81.457031 105.285156 81.84375 C 105.667969 82.226562 106.03125 82.628906 106.375 83.046875 C 106.722656 83.46875 107.042969 83.902344 107.347656 84.355469 C 107.648438 84.804688 107.925781 85.269531 108.183594 85.75 C 108.4375 86.226562 108.667969 86.71875 108.878906 87.21875 C 109.085938 87.722656 109.269531 88.230469 109.425781 88.75 C 109.582031 89.269531 109.714844 89.796875 109.820312 90.328125 C 109.925781 90.863281 110.007812 91.398438 110.058594 91.9375 C 110.113281 92.480469 110.140625 93.019531 110.140625 93.5625 C 110.140625 94.105469 110.113281 94.648438 110.058594 95.1875 C 110.007812 95.726562 109.925781 96.265625 109.820312 96.796875 C 109.714844 97.328125 109.582031 97.855469 109.425781 98.375 C 109.269531 98.894531 109.085938 99.40625 108.878906 99.90625 C 108.667969 100.40625 108.4375 100.898438 108.183594 101.378906 C 107.925781 101.855469 107.648438 102.320312 107.347656 102.773438 C 107.042969 103.222656 106.722656 103.660156 106.375 104.078125 C 106.03125 104.5 105.667969 104.902344 105.285156 105.285156 C 104.902344 105.667969 104.5 106.03125 104.078125 106.375 C 103.660156 106.722656 103.222656 107.042969 102.773438 107.347656 C 102.320312 107.648438 101.855469 107.925781 101.378906 108.183594 C 100.898438 108.4375 100.40625 108.667969 99.90625 108.878906 C 99.40625 109.085938 98.894531 109.269531 98.375 109.425781 C 97.855469 109.582031 97.328125 109.714844 96.796875 109.820312 C 96.265625 109.925781 95.726562 110.007812 95.1875 110.058594 C 94.648438 110.113281 94.105469 110.140625 93.5625 110.140625 Z M 93.5625 110.140625 " fill-opacity="1" fill-rule="nonzero"/></g><g clip-path="url(#3aa682ae1d)"><path fill="#38b6ff" d="M 270.375 165.394531 C 268.746094 165.394531 267.121094 165.472656 265.5 165.632812 C 263.878906 165.792969 262.273438 166.03125 260.675781 166.347656 C 259.078125 166.667969 257.5 167.0625 255.941406 167.535156 C 254.382812 168.007812 252.851562 168.554688 251.34375 169.179688 C 249.839844 169.800781 248.371094 170.496094 246.933594 171.265625 C 245.496094 172.03125 244.101562 172.871094 242.746094 173.773438 C 241.394531 174.679688 240.085938 175.648438 238.828125 176.679688 C 237.570312 177.714844 236.363281 178.808594 235.210938 179.957031 C 234.0625 181.109375 232.96875 182.316406 231.933594 183.574219 C 230.902344 184.832031 229.933594 186.140625 229.027344 187.492188 C 228.125 188.847656 227.285156 190.242188 226.519531 191.679688 C 225.75 193.117188 225.054688 194.585938 224.433594 196.089844 C 223.808594 197.597656 223.261719 199.128906 222.789062 200.6875 C 222.316406 202.246094 221.921875 203.824219 221.601562 205.421875 C 221.285156 207.019531 221.046875 208.625 220.886719 210.246094 C 220.726562 211.867188 220.648438 213.492188 220.648438 215.121094 C 220.648438 240.304688 261.015625 309.574219 265.613281 317.386719 C 265.734375 317.589844 265.867188 317.789062 266.015625 317.976562 C 266.164062 318.164062 266.320312 318.34375 266.492188 318.511719 C 266.664062 318.679688 266.84375 318.835938 267.035156 318.980469 C 267.222656 319.125 267.421875 319.253906 267.632812 319.375 C 267.839844 319.492188 268.054688 319.597656 268.273438 319.6875 C 268.496094 319.777344 268.722656 319.855469 268.953125 319.917969 C 269.183594 319.976562 269.417969 320.023438 269.65625 320.054688 C 269.894531 320.085938 270.132812 320.101562 270.371094 320.101562 C 270.609375 320.101562 270.847656 320.085938 271.085938 320.054688 C 271.320312 320.023438 271.554688 319.976562 271.785156 319.917969 C 272.019531 319.855469 272.246094 319.777344 272.464844 319.6875 C 272.6875 319.597656 272.902344 319.492188 273.109375 319.375 C 273.316406 319.253906 273.515625 319.125 273.707031 318.980469 C 273.898438 318.835938 274.078125 318.679688 274.246094 318.511719 C 274.417969 318.34375 274.578125 318.164062 274.722656 317.976562 C 274.871094 317.789062 275.007812 317.589844 275.128906 317.386719 C 279.734375 309.574219 320.105469 240.304688 320.105469 215.121094 C 320.105469 213.492188 320.023438 211.867188 319.863281 210.246094 C 319.703125 208.625 319.464844 207.015625 319.148438 205.421875 C 318.832031 203.824219 318.4375 202.246094 317.960938 200.6875 C 317.488281 199.128906 316.941406 197.597656 316.320312 196.089844 C 315.695312 194.585938 315 193.117188 314.230469 191.679688 C 313.464844 190.242188 312.628906 188.847656 311.722656 187.492188 C 310.820312 186.140625 309.847656 184.832031 308.816406 183.574219 C 307.78125 182.316406 306.691406 181.109375 305.539062 179.957031 C 304.386719 178.808594 303.183594 177.714844 301.921875 176.679688 C 300.664062 175.648438 299.359375 174.679688 298.003906 173.773438 C 296.648438 172.871094 295.253906 172.03125 293.816406 171.265625 C 292.382812 170.496094 290.910156 169.800781 289.40625 169.179688 C 287.902344 168.554688 286.371094 168.007812 284.8125 167.535156 C 283.253906 167.0625 281.675781 166.667969 280.078125 166.347656 C 278.480469 166.03125 276.871094 165.792969 275.25 165.632812 C 273.628906 165.472656 272.003906 165.394531 270.375 165.394531 Z M 270.375 242.75 C 269.472656 242.75 268.566406 242.703125 267.667969 242.617188 C 266.765625 242.527344 265.875 242.394531 264.984375 242.21875 C 264.097656 242.042969 263.222656 241.820312 262.355469 241.558594 C 261.488281 241.296875 260.640625 240.992188 259.804688 240.644531 C 258.96875 240.300781 258.148438 239.914062 257.351562 239.488281 C 256.554688 239.058594 255.777344 238.59375 255.027344 238.09375 C 254.273438 237.589844 253.546875 237.050781 252.847656 236.476562 C 252.148438 235.902344 251.480469 235.296875 250.839844 234.65625 C 250.199219 234.015625 249.59375 233.347656 249.019531 232.648438 C 248.445312 231.949219 247.90625 231.222656 247.40625 230.46875 C 246.902344 229.71875 246.4375 228.941406 246.011719 228.144531 C 245.585938 227.347656 245.199219 226.53125 244.851562 225.695312 C 244.503906 224.859375 244.199219 224.007812 243.9375 223.140625 C 243.675781 222.277344 243.457031 221.398438 243.28125 220.511719 C 243.101562 219.625 242.96875 218.730469 242.882812 217.828125 C 242.792969 216.929688 242.75 216.027344 242.75 215.121094 C 242.75 214.21875 242.792969 213.3125 242.882812 212.414062 C 242.96875 211.511719 243.101562 210.621094 243.28125 209.730469 C 243.457031 208.84375 243.675781 207.96875 243.9375 207.101562 C 244.199219 206.234375 244.503906 205.386719 244.851562 204.550781 C 245.199219 203.714844 245.585938 202.894531 246.011719 202.097656 C 246.4375 201.300781 246.902344 200.523438 247.40625 199.773438 C 247.90625 199.019531 248.445312 198.292969 249.019531 197.59375 C 249.59375 196.894531 250.199219 196.226562 250.839844 195.585938 C 251.480469 194.945312 252.148438 194.339844 252.847656 193.765625 C 253.546875 193.191406 254.273438 192.652344 255.027344 192.152344 C 255.777344 191.648438 256.554688 191.183594 257.351562 190.757812 C 258.148438 190.332031 258.96875 189.945312 259.804688 189.597656 C 260.640625 189.25 261.488281 188.945312 262.355469 188.683594 C 263.222656 188.421875 264.097656 188.203125 264.984375 188.027344 C 265.875 187.847656 266.765625 187.714844 267.667969 187.628906 C 268.566406 187.539062 269.472656 187.496094 270.375 187.496094 C 271.28125 187.496094 272.183594 187.539062 273.082031 187.628906 C 273.984375 187.714844 274.878906 187.847656 275.765625 188.027344 C 276.652344 188.203125 277.53125 188.421875 278.394531 188.683594 C 279.261719 188.945312 280.113281 189.25 280.949219 189.597656 C 281.785156 189.945312 282.601562 190.332031 283.398438 190.757812 C 284.195312 191.183594 284.972656 191.648438 285.722656 192.152344 C 286.476562 192.652344 287.203125 193.191406 287.902344 193.765625 C 288.601562 194.339844 289.269531 194.945312 289.910156 195.585938 C 290.550781 196.226562 291.15625 196.894531 291.730469 197.59375 C 292.304688 198.292969 292.84375 199.019531 293.347656 199.773438 C 293.847656 200.523438 294.3125 201.300781 294.742188 202.097656 C 295.167969 202.894531 295.554688 203.714844 295.898438 204.550781 C 296.246094 205.386719 296.550781 206.234375 296.8125 207.101562 C 297.074219 207.96875 297.296875 208.84375 297.472656 209.730469 C 297.648438 210.621094 297.78125 211.511719 297.871094 212.414062 C 297.957031 213.3125 298.003906 214.21875 298.003906 215.121094 C 298.003906 216.027344 297.957031 216.929688 297.871094 217.828125 C 297.78125 218.730469 297.648438 219.625 297.472656 220.511719 C 297.296875 221.398438 297.074219 222.277344 296.8125 223.140625 C 296.550781 224.007812 296.246094 224.859375 295.898438 225.695312 C 295.554688 226.53125 295.167969 227.347656 294.742188 228.144531 C 294.3125 228.941406 293.847656 229.71875 293.347656 230.46875 C 292.84375 231.222656 292.304688 231.949219 291.730469 232.648438 C 291.15625 233.347656 290.550781 234.015625 289.910156 234.65625 C 289.269531 235.296875 288.601562 235.902344 287.902344 236.476562 C 287.203125 237.050781 286.476562 237.589844 285.722656 238.09375 C 284.972656 238.59375 284.195312 239.058594 283.398438 239.488281 C 282.601562 239.914062 281.785156 240.300781 280.949219 240.644531 C 280.113281 240.992188 279.261719 241.296875 278.394531 241.558594 C 277.53125 241.820312 276.652344 242.042969 275.765625 242.21875 C 274.878906 242.394531 273.984375 242.527344 273.082031 242.617188 C 272.183594 242.703125 271.28125 242.75 270.375 242.75 Z M 270.375 242.75 " fill-opacity="1" fill-rule="nonzero"/></g><g clip-path="url(#ab05959461)"><path fill="#0cc0df" d="M 248.273438 320.105469 C 240.554688 320.167969 232.90625 319.480469 225.320312 318.039062 C 224.964844 317.964844 224.621094 317.859375 224.285156 317.71875 C 223.953125 317.578125 223.632812 317.40625 223.332031 317.203125 C 223.03125 317 222.753906 316.769531 222.5 316.511719 C 222.246094 316.253906 222.015625 315.972656 221.816406 315.671875 C 221.617188 315.367188 221.449219 315.046875 221.308594 314.710938 C 221.171875 314.375 221.070312 314.03125 221 313.675781 C 220.933594 313.316406 220.898438 312.957031 220.898438 312.59375 C 220.902344 312.234375 220.9375 311.875 221.011719 311.519531 C 221.085938 311.164062 221.191406 310.816406 221.332031 310.484375 C 221.472656 310.148438 221.644531 309.832031 221.847656 309.53125 C 222.050781 309.230469 222.28125 308.949219 222.539062 308.695312 C 222.796875 308.441406 223.078125 308.210938 223.378906 308.011719 C 223.683594 307.8125 224 307.644531 224.335938 307.507812 C 224.671875 307.371094 225.019531 307.265625 225.375 307.195312 C 225.730469 307.128906 226.089844 307.09375 226.453125 307.097656 C 226.816406 307.097656 227.175781 307.136719 227.53125 307.207031 C 234.386719 308.503906 241.300781 309.117188 248.273438 309.054688 C 248.636719 309.054688 248.996094 309.089844 249.351562 309.160156 C 249.707031 309.230469 250.054688 309.335938 250.386719 309.472656 C 250.722656 309.613281 251.042969 309.78125 251.34375 309.984375 C 251.644531 310.1875 251.925781 310.414062 252.179688 310.671875 C 252.4375 310.929688 252.667969 311.207031 252.867188 311.507812 C 253.070312 311.8125 253.238281 312.128906 253.378906 312.464844 C 253.519531 312.800781 253.621094 313.144531 253.691406 313.5 C 253.765625 313.855469 253.800781 314.214844 253.800781 314.578125 C 253.800781 314.941406 253.765625 315.300781 253.691406 315.65625 C 253.621094 316.011719 253.519531 316.359375 253.378906 316.691406 C 253.238281 317.027344 253.070312 317.347656 252.867188 317.648438 C 252.667969 317.949219 252.4375 318.230469 252.179688 318.484375 C 251.925781 318.742188 251.644531 318.972656 251.34375 319.171875 C 251.042969 319.375 250.722656 319.542969 250.386719 319.683594 C 250.054688 319.824219 249.707031 319.925781 249.351562 319.996094 C 248.996094 320.070312 248.636719 320.105469 248.273438 320.105469 Z M 206.050781 310.300781 C 204.972656 310.300781 203.980469 310.007812 203.078125 309.429688 C 199.609375 307.210938 196.460938 304.609375 193.632812 301.617188 C 190.808594 298.625 188.386719 295.335938 186.367188 291.746094 C 186.175781 291.433594 186.019531 291.101562 185.894531 290.753906 C 185.769531 290.40625 185.679688 290.046875 185.625 289.683594 C 185.570312 289.316406 185.554688 288.949219 185.574219 288.582031 C 185.59375 288.210938 185.652344 287.851562 185.746094 287.492188 C 185.835938 287.132812 185.964844 286.789062 186.125 286.457031 C 186.289062 286.125 186.480469 285.8125 186.707031 285.519531 C 186.933594 285.226562 187.183594 284.960938 187.460938 284.714844 C 187.742188 284.472656 188.039062 284.261719 188.359375 284.078125 C 188.683594 283.894531 189.019531 283.746094 189.371094 283.632812 C 189.71875 283.515625 190.078125 283.4375 190.445312 283.394531 C 190.8125 283.351562 191.179688 283.34375 191.546875 283.375 C 191.917969 283.40625 192.277344 283.472656 192.632812 283.574219 C 192.988281 283.679688 193.328125 283.816406 193.65625 283.988281 C 193.984375 284.160156 194.289062 284.359375 194.578125 284.59375 C 194.863281 284.828125 195.125 285.085938 195.359375 285.371094 C 195.59375 285.65625 195.796875 285.960938 195.972656 286.289062 C 197.539062 289.105469 199.429688 291.6875 201.640625 294.035156 C 203.851562 296.382812 206.316406 298.421875 209.03125 300.15625 C 209.535156 300.480469 209.976562 300.875 210.351562 301.339844 C 210.726562 301.800781 211.019531 302.316406 211.226562 302.875 C 211.4375 303.433594 211.550781 304.011719 211.574219 304.609375 C 211.59375 305.207031 211.523438 305.792969 211.355469 306.363281 C 211.1875 306.9375 210.933594 307.46875 210.589844 307.960938 C 210.25 308.449219 209.839844 308.875 209.363281 309.234375 C 208.886719 309.589844 208.363281 309.863281 207.796875 310.054688 C 207.230469 310.242188 206.644531 310.335938 206.050781 310.335938 Z M 183.859375 273.835938 C 183.222656 273.832031 182.605469 273.726562 182.007812 273.511719 C 181.410156 273.296875 180.863281 272.988281 180.371094 272.585938 C 179.878906 272.183594 179.46875 271.710938 179.140625 271.164062 C 178.808594 270.621094 178.582031 270.039062 178.457031 269.414062 C 177.039062 261.9375 176.070312 254.40625 175.550781 246.816406 C 175.519531 246.453125 175.527344 246.089844 175.570312 245.730469 C 175.613281 245.367188 175.691406 245.015625 175.800781 244.667969 C 175.914062 244.324219 176.058594 243.992188 176.238281 243.675781 C 176.414062 243.355469 176.621094 243.058594 176.855469 242.78125 C 177.09375 242.507812 177.355469 242.253906 177.640625 242.03125 C 177.925781 241.804688 178.230469 241.609375 178.554688 241.441406 C 178.878906 241.277344 179.214844 241.144531 179.5625 241.046875 C 179.914062 240.949219 180.269531 240.882812 180.632812 240.855469 C 180.996094 240.824219 181.355469 240.832031 181.71875 240.875 C 182.078125 240.917969 182.433594 240.992188 182.78125 241.105469 C 183.125 241.21875 183.457031 241.363281 183.773438 241.539062 C 184.09375 241.714844 184.390625 241.921875 184.667969 242.15625 C 184.945312 242.394531 185.195312 242.652344 185.421875 242.9375 C 185.648438 243.222656 185.84375 243.527344 186.007812 243.851562 C 186.175781 244.175781 186.308594 244.511719 186.40625 244.863281 C 186.503906 245.210938 186.570312 245.570312 186.601562 245.929688 C 187.085938 253.078125 187.992188 260.175781 189.316406 267.214844 C 189.398438 267.617188 189.4375 268.023438 189.429688 268.433594 C 189.421875 268.839844 189.367188 269.246094 189.269531 269.644531 C 189.171875 270.039062 189.03125 270.421875 188.847656 270.789062 C 188.664062 271.15625 188.441406 271.496094 188.183594 271.816406 C 187.925781 272.132812 187.632812 272.417969 187.3125 272.671875 C 186.988281 272.921875 186.640625 273.136719 186.273438 273.3125 C 185.902344 273.488281 185.515625 273.621094 185.117188 273.710938 C 184.71875 273.800781 184.3125 273.847656 183.902344 273.84375 Z M 179.4375 229.796875 C 179.09375 229.796875 178.753906 229.769531 178.414062 229.707031 C 178.078125 229.644531 177.746094 229.550781 177.425781 229.425781 C 177.105469 229.300781 176.796875 229.148438 176.507812 228.96875 C 176.214844 228.785156 175.941406 228.578125 175.6875 228.347656 C 175.433594 228.113281 175.203125 227.859375 174.996094 227.585938 C 174.789062 227.308594 174.613281 227.015625 174.460938 226.707031 C 174.308594 226.398438 174.1875 226.078125 174.09375 225.746094 C 174.003906 225.417969 173.941406 225.078125 173.914062 224.734375 C 173.417969 217.625 172.425781 210.585938 170.941406 203.617188 C 170.859375 203.265625 170.816406 202.90625 170.804688 202.542969 C 170.796875 202.179688 170.820312 201.820312 170.882812 201.464844 C 170.941406 201.105469 171.039062 200.757812 171.167969 200.421875 C 171.296875 200.082031 171.457031 199.757812 171.652344 199.453125 C 171.84375 199.144531 172.066406 198.859375 172.3125 198.597656 C 172.5625 198.332031 172.835938 198.097656 173.132812 197.886719 C 173.425781 197.675781 173.738281 197.496094 174.070312 197.347656 C 174.402344 197.199219 174.742188 197.085938 175.097656 197.003906 C 175.449219 196.925781 175.808594 196.878906 176.171875 196.867188 C 176.535156 196.859375 176.894531 196.882812 177.25 196.945312 C 177.609375 197.003906 177.957031 197.097656 178.296875 197.226562 C 178.632812 197.355469 178.957031 197.519531 179.265625 197.710938 C 179.570312 197.902344 179.855469 198.125 180.121094 198.371094 C 180.386719 198.621094 180.621094 198.894531 180.832031 199.1875 C 181.042969 199.484375 181.222656 199.796875 181.371094 200.128906 C 181.519531 200.457031 181.632812 200.800781 181.714844 201.152344 C 183.320312 208.628906 184.386719 216.179688 184.921875 223.808594 C 184.949219 224.167969 184.945312 224.53125 184.90625 224.890625 C 184.863281 225.25 184.789062 225.601562 184.679688 225.949219 C 184.566406 226.292969 184.425781 226.625 184.25 226.941406 C 184.074219 227.261719 183.871094 227.558594 183.636719 227.835938 C 183.402344 228.113281 183.144531 228.363281 182.859375 228.589844 C 182.574219 228.816406 182.273438 229.011719 181.949219 229.179688 C 181.628906 229.34375 181.292969 229.476562 180.945312 229.578125 C 180.597656 229.679688 180.242188 229.746094 179.878906 229.773438 Z M 168.332031 187.496094 C 167.394531 187.496094 166.511719 187.269531 165.691406 186.820312 C 164.867188 186.371094 164.199219 185.753906 163.691406 184.964844 C 161.964844 182.269531 159.921875 179.84375 157.5625 177.683594 C 155.203125 175.523438 152.605469 173.703125 149.765625 172.222656 C 149.445312 172.050781 149.144531 171.851562 148.867188 171.621094 C 148.585938 171.390625 148.328125 171.136719 148.097656 170.855469 C 147.867188 170.578125 147.667969 170.277344 147.496094 169.957031 C 147.324219 169.636719 147.183594 169.304688 147.078125 168.957031 C 146.972656 168.609375 146.902344 168.257812 146.863281 167.894531 C 146.828125 167.535156 146.828125 167.171875 146.863281 166.8125 C 146.898438 166.449219 146.96875 166.097656 147.074219 165.75 C 147.175781 165.402344 147.316406 165.066406 147.484375 164.746094 C 147.65625 164.425781 147.855469 164.125 148.085938 163.84375 C 148.316406 163.5625 148.570312 163.308594 148.851562 163.078125 C 149.128906 162.847656 149.429688 162.644531 149.75 162.472656 C 150.070312 162.300781 150.402344 162.164062 150.75 162.058594 C 151.097656 161.953125 151.453125 161.878906 151.8125 161.84375 C 152.175781 161.808594 152.535156 161.808594 152.898438 161.84375 C 153.257812 161.878906 153.613281 161.945312 153.960938 162.050781 C 154.308594 162.15625 154.640625 162.292969 154.960938 162.464844 C 158.621094 164.394531 161.976562 166.757812 165.03125 169.554688 C 168.082031 172.347656 170.730469 175.484375 172.972656 178.964844 C 173.242188 179.378906 173.453125 179.824219 173.601562 180.296875 C 173.75 180.769531 173.832031 181.253906 173.851562 181.75 C 173.871094 182.246094 173.824219 182.734375 173.710938 183.21875 C 173.597656 183.703125 173.421875 184.160156 173.183594 184.597656 C 172.949219 185.03125 172.660156 185.429688 172.316406 185.785156 C 171.972656 186.144531 171.585938 186.449219 171.160156 186.703125 C 170.734375 186.957031 170.28125 187.152344 169.804688 187.285156 C 169.328125 187.414062 168.839844 187.484375 168.34375 187.484375 Z M 131.5 166.5 C 131.234375 166.515625 130.96875 166.515625 130.703125 166.5 C 126.117188 165.835938 121.046875 165.824219 115.675781 165.515625 C 115.3125 165.511719 114.953125 165.472656 114.597656 165.398438 C 114.242188 165.320312 113.898438 165.214844 113.566406 165.070312 C 113.230469 164.929688 112.914062 164.753906 112.617188 164.550781 C 112.316406 164.34375 112.039062 164.113281 111.785156 163.851562 C 111.53125 163.59375 111.308594 163.3125 111.109375 163.007812 C 110.910156 162.703125 110.742188 162.382812 110.609375 162.046875 C 110.472656 161.710938 110.371094 161.363281 110.304688 161.007812 C 110.238281 160.652344 110.207031 160.292969 110.210938 159.929688 C 110.214844 159.566406 110.253906 159.207031 110.328125 158.851562 C 110.402344 158.496094 110.511719 158.152344 110.65625 157.820312 C 110.796875 157.484375 110.972656 157.167969 111.175781 156.871094 C 111.382812 156.570312 111.613281 156.292969 111.871094 156.039062 C 112.132812 155.785156 112.414062 155.558594 112.71875 155.363281 C 113.019531 155.164062 113.339844 154.996094 113.679688 154.863281 C 114.015625 154.726562 114.363281 154.625 114.71875 154.558594 C 115.074219 154.492188 115.433594 154.460938 115.796875 154.464844 C 121.300781 154.402344 126.78125 154.730469 132.242188 155.449219 C 132.605469 155.472656 132.960938 155.535156 133.3125 155.628906 C 133.664062 155.726562 134 155.855469 134.324219 156.019531 C 134.652344 156.179688 134.957031 156.375 135.246094 156.597656 C 135.53125 156.820312 135.792969 157.070312 136.03125 157.34375 C 136.269531 157.617188 136.480469 157.914062 136.660156 158.230469 C 136.839844 158.546875 136.988281 158.875 137.105469 159.222656 C 137.21875 159.566406 137.300781 159.917969 137.34375 160.28125 C 137.390625 160.640625 137.398438 161.003906 137.375 161.367188 C 137.347656 161.726562 137.289062 162.085938 137.191406 162.4375 C 137.09375 162.785156 136.964844 163.125 136.804688 163.449219 C 136.640625 163.773438 136.449219 164.082031 136.226562 164.367188 C 136 164.65625 135.753906 164.917969 135.476562 165.15625 C 135.203125 165.394531 134.90625 165.605469 134.59375 165.785156 C 134.277344 165.964844 133.945312 166.113281 133.601562 166.226562 C 133.253906 166.34375 132.902344 166.421875 132.542969 166.46875 C 132.179688 166.515625 131.820312 166.523438 131.457031 166.5 Z M 131.5 166.5 " fill-opacity="1" fill-rule="nonzero"/></g></svg>