<svg xmlns="http://www.w3.org/2000/svg" xmlns:xlink="http://www.w3.org/1999/xlink" width="500" zoomAndPan="magnify" viewBox="0 0 375 374.999991" height="500" preserveAspectRatio="xMidYMid meet" version="1.0"><defs><clipPath id="3443679116"><path d="M 59.257812 107 L 82 107 L 82 114 L 59.257812 114 Z M 59.257812 107 " clip-rule="nonzero"/></clipPath><clipPath id="dd746ef1cf"><path d="M 141 44.414062 L 231 44.414062 L 231 330.914062 L 141 330.914062 Z M 141 44.414062 " clip-rule="nonzero"/></clipPath><clipPath id="b6b5268047"><path d="M 224 173 L 315.757812 173 L 315.757812 254 L 224 254 Z M 224 173 " clip-rule="nonzero"/></clipPath></defs><path fill="#ff5757" d="M 83.046875 110.410156 C 83.039062 121.953125 92.390625 131.320312 103.933594 131.328125 C 115.476562 131.335938 124.84375 121.988281 124.851562 110.441406 C 124.863281 98.898438 115.511719 89.53125 103.96875 89.523438 C 92.421875 89.515625 83.058594 98.863281 83.046875 110.410156 " fill-opacity="1" fill-rule="nonzero"/><path fill="#ff5757" d="M 107.089844 87.726562 L 100.847656 87.722656 L 100.867188 65.757812 L 107.109375 65.761719 L 107.089844 87.726562 " fill-opacity="1" fill-rule="nonzero"/><path fill="#ff5757" d="M 107.035156 155.09375 L 100.796875 155.089844 L 100.8125 133.125 L 107.050781 133.132812 L 107.035156 155.09375 " fill-opacity="1" fill-rule="nonzero"/><path fill="#ff5757" d="M 95.320312 89.199219 L 89.914062 92.316406 L 78.945312 73.285156 L 84.351562 70.171875 L 95.320312 89.199219 " fill-opacity="1" fill-rule="nonzero"/><path fill="#ff5757" d="M 128.957031 147.566406 L 123.550781 150.683594 L 112.582031 131.65625 L 117.992188 128.539062 L 128.957031 147.566406 " fill-opacity="1" fill-rule="nonzero"/><path fill="#ff5757" d="M 85.863281 96.359375 L 82.738281 101.761719 L 63.726562 90.761719 L 66.851562 85.359375 L 85.863281 96.359375 " fill-opacity="1" fill-rule="nonzero"/><path fill="#ff5757" d="M 144.175781 130.089844 L 141.050781 135.492188 L 122.039062 124.492188 L 125.164062 119.089844 L 144.175781 130.089844 " fill-opacity="1" fill-rule="nonzero"/><g clip-path="url(#3443679116)"><path fill="#ff5757" d="M 81.25 107.289062 L 81.246094 113.53125 L 59.28125 113.511719 L 59.289062 107.269531 L 81.25 107.289062 " fill-opacity="1" fill-rule="nonzero"/></g><path fill="#ff5757" d="M 148.617188 107.339844 L 148.613281 113.582031 L 126.652344 113.566406 L 126.65625 107.324219 L 148.617188 107.339844 " fill-opacity="1" fill-rule="nonzero"/><path fill="#ff5757" d="M 82.722656 119.058594 L 85.839844 124.464844 L 66.808594 135.429688 L 63.691406 130.023438 L 82.722656 119.058594 " fill-opacity="1" fill-rule="nonzero"/><path fill="#ff5757" d="M 141.09375 85.421875 L 144.207031 90.828125 L 125.179688 101.792969 L 122.0625 96.386719 L 141.09375 85.421875 " fill-opacity="1" fill-rule="nonzero"/><path fill="#ff5757" d="M 89.882812 128.515625 L 95.285156 131.640625 L 84.289062 150.652344 L 78.886719 147.527344 L 89.882812 128.515625 " fill-opacity="1" fill-rule="nonzero"/><path fill="#ff5757" d="M 123.613281 70.199219 L 129.015625 73.324219 L 118.019531 92.335938 L 112.617188 89.210938 L 123.613281 70.199219 " fill-opacity="1" fill-rule="nonzero"/><path fill="#ff5757" d="M 186.050781 327.585938 C 163.386719 327.585938 144.949219 309.152344 144.949219 286.488281 C 144.949219 278.761719 147.109375 271.230469 151.195312 264.695312 C 154.648438 259.179688 159.4375 254.5 165.035156 251.15625 L 166.085938 250.53125 L 166.085938 68.5 C 166.085938 62.570312 168.160156 57.179688 171.925781 53.316406 C 175.613281 49.550781 180.628906 47.476562 186.050781 47.476562 C 191.46875 47.476562 196.484375 49.550781 200.167969 53.316406 C 203.9375 57.179688 206.011719 62.570312 206.011719 68.5 L 206.011719 250.53125 L 207.058594 251.15625 C 212.660156 254.496094 217.445312 259.175781 220.902344 264.695312 C 224.988281 271.21875 227.148438 278.753906 227.148438 286.488281 C 227.148438 309.152344 208.710938 327.585938 186.050781 327.585938 " fill-opacity="1" fill-rule="nonzero"/><g clip-path="url(#dd746ef1cf)"><path fill="#ff5757" d="M 186.050781 330.566406 C 161.746094 330.566406 141.972656 310.792969 141.972656 286.484375 C 141.972656 278.203125 144.289062 270.121094 148.667969 263.117188 C 152.292969 257.328125 157.273438 252.414062 163.105469 248.84375 L 163.105469 68.5 C 163.105469 61.789062 165.484375 55.660156 169.796875 51.238281 C 174.046875 46.890625 179.820312 44.496094 186.050781 44.496094 C 192.277344 44.496094 198.046875 46.890625 202.296875 51.234375 C 206.613281 55.660156 208.988281 61.789062 208.988281 68.5 L 208.988281 248.84375 C 214.820312 252.40625 219.796875 257.324219 223.425781 263.113281 C 227.808594 270.113281 230.125 278.195312 230.125 286.484375 C 230.125 310.792969 210.355469 330.566406 186.050781 330.566406 " fill-opacity="1" fill-rule="nonzero"/></g><path fill="#ffffff" d="M 186.050781 328.863281 C 162.6875 328.863281 143.675781 309.851562 143.675781 286.484375 C 143.675781 278.523438 145.902344 270.753906 150.113281 264.019531 C 153.777344 258.171875 158.84375 253.277344 164.8125 249.8125 L 164.8125 68.5 C 164.8125 62.238281 167.015625 56.527344 171.015625 52.429688 C 174.941406 48.410156 180.28125 46.199219 186.050781 46.199219 C 191.816406 46.199219 197.15625 48.410156 201.082031 52.425781 C 205.082031 56.527344 207.285156 62.238281 207.285156 68.5 L 207.285156 249.8125 C 213.25 253.273438 218.316406 258.167969 221.984375 264.019531 C 226.195312 270.746094 228.421875 278.515625 228.421875 286.484375 C 228.421875 309.851562 209.414062 328.863281 186.050781 328.863281 " fill-opacity="1" fill-rule="nonzero"/><path fill="#0cc0df" d="M 226.71875 286.488281 C 226.71875 308.914062 208.472656 327.160156 186.050781 327.160156 C 163.625 327.160156 145.378906 308.914062 145.378906 286.488281 C 145.378906 278.835938 147.519531 271.382812 151.558594 264.925781 C 155.257812 259.019531 160.421875 254.152344 166.515625 250.804688 L 166.515625 68.5 C 166.515625 62.683594 168.546875 57.398438 172.234375 53.617188 C 175.835938 49.9375 180.738281 47.90625 186.050781 47.90625 C 191.359375 47.90625 196.261719 49.9375 199.859375 53.617188 C 203.546875 57.398438 205.578125 62.683594 205.578125 68.5 L 205.578125 250.804688 C 211.679688 254.152344 216.839844 259.019531 220.539062 264.925781 C 224.578125 271.375 226.71875 278.835938 226.71875 286.488281 " fill-opacity="1" fill-rule="nonzero"/><path fill="#ffffff" d="M 186.050781 325.007812 C 164.8125 325.007812 147.527344 307.726562 147.527344 286.488281 C 147.527344 279.246094 149.550781 272.183594 153.378906 266.0625 C 156.871094 260.488281 161.773438 255.863281 167.550781 252.691406 L 168.664062 252.078125 L 168.664062 68.5 C 168.664062 63.25 170.480469 58.496094 173.773438 55.117188 C 176.96875 51.855469 181.328125 50.054688 186.050781 50.054688 C 190.773438 50.054688 195.128906 51.855469 198.324219 55.121094 C 201.617188 58.496094 203.433594 63.25 203.433594 68.5 L 203.433594 252.078125 L 204.546875 252.691406 C 210.320312 255.859375 215.21875 260.484375 218.714844 266.0625 C 222.542969 272.179688 224.566406 279.242188 224.566406 286.488281 C 224.566406 307.726562 207.292969 325.007812 186.050781 325.007812 " fill-opacity="1" fill-rule="nonzero"/><path fill="#0cc0df" d="M 193.957031 258.984375 L 193.957031 89.367188 L 178.140625 89.367188 L 178.140625 258.984375 C 165.988281 262.421875 157.082031 273.597656 157.082031 286.855469 C 157.082031 302.855469 170.050781 315.820312 186.046875 315.820312 C 202.046875 315.820312 215.015625 302.855469 215.015625 286.855469 C 215.015625 273.597656 206.109375 262.421875 193.957031 258.984375 " fill-opacity="1" fill-rule="nonzero"/><path fill="#ff5757" d="M 186.046875 89.367188 L 178.140625 89.367188 L 178.140625 258.984375 C 165.855469 262.421875 156.957031 273.597656 156.957031 286.855469 C 156.957031 302.789062 169.964844 315.714844 186.046875 315.816406 L 186.046875 89.367188 " fill-opacity="1" fill-rule="nonzero"/><path fill="#9bdae6" d="M 193.957031 190.96875 L 186.046875 190.96875 L 186.046875 89.367188 L 193.957031 89.367188 L 193.957031 190.96875 " fill-opacity="1" fill-rule="nonzero"/><path fill="#ffffff" d="M 189.433594 94.417969 L 182.9375 94.40625 L 182.945312 92.480469 L 189.433594 92.492188 L 189.433594 94.417969 " fill-opacity="1" fill-rule="nonzero"/><path fill="#ffffff" d="M 189.363281 135.113281 L 182.871094 135.101562 L 182.875 133.175781 L 189.363281 133.1875 L 189.363281 135.113281 " fill-opacity="1" fill-rule="nonzero"/><path fill="#ffffff" d="M 189.292969 175.578125 L 182.800781 175.570312 L 182.804688 173.640625 L 189.296875 173.652344 L 189.292969 175.578125 " fill-opacity="1" fill-rule="nonzero"/><path fill="#ffffff" d="M 189.226562 214.820312 L 182.734375 214.808594 L 182.734375 212.882812 L 189.230469 212.894531 L 189.226562 214.820312 " fill-opacity="1" fill-rule="nonzero"/><path fill="#ffffff" d="M 189.152344 256.71875 L 182.664062 256.710938 L 182.664062 254.78125 L 189.160156 254.792969 L 189.152344 256.71875 " fill-opacity="1" fill-rule="nonzero"/><path fill="#ffffff" d="M 186.769531 101.585938 L 183.019531 101.578125 L 183.023438 100.09375 L 186.769531 100.101562 L 186.769531 101.585938 " fill-opacity="1" fill-rule="nonzero"/><path fill="#ffffff" d="M 186.753906 109.699219 L 183.003906 109.691406 L 183.007812 108.210938 L 186.753906 108.21875 L 186.753906 109.699219 " fill-opacity="1" fill-rule="nonzero"/><path fill="#ffffff" d="M 186.742188 117.816406 L 182.992188 117.808594 L 182.992188 116.324219 L 186.742188 116.332031 L 186.742188 117.816406 " fill-opacity="1" fill-rule="nonzero"/><path fill="#ffffff" d="M 186.726562 125.929688 L 182.976562 125.921875 L 182.980469 124.4375 L 186.726562 124.445312 L 186.726562 125.929688 " fill-opacity="1" fill-rule="nonzero"/><path fill="#ffffff" d="M 186.699219 142.15625 L 182.949219 142.148438 L 182.953125 140.667969 L 186.699219 140.671875 L 186.699219 142.15625 " fill-opacity="1" fill-rule="nonzero"/><path fill="#ffffff" d="M 186.683594 150.269531 L 182.9375 150.265625 L 182.9375 148.78125 L 186.6875 148.789062 L 186.683594 150.269531 " fill-opacity="1" fill-rule="nonzero"/><path fill="#ffffff" d="M 186.671875 158.382812 L 182.921875 158.378906 L 182.925781 156.894531 L 186.671875 156.902344 L 186.671875 158.382812 " fill-opacity="1" fill-rule="nonzero"/><path fill="#ffffff" d="M 186.65625 166.496094 L 182.910156 166.492188 L 182.910156 165.007812 L 186.660156 165.011719 L 186.65625 166.496094 " fill-opacity="1" fill-rule="nonzero"/><path fill="#ffffff" d="M 186.628906 183.308594 L 182.878906 183.300781 L 182.882812 181.820312 L 186.628906 181.824219 L 186.628906 183.308594 " fill-opacity="1" fill-rule="nonzero"/><path fill="#ffffff" d="M 186.613281 190.839844 L 182.867188 190.832031 L 182.867188 189.351562 L 186.617188 189.355469 L 186.613281 190.839844 " fill-opacity="1" fill-rule="nonzero"/><path fill="#ffffff" d="M 186.601562 198.953125 L 182.855469 198.949219 L 182.855469 197.464844 L 186.601562 197.46875 L 186.601562 198.953125 " fill-opacity="1" fill-rule="nonzero"/><path fill="#ffffff" d="M 186.585938 207.066406 L 182.839844 207.058594 L 182.839844 205.578125 L 186.589844 205.585938 L 186.585938 207.066406 " fill-opacity="1" fill-rule="nonzero"/><path fill="#ffffff" d="M 186.5625 222.039062 L 182.8125 222.03125 L 182.816406 220.550781 L 186.566406 220.558594 L 186.5625 222.039062 " fill-opacity="1" fill-rule="nonzero"/><path fill="#ffffff" d="M 186.546875 231.191406 L 182.796875 231.183594 L 182.800781 229.699219 L 186.546875 229.707031 L 186.546875 231.191406 " fill-opacity="1" fill-rule="nonzero"/><path fill="#ffffff" d="M 186.53125 239.417969 L 182.785156 239.410156 L 182.785156 237.925781 L 186.535156 237.933594 L 186.53125 239.417969 " fill-opacity="1" fill-rule="nonzero"/><path fill="#ffffff" d="M 186.515625 248.085938 L 182.769531 248.078125 L 182.769531 246.59375 L 186.519531 246.601562 L 186.515625 248.085938 " fill-opacity="1" fill-rule="nonzero"/><g clip-path="url(#b6b5268047)"><path fill="#0cc0df" d="M 267.722656 217.746094 C 265.464844 216.484375 264.652344 213.625 265.910156 211.367188 C 267.171875 209.109375 270.035156 208.296875 272.292969 209.554688 C 274.550781 210.816406 275.363281 213.679688 274.105469 215.9375 C 272.839844 218.195312 269.980469 219.007812 267.722656 217.746094 Z M 293.734375 251.058594 L 288.902344 242.96875 L 294.367188 244.347656 C 295.144531 244.542969 295.933594 244.074219 296.128906 243.296875 C 296.328125 242.519531 295.855469 241.730469 295.078125 241.535156 L 286.800781 239.445312 L 282.210938 231.75 L 296.332031 235.316406 C 297.109375 235.515625 297.898438 235.042969 298.09375 234.265625 C 298.289062 233.488281 297.820312 232.699219 297.042969 232.503906 L 280.109375 228.230469 L 274.878906 219.46875 C 275.570312 218.890625 276.171875 218.179688 276.636719 217.347656 C 277.011719 216.671875 277.277344 215.964844 277.429688 215.242188 L 287.972656 215.089844 L 299.996094 226.773438 C 300.089844 226.863281 300.191406 226.941406 300.304688 226.996094 C 300.863281 227.308594 301.582031 227.222656 302.046875 226.742188 C 302.605469 226.167969 302.59375 225.25 302.019531 224.691406 L 292.078125 215.03125 L 301.140625 214.898438 L 307.085938 220.671875 C 307.179688 220.765625 307.28125 220.839844 307.390625 220.898438 C 307.949219 221.210938 308.667969 221.125 309.132812 220.640625 C 309.691406 220.070312 309.679688 219.152344 309.105469 218.59375 L 305.246094 214.839844 L 314.308594 214.707031 C 315.109375 214.699219 315.75 214.039062 315.738281 213.238281 C 315.726562 212.4375 315.066406 211.796875 314.265625 211.808594 L 304.847656 211.945312 L 308.773438 207.902344 C 309.332031 207.328125 309.316406 206.410156 308.742188 205.851562 C 308.167969 205.292969 307.25 205.304688 306.691406 205.882812 L 300.742188 212.003906 L 291.785156 212.132812 L 301.933594 201.6875 C 302.492188 201.113281 302.476562 200.195312 301.90625 199.636719 C 301.332031 199.078125 300.414062 199.089844 299.855469 199.664062 L 287.683594 212.191406 L 277.480469 212.339844 C 277.191406 210.703125 276.371094 209.171875 275.097656 208.019531 L 280.234375 198.8125 L 296.367188 194.238281 C 297.136719 194.023438 297.585938 193.21875 297.367188 192.449219 C 297.148438 191.679688 296.347656 191.230469 295.574219 191.449219 L 282.238281 195.230469 L 286.65625 187.3125 L 294.628906 185.054688 C 295.398438 184.835938 295.84375 184.035156 295.628906 183.261719 C 295.410156 182.492188 294.605469 182.042969 293.835938 182.261719 L 288.65625 183.730469 L 293.074219 175.816406 C 293.464844 175.117188 293.214844 174.234375 292.515625 173.84375 C 291.816406 173.449219 290.933594 173.703125 290.542969 174.402344 L 285.949219 182.628906 L 284.414062 177.203125 C 284.195312 176.433594 283.390625 175.988281 282.621094 176.203125 C 281.851562 176.421875 281.402344 177.226562 281.621094 177.996094 L 283.953125 186.207031 L 279.585938 194.035156 L 275.609375 180.019531 C 275.390625 179.25 274.589844 178.800781 273.820312 179.019531 C 273.050781 179.238281 272.601562 180.042969 272.820312 180.8125 L 277.585938 197.617188 L 272.613281 206.519531 C 270.988281 205.925781 269.253906 205.925781 267.679688 206.433594 L 262.269531 197.371094 L 266.375 181.117188 C 266.574219 180.34375 266.101562 179.554688 265.324219 179.355469 C 264.546875 179.160156 263.761719 179.632812 263.5625 180.40625 L 260.167969 193.851562 L 255.523438 186.0625 L 257.550781 178.03125 C 257.746094 177.253906 257.277344 176.464844 256.5 176.269531 C 255.722656 176.074219 254.933594 176.542969 254.738281 177.320312 L 253.421875 182.542969 L 248.773438 174.757812 C 248.367188 174.070312 247.472656 173.84375 246.785156 174.253906 C 246.101562 174.667969 245.875 175.554688 246.285156 176.242188 L 251.113281 184.335938 L 245.648438 182.953125 C 244.871094 182.757812 244.082031 183.230469 243.886719 184.007812 C 243.722656 184.65625 244.027344 185.3125 244.585938 185.625 C 244.691406 185.6875 244.8125 185.734375 244.9375 185.765625 L 253.214844 187.855469 L 257.808594 195.550781 L 243.683594 191.984375 C 242.90625 191.789062 242.117188 192.257812 241.921875 193.035156 C 241.761719 193.6875 242.0625 194.34375 242.621094 194.65625 C 242.730469 194.714844 242.847656 194.765625 242.972656 194.796875 L 259.90625 199.070312 L 265.136719 207.832031 C 264.445312 208.410156 263.84375 209.121094 263.382812 209.953125 C 263.003906 210.628906 262.738281 211.335938 262.585938 212.058594 L 252.042969 212.210938 L 240.019531 200.53125 C 239.445312 199.972656 238.527344 199.984375 237.96875 200.558594 C 237.410156 201.132812 237.421875 202.054688 238 202.609375 L 247.941406 212.269531 L 238.875 212.402344 L 232.933594 206.628906 C 232.359375 206.066406 231.4375 206.085938 230.882812 206.660156 C 230.324219 207.234375 230.335938 208.152344 230.910156 208.710938 L 234.769531 212.460938 L 225.710938 212.589844 C 224.90625 212.601562 224.269531 213.261719 224.277344 214.0625 C 224.285156 214.601562 224.585938 215.066406 225.023438 215.308594 C 225.238281 215.429688 225.488281 215.496094 225.753906 215.492188 L 235.167969 215.355469 L 231.242188 219.398438 C 230.683594 219.972656 230.699219 220.894531 231.273438 221.449219 C 231.367188 221.542969 231.46875 221.617188 231.578125 221.675781 C 232.136719 221.992188 232.855469 221.898438 233.324219 221.417969 L 239.273438 215.296875 L 248.234375 215.167969 L 238.082031 225.613281 C 237.523438 226.191406 237.539062 227.109375 238.113281 227.667969 C 238.203125 227.757812 238.308594 227.832031 238.414062 227.890625 C 238.976562 228.203125 239.695312 228.117188 240.164062 227.636719 L 252.332031 215.109375 L 262.535156 214.960938 C 262.824219 216.597656 263.648438 218.128906 264.917969 219.28125 L 259.78125 228.492188 L 243.648438 233.0625 C 242.878906 233.28125 242.433594 234.082031 242.652344 234.851562 C 242.867188 235.621094 243.671875 236.070312 244.441406 235.851562 L 257.78125 232.070312 L 253.359375 239.992188 L 245.386719 242.25 C 244.617188 242.46875 244.171875 243.269531 244.390625 244.039062 C 244.5 244.425781 244.753906 244.730469 245.078125 244.910156 C 245.402344 245.09375 245.792969 245.148438 246.179688 245.039062 L 251.359375 243.570312 L 246.941406 251.484375 C 246.550781 252.183594 246.800781 253.070312 247.5 253.460938 C 248.199219 253.851562 249.085938 253.601562 249.472656 252.902344 L 254.066406 244.675781 L 255.601562 250.097656 C 255.824219 250.867188 256.625 251.316406 257.394531 251.097656 C 258.167969 250.878906 258.613281 250.078125 258.394531 249.304688 L 256.066406 241.09375 L 260.433594 233.269531 L 264.40625 247.28125 C 264.515625 247.664062 264.769531 247.972656 265.09375 248.152344 C 265.417969 248.332031 265.8125 248.390625 266.199219 248.28125 C 266.96875 248.0625 267.414062 247.261719 267.199219 246.492188 L 262.433594 229.6875 L 267.40625 220.78125 C 269.027344 221.375 270.761719 221.375 272.339844 220.871094 L 277.746094 229.929688 L 273.640625 246.183594 C 273.476562 246.832031 273.777344 247.492188 274.335938 247.804688 C 274.445312 247.863281 274.566406 247.910156 274.691406 247.945312 C 275.46875 248.140625 276.257812 247.667969 276.453125 246.890625 L 279.847656 233.449219 L 284.492188 241.238281 L 282.464844 249.269531 C 282.300781 249.921875 282.605469 250.582031 283.164062 250.894531 C 283.273438 250.953125 283.390625 251 283.515625 251.03125 C 284.292969 251.226562 285.082031 250.757812 285.277344 249.980469 L 286.597656 244.761719 L 291.242188 252.546875 C 291.378906 252.769531 291.5625 252.949219 291.777344 253.066406 C 292.214844 253.3125 292.769531 253.320312 293.230469 253.046875 C 293.917969 252.636719 294.140625 251.746094 293.734375 251.058594 " fill-opacity="1" fill-rule="nonzero"/></g><path fill="#0cc0df" d="M 266.695312 197.8125 L 268.675781 201.234375 C 268.808594 201.464844 269 201.648438 269.222656 201.773438 C 269.441406 201.894531 269.691406 201.960938 269.945312 201.957031 C 270.472656 201.949219 270.953125 201.664062 271.203125 201.203125 L 273.28125 197.414062 C 273.464844 197.074219 273.507812 196.679688 273.398438 196.308594 L 271.390625 189.433594 C 271.210938 188.8125 270.640625 188.386719 269.992188 188.390625 C 269.347656 188.390625 268.78125 188.820312 268.605469 189.445312 L 266.554688 196.691406 C 266.445312 197.070312 266.496094 197.472656 266.695312 197.8125 " fill-opacity="1" fill-rule="nonzero"/><path fill="#0cc0df" d="M 253.59375 208.164062 C 253.691406 208.265625 253.804688 208.351562 253.925781 208.421875 C 254.140625 208.539062 254.386719 208.605469 254.636719 208.605469 L 258.589844 208.597656 C 259.113281 208.597656 259.59375 208.3125 259.851562 207.855469 C 260.109375 207.398438 260.097656 206.839844 259.824219 206.394531 L 257.578125 202.699219 C 257.382812 202.371094 257.058594 202.132812 256.683594 202.039062 L 249.730469 200.34375 C 249.101562 200.1875 248.445312 200.472656 248.125 201.03125 C 247.804688 201.59375 247.890625 202.300781 248.34375 202.761719 L 253.59375 208.164062 " fill-opacity="1" fill-rule="nonzero"/><path fill="#0cc0df" d="M 248.136719 226.292969 C 248.273438 226.523438 248.464844 226.707031 248.683594 226.828125 C 249 227.003906 249.378906 227.0625 249.746094 226.96875 L 257.046875 225.121094 C 257.429688 225.027344 257.753906 224.78125 257.949219 224.4375 L 259.921875 221.011719 C 260.179688 220.558594 260.179688 220 259.910156 219.550781 C 259.644531 219.097656 259.152344 218.828125 258.632812 218.839844 L 254.308594 218.9375 C 253.921875 218.945312 253.558594 219.105469 253.292969 219.382812 L 248.34375 224.5625 C 247.894531 225.027344 247.8125 225.734375 248.136719 226.292969 " fill-opacity="1" fill-rule="nonzero"/><path fill="#0cc0df" d="M 273.320312 229.488281 L 271.339844 226.066406 C 271.078125 225.613281 270.589844 225.339844 270.070312 225.34375 C 269.542969 225.351562 269.0625 225.640625 268.8125 226.097656 L 266.738281 229.890625 C 266.550781 230.226562 266.507812 230.625 266.617188 230.992188 L 268.625 237.867188 C 268.734375 238.242188 268.984375 238.546875 269.308594 238.730469 C 269.519531 238.847656 269.765625 238.914062 270.023438 238.914062 C 270.667969 238.910156 271.234375 238.480469 271.414062 237.859375 L 273.464844 230.609375 C 273.574219 230.230469 273.519531 229.828125 273.320312 229.488281 " fill-opacity="1" fill-rule="nonzero"/><path fill="#0cc0df" d="M 286.421875 219.140625 C 286.148438 218.855469 285.773438 218.699219 285.378906 218.699219 L 281.429688 218.707031 C 280.90625 218.707031 280.421875 218.988281 280.164062 219.445312 C 279.910156 219.902344 279.917969 220.460938 280.191406 220.90625 L 282.4375 224.605469 C 282.566406 224.820312 282.75 224.996094 282.96875 225.117188 C 283.078125 225.179688 283.203125 225.230469 283.332031 225.261719 L 290.289062 226.960938 C 290.917969 227.113281 291.570312 226.832031 291.890625 226.269531 C 292.210938 225.710938 292.125 225.003906 291.671875 224.539062 L 286.421875 219.140625 " fill-opacity="1" fill-rule="nonzero"/><path fill="#0cc0df" d="M 291.878906 201.007812 C 291.550781 200.449219 290.894531 200.175781 290.269531 200.332031 L 282.96875 202.179688 C 282.589844 202.273438 282.261719 202.519531 282.066406 202.859375 L 280.09375 206.289062 C 279.835938 206.742188 279.835938 207.300781 280.105469 207.75 C 280.238281 207.976562 280.425781 208.15625 280.644531 208.277344 C 280.867188 208.402344 281.121094 208.46875 281.386719 208.460938 L 285.707031 208.367188 C 286.09375 208.355469 286.457031 208.195312 286.722656 207.917969 L 291.675781 202.742188 C 292.121094 202.273438 292.203125 201.566406 291.878906 201.007812 " fill-opacity="1" fill-rule="nonzero"/></svg>