<svg xmlns="http://www.w3.org/2000/svg" xmlns:xlink="http://www.w3.org/1999/xlink" width="500" zoomAndPan="magnify" viewBox="0 0 375 374.999991" height="500" preserveAspectRatio="xMidYMid meet" version="1.0"><defs><clipPath id="bd4c83f22e"><path d="M 104 72 L 332 72 L 332 364.53125 L 104 364.53125 Z M 104 72 " clip-rule="nonzero"/></clipPath><clipPath id="94334124d7"><path d="M 170.34375 10.53125 L 343.511719 10.53125 L 343.511719 359.503906 L 170.34375 359.503906 Z M 170.34375 10.53125 " clip-rule="nonzero"/></clipPath><clipPath id="dc51305bbc"><path d="M 31.546875 197 L 56 197 L 56 258 L 31.546875 258 Z M 31.546875 197 " clip-rule="nonzero"/></clipPath></defs><path fill="#ff931e" d="M 322.058594 218.53125 C 322.058594 293.8125 261.023438 354.84375 185.734375 354.84375 C 110.441406 354.84375 49.402344 293.8125 49.402344 218.53125 C 49.402344 143.246094 110.441406 82.214844 185.734375 82.214844 C 261.023438 82.214844 322.058594 143.246094 322.058594 218.53125 " fill-opacity="1" fill-rule="nonzero"/><path fill="#ff931e" d="M 48.972656 171.109375 C 48.226562 170.851562 47.832031 170.039062 48.097656 169.292969 C 51.042969 161.066406 54.75 153.066406 59.136719 145.480469 C 59.53125 144.800781 60.410156 144.574219 61.085938 144.972656 C 61.757812 145.371094 61.980469 146.234375 61.589844 146.914062 C 57.292969 154.34375 53.664062 162.175781 50.773438 170.238281 C 50.511719 170.972656 49.710938 171.363281 48.972656 171.109375 " fill-opacity="1" fill-rule="nonzero"/><path fill="#ff931e" d="M 112.851562 345.214844 C 83.066406 328.050781 60.28125 301.011719 48.484375 268.832031 C 48.210938 268.09375 48.601562 267.277344 49.34375 267.015625 C 50.082031 266.75 50.886719 267.136719 51.152344 267.867188 C 62.722656 299.410156 85.058594 325.914062 114.257812 342.75 C 114.9375 343.140625 115.175781 343.996094 114.792969 344.679688 C 114.410156 345.363281 113.535156 345.609375 112.851562 345.214844 " fill-opacity="1" fill-rule="nonzero"/><g clip-path="url(#bd4c83f22e)"><path fill="#ff931e" d="M 191.875 363.097656 C 191.839844 362.316406 192.445312 361.664062 193.226562 361.621094 C 269.496094 357.707031 329.03125 295.121094 329.03125 218.53125 C 329.03125 139.523438 264.746094 75.246094 185.734375 75.246094 C 157.488281 75.246094 130.222656 83.429688 106.789062 98.929688 C 106.136719 99.363281 105.261719 99.191406 104.820312 98.546875 C 104.382812 97.894531 104.554688 97.003906 105.210938 96.570312 C 129.113281 80.757812 156.925781 72.40625 185.734375 72.40625 C 205.460938 72.40625 224.601562 76.269531 242.617188 83.890625 C 260.019531 91.25 275.648438 101.785156 289.070312 115.207031 C 302.488281 128.625 313.023438 144.25 320.386719 161.652344 C 328.007812 179.667969 331.871094 198.804688 331.871094 218.53125 C 331.871094 256.480469 317.386719 292.445312 291.089844 319.792969 C 265.199219 346.71875 230.539062 362.546875 193.359375 364.457031 C 192.574219 364.5 191.90625 363.886719 191.875 363.097656 " fill-opacity="1" fill-rule="nonzero"/></g><g clip-path="url(#94334124d7)"><path fill="#074c72" d="M 329.183594 359.269531 L 185.003906 333.847656 C 177.09375 332.453125 170.679688 324.910156 170.679688 316.996094 L 170.679688 22.554688 C 170.679688 14.644531 177.09375 9.359375 185.003906 10.753906 L 329.183594 36.175781 C 337.097656 37.570312 343.511719 45.113281 343.511719 53.023438 L 343.511719 347.46875 C 343.511719 355.378906 337.097656 360.664062 329.183594 359.269531 " fill-opacity="1" fill-rule="nonzero"/></g><path fill="#005c9c" d="M 339.03125 52.234375 L 339.03125 346.679688 C 339.03125 352.109375 334.617188 355.746094 329.1875 354.789062 L 185.003906 329.371094 C 179.574219 328.414062 175.15625 323.214844 175.15625 317.789062 L 175.15625 23.339844 C 175.15625 19.839844 176.996094 17.085938 179.757812 15.828125 C 181.277344 15.132812 183.078125 14.890625 185.003906 15.230469 L 213.480469 20.25 L 329.1875 40.652344 C 334.617188 41.609375 339.03125 46.804688 339.03125 52.234375 " fill-opacity="1" fill-rule="nonzero"/><path fill="#074c72" d="M 281.421875 38.648438 L 230.679688 29.703125 C 227.050781 29.0625 224.109375 25.605469 224.109375 21.980469 L 224.109375 18.695312 L 287.988281 29.957031 L 287.988281 33.238281 C 287.988281 36.867188 285.050781 39.289062 281.421875 38.648438 " fill-opacity="1" fill-rule="nonzero"/><path fill="#0090d4" d="M 307.175781 278.242188 L 296.847656 255.371094 L 257.730469 248.472656 C 257.671875 248.070312 257.550781 247.691406 257.382812 247.351562 L 297.570312 254.433594 L 306.863281 275.015625 L 311.152344 256.828125 L 314.613281 257.441406 C 315.070312 257.519531 315.519531 257.558594 315.957031 257.558594 C 317.492188 257.558594 318.898438 257.074219 320.007812 256.144531 C 321.402344 254.976562 322.167969 253.226562 322.167969 251.226562 L 322.167969 219.207031 C 322.167969 214.949219 318.699219 210.867188 314.433594 210.117188 L 269.300781 202.160156 C 269.441406 201.828125 269.582031 201.5 269.726562 201.175781 L 314.613281 209.089844 C 319.355469 209.925781 323.214844 214.464844 323.214844 219.207031 L 323.214844 251.226562 C 323.214844 253.542969 322.3125 255.570312 320.679688 256.941406 C 319.378906 258.035156 317.742188 258.605469 315.964844 258.605469 C 315.464844 258.605469 314.953125 258.5625 314.433594 258.46875 L 311.945312 258.03125 L 307.175781 278.242188 M 241.933594 245.6875 L 238.023438 245 C 238.414062 244.726562 238.8125 244.445312 239.210938 244.148438 L 247.390625 245.585938 C 245.570312 245.636719 243.753906 245.671875 241.933594 245.6875 M 185.15625 210.546875 L 185.15625 201.515625 C 185.507812 201.421875 185.855469 201.328125 186.203125 201.226562 L 186.203125 210.484375 C 185.855469 210.507812 185.507812 210.527344 185.15625 210.546875 M 235.441406 196.1875 L 205.839844 190.972656 C 206.164062 190.695312 206.484375 190.417969 206.800781 190.136719 C 206.820312 190.121094 206.835938 190.105469 206.851562 190.089844 L 236.96875 195.398438 C 236.46875 195.664062 235.957031 195.929688 235.441406 196.1875 " fill-opacity="1" fill-rule="nonzero"/><path fill="#0090d4" d="M 306.371094 224.207031 C 306.167969 224.207031 305.960938 224.191406 305.75 224.152344 L 262.066406 216.453125 C 263.324219 214.285156 264.515625 212.097656 265.628906 209.914062 L 305.75 216.988281 C 307.722656 217.335938 309.332031 219.234375 309.332031 221.203125 C 309.332031 222.960938 308.050781 224.207031 306.371094 224.207031 M 211.996094 207.621094 L 195.15625 204.652344 C 193.1875 204.308594 191.574219 202.410156 191.574219 200.441406 C 191.574219 200.039062 191.640625 199.660156 191.769531 199.320312 C 193.101562 198.78125 194.402344 198.203125 195.664062 197.578125 L 221.875 202.199219 C 217.398438 204.273438 214.222656 206.015625 211.996094 207.621094 " fill-opacity="1" fill-rule="nonzero"/><path fill="#0090d4" d="M 306.445312 235.042969 C 306.242188 235.042969 306.035156 235.023438 305.828125 234.984375 L 255.832031 226.171875 C 257.3125 224.082031 258.734375 221.933594 260.082031 219.757812 L 305.828125 227.820312 C 307.796875 228.171875 309.40625 230.066406 309.40625 232.035156 C 309.40625 233.792969 308.121094 235.042969 306.445312 235.042969 M 207.320312 210.453125 C 204.660156 210.136719 201.808594 210.015625 198.832031 210.015625 C 196.5625 210.015625 194.21875 210.082031 191.828125 210.191406 C 192.238281 209.023438 193.304688 208.269531 194.613281 208.269531 C 194.8125 208.269531 195.023438 208.285156 195.230469 208.324219 L 207.320312 210.453125 " fill-opacity="1" fill-rule="nonzero"/><path fill="#0090d4" d="M 260.179688 237.703125 C 259.976562 237.703125 259.769531 237.683594 259.558594 237.648438 L 248.273438 235.65625 C 248.578125 235.324219 248.878906 234.984375 249.1875 234.632812 C 250.65625 232.953125 252.078125 231.207031 253.449219 229.410156 L 259.558594 230.484375 C 261.527344 230.832031 263.140625 232.726562 263.140625 234.699219 C 263.140625 236.457031 261.855469 237.703125 260.179688 237.703125 " fill-opacity="1" fill-rule="nonzero"/><path fill="#fdfefe" d="M 221.722656 158 C 221.722656 170.539062 216.023438 181.894531 206.800781 190.136719 C 197.941406 198.050781 184.9375 203.304688 170.382812 203.589844 C 156.300781 203.863281 143.539062 198.554688 134.265625 190.398438 C 124.863281 182.136719 119.039062 170.671875 119.039062 158 C 119.039062 145.324219 124.863281 133.859375 134.265625 125.597656 C 136.632812 123.515625 139.230469 121.636719 142.019531 119.992188 C 142.171875 119.902344 142.324219 119.8125 142.480469 119.722656 L 142.609375 119.648438 C 150.617188 115.066406 160.148438 112.40625 170.382812 112.40625 C 178.75 112.40625 186.652344 114.183594 193.628906 117.34375 C 193.800781 117.417969 193.964844 117.492188 194.132812 117.570312 C 194.316406 117.660156 194.5 117.742188 194.6875 117.832031 C 199.164062 119.972656 203.242188 122.683594 206.800781 125.863281 C 216.023438 134.101562 221.722656 145.457031 221.722656 158 " fill-opacity="1" fill-rule="nonzero"/><path fill="#e1f2fa" d="M 221.722656 157.996094 C 221.722656 170.539062 216.023438 181.898438 206.800781 190.136719 C 197.574219 181.898438 180.082031 170.804688 180.082031 158.265625 C 180.082031 145.722656 189.933594 128.179688 206.800781 125.863281 C 216.023438 134.101562 221.722656 145.457031 221.722656 157.996094 " fill-opacity="1" fill-rule="nonzero"/><path fill="#038abd" d="M 138.144531 160.164062 C 138.144531 169.0625 132.496094 176.28125 125.53125 176.28125 C 118.566406 176.28125 112.921875 169.0625 112.921875 160.164062 C 112.921875 151.261719 118.566406 144.046875 125.53125 144.046875 C 132.496094 144.046875 138.144531 151.261719 138.144531 160.164062 " fill-opacity="1" fill-rule="nonzero"/><path fill="#e1f2fa" d="M 144.261719 159.589844 C 144.261719 172.261719 143.664062 182.136719 134.265625 190.398438 C 124.863281 182.136719 119.039062 170.671875 119.039062 157.996094 C 119.039062 145.324219 124.863281 133.859375 134.265625 125.597656 C 143.664062 133.859375 144.261719 146.914062 144.261719 159.589844 " fill-opacity="1" fill-rule="nonzero"/><path fill="#038abd" d="M 205.753906 164.640625 C 204.386719 182.585938 193.304688 197.839844 168.738281 197.839844 C 168.582031 197.839844 168.425781 197.839844 168.269531 197.835938 L 168.164062 197.835938 C 143.925781 197.597656 128.074219 182.453125 126.800781 164.640625 C 125.371094 144.617188 138.128906 133.597656 160.804688 133.414062 C 161.789062 133.40625 162.792969 133.417969 163.816406 133.449219 C 188.292969 134.242188 207.398438 143.136719 205.753906 164.640625 " fill-opacity="1" fill-rule="nonzero"/><path fill="#02b8f2" d="M 204.707031 164.640625 C 203.347656 182.445312 192.429688 197.597656 168.269531 197.835938 L 168.164062 197.835938 C 143.925781 197.597656 128.074219 182.453125 126.800781 164.640625 C 125.371094 144.617188 138.128906 133.597656 160.804688 133.414062 C 161.449219 133.417969 162.105469 133.425781 162.769531 133.449219 C 187.25 134.242188 206.351562 143.136719 204.707031 164.640625 " fill-opacity="1" fill-rule="nonzero"/><path fill="#02b8f2" d="M 112.890625 224.089844 C 133.730469 204.78125 142.511719 206.179688 149.28125 213.488281 C 156.046875 220.792969 159.753906 233.609375 136.320312 249.671875 C 110.683594 267.238281 67.304688 256.375 69.21875 250.035156 C 72.097656 240.503906 92.046875 243.398438 112.890625 224.089844 " fill-opacity="1" fill-rule="nonzero"/><path fill="#038abd" d="M 136.320312 249.671875 C 113.585938 265.25 76.898438 258.472656 70.21875 252.316406 C 69.367188 251.53125 69 250.753906 69.21875 250.035156 C 72.097656 240.503906 92.046875 243.398438 112.890625 224.089844 C 133.398438 205.089844 142.226562 206.140625 148.953125 213.140625 C 149.0625 213.253906 149.171875 213.371094 149.277344 213.488281 C 156.050781 220.792969 159.753906 233.609375 136.320312 249.671875 " fill-opacity="1" fill-rule="nonzero"/><path fill="#02b8f2" d="M 134.289062 240.578125 C 114.636719 258.117188 79.742188 257.03125 70.21875 252.316406 C 69.367188 251.53125 69 250.753906 69.21875 250.035156 C 72.097656 240.503906 92.046875 243.398438 112.890625 224.089844 C 133.398438 205.089844 142.226562 206.140625 148.953125 213.140625 C 150.308594 219.90625 147.273438 228.988281 134.289062 240.578125 " fill-opacity="1" fill-rule="nonzero"/><path fill="#fdfefe" d="M 230.679688 319.25 C 200.757812 321.847656 169.449219 308.011719 150.078125 287.371094 C 138.335938 274.859375 134.5625 259.847656 134.5625 244.480469 C 134.5625 210.140625 147.089844 210.585938 164.980469 211.027344 C 168.300781 211.109375 171.808594 211.191406 175.457031 211.050781 C 193.375 210.363281 211.96875 207.519531 220.933594 215.714844 C 226.164062 220.503906 228.109375 228.96875 224.710938 243.585938 C 215.753906 282.089844 316.683594 311.769531 230.679688 319.25 " fill-opacity="1" fill-rule="nonzero"/><path fill="#02b8f2" d="M 197.496094 212.089844 C 197.910156 215.023438 189.695312 218.613281 179.144531 220.105469 C 168.597656 221.601562 159.707031 220.429688 159.292969 217.496094 C 158.875 214.558594 167.089844 210.96875 177.640625 209.476562 C 188.191406 207.980469 197.078125 209.152344 197.496094 212.089844 " fill-opacity="1" fill-rule="nonzero"/><path fill="#038abd" d="M 161.128906 182.027344 C 158.125 182.027344 155.679688 179.582031 155.679688 176.578125 C 155.679688 176.042969 156.117188 175.609375 156.648438 175.609375 C 157.1875 175.609375 157.621094 176.042969 157.621094 176.578125 C 157.621094 178.511719 159.195312 180.085938 161.128906 180.085938 C 163.0625 180.085938 164.636719 178.511719 164.636719 176.578125 C 164.636719 176.042969 165.070312 175.609375 165.605469 175.609375 C 166.144531 175.609375 166.578125 176.042969 166.578125 176.578125 C 166.578125 179.582031 164.132812 182.027344 161.128906 182.027344 " fill-opacity="1" fill-rule="nonzero"/><path fill="#fdfefe" d="M 160.832031 182.027344 C 157.828125 182.027344 155.382812 179.582031 155.382812 176.578125 C 155.382812 176.042969 155.816406 175.609375 156.355469 175.609375 C 156.886719 175.609375 157.320312 176.042969 157.320312 176.578125 C 157.320312 178.511719 158.894531 180.085938 160.832031 180.085938 C 162.765625 180.085938 164.335938 178.511719 164.335938 176.578125 C 164.335938 176.042969 164.769531 175.609375 165.308594 175.609375 C 165.84375 175.609375 166.277344 176.042969 166.277344 176.578125 C 166.277344 179.582031 163.832031 182.027344 160.832031 182.027344 " fill-opacity="1" fill-rule="nonzero"/><path fill="#fdfefe" d="M 194.132812 117.570312 C 191.917969 125.007812 176.914062 130.765625 163.515625 130.765625 C 151.441406 130.765625 144.476562 126.09375 142.480469 119.722656 C 150.511719 115.09375 160.09375 112.40625 170.382812 112.40625 C 178.953125 112.40625 187.03125 114.273438 194.132812 117.570312 " fill-opacity="1" fill-rule="nonzero"/><path fill="#e1f2fa" d="M 194.6875 117.832031 C 186.578125 126.292969 175.8125 130.996094 163.132812 130.996094 C 162.101562 130.996094 161.050781 130.964844 159.980469 130.914062 C 150.230469 130.414062 144.1875 126.738281 142.019531 119.992188 C 142.171875 119.902344 142.324219 119.8125 142.480469 119.722656 L 142.609375 119.648438 C 144.890625 125.625 150.984375 129.40625 160.035156 129.867188 C 174.066406 130.589844 185.054688 126.488281 193.628906 117.34375 C 193.800781 117.417969 193.964844 117.492188 194.132812 117.570312 C 194.316406 117.660156 194.5 117.742188 194.6875 117.832031 " fill-opacity="1" fill-rule="nonzero"/><path fill="#038abd" d="M 152.917969 167.402344 C 152.917969 171.5625 151.214844 174.9375 149.113281 174.9375 C 147.011719 174.9375 145.308594 171.5625 145.308594 167.402344 C 145.308594 163.238281 147.011719 159.863281 149.113281 159.863281 C 151.214844 159.863281 152.917969 163.238281 152.917969 167.402344 " fill-opacity="1" fill-rule="nonzero"/><path fill="#005c9c" d="M 152.625 168 C 152.625 172.160156 150.984375 175.535156 148.964844 175.535156 C 146.945312 175.535156 145.308594 172.160156 145.308594 168 C 145.308594 163.835938 146.945312 160.460938 148.964844 160.460938 C 150.984375 160.460938 152.625 163.835938 152.625 168 " fill-opacity="1" fill-rule="nonzero"/><path fill="#038abd" d="M 175.605469 167.699219 C 175.605469 171.863281 173.902344 175.234375 171.800781 175.234375 C 169.699219 175.234375 167.992188 171.863281 167.992188 167.699219 C 167.992188 163.535156 169.699219 160.164062 171.800781 160.164062 C 173.902344 160.164062 175.605469 163.535156 175.605469 167.699219 " fill-opacity="1" fill-rule="nonzero"/><path fill="#005c9c" d="M 175.308594 168.296875 C 175.308594 172.460938 173.671875 175.832031 171.652344 175.832031 C 169.628906 175.832031 167.992188 172.460938 167.992188 168.296875 C 167.992188 164.132812 169.628906 160.761719 171.652344 160.761719 C 173.671875 160.761719 175.308594 164.132812 175.308594 168.296875 " fill-opacity="1" fill-rule="nonzero"/><path fill="#038abd" d="M 177.128906 156.324219 C 176.921875 157.117188 175.140625 157.347656 173.140625 156.832031 C 171.148438 156.316406 169.699219 155.253906 169.902344 154.457031 C 170.109375 153.65625 171.894531 153.425781 173.890625 153.945312 C 175.886719 154.457031 177.335938 155.523438 177.128906 156.324219 " fill-opacity="1" fill-rule="nonzero"/><path fill="#038abd" d="M 150.832031 154.566406 C 150.980469 155.257812 149.699219 156.121094 147.964844 156.492188 C 146.234375 156.863281 144.707031 156.605469 144.558594 155.914062 C 144.410156 155.21875 145.691406 154.355469 147.425781 153.984375 C 149.15625 153.613281 150.683594 153.871094 150.832031 154.566406 " fill-opacity="1" fill-rule="nonzero"/><path fill="#bfa55d" d="M 168.125 112.453125 C 168.128906 112.453125 168.132812 112.453125 168.132812 112.453125 C 168.132812 112.453125 168.128906 112.453125 168.125 112.453125 M 168.179688 112.449219 C 168.191406 112.449219 168.203125 112.449219 168.214844 112.449219 C 168.203125 112.449219 168.191406 112.449219 168.179688 112.449219 M 168.230469 112.449219 C 168.246094 112.445312 168.265625 112.445312 168.285156 112.445312 C 168.265625 112.445312 168.246094 112.445312 168.230469 112.449219 M 168.285156 112.445312 C 168.859375 112.425781 169.4375 112.414062 170.019531 112.410156 C 170.007812 112.410156 170 112.410156 169.988281 112.410156 C 169.980469 112.410156 169.96875 112.410156 169.960938 112.410156 C 169.949219 112.410156 169.941406 112.410156 169.925781 112.410156 C 169.917969 112.410156 169.910156 112.410156 169.902344 112.410156 C 169.890625 112.410156 169.878906 112.410156 169.867188 112.410156 C 169.859375 112.410156 169.851562 112.410156 169.839844 112.410156 C 169.828125 112.410156 169.816406 112.410156 169.808594 112.410156 C 169.796875 112.410156 169.789062 112.410156 169.78125 112.414062 C 169.769531 112.414062 169.757812 112.414062 169.742188 112.414062 C 169.738281 112.414062 169.730469 112.414062 169.722656 112.414062 C 169.710938 112.414062 169.695312 112.414062 169.683594 112.414062 C 169.675781 112.414062 169.667969 112.414062 169.664062 112.414062 C 169.648438 112.414062 169.636719 112.414062 169.621094 112.414062 C 169.617188 112.414062 169.609375 112.414062 169.601562 112.414062 C 169.589844 112.414062 169.574219 112.414062 169.5625 112.414062 C 169.554688 112.414062 169.550781 112.414062 169.542969 112.414062 C 169.53125 112.414062 169.515625 112.414062 169.503906 112.414062 C 169.496094 112.414062 169.488281 112.414062 169.484375 112.414062 C 169.46875 112.414062 169.453125 112.414062 169.4375 112.414062 C 169.433594 112.414062 169.429688 112.414062 169.421875 112.414062 C 169.410156 112.414062 169.390625 112.414062 169.378906 112.414062 C 169.371094 112.414062 169.367188 112.417969 169.363281 112.417969 C 169.351562 112.417969 169.335938 112.417969 169.320312 112.417969 C 169.316406 112.417969 169.308594 112.417969 169.304688 112.417969 C 169.289062 112.417969 169.277344 112.417969 169.261719 112.417969 C 169.257812 112.417969 169.25 112.417969 169.242188 112.417969 C 169.230469 112.417969 169.214844 112.421875 169.199219 112.421875 C 169.191406 112.421875 169.191406 112.421875 169.183594 112.421875 C 169.167969 112.421875 169.152344 112.421875 169.136719 112.421875 C 169.132812 112.421875 169.128906 112.421875 169.125 112.421875 C 169.109375 112.421875 169.09375 112.421875 169.078125 112.425781 C 169.070312 112.425781 169.070312 112.425781 169.066406 112.425781 C 169.050781 112.425781 169.03125 112.425781 169.015625 112.425781 C 169.011719 112.425781 169.011719 112.425781 169.003906 112.425781 C 168.988281 112.425781 168.972656 112.425781 168.953125 112.425781 C 168.949219 112.425781 168.949219 112.425781 168.945312 112.425781 C 168.929688 112.425781 168.910156 112.425781 168.894531 112.425781 C 168.890625 112.425781 168.890625 112.425781 168.886719 112.425781 C 168.867188 112.425781 168.851562 112.425781 168.832031 112.429688 C 168.828125 112.429688 168.828125 112.429688 168.828125 112.429688 C 168.808594 112.429688 168.789062 112.429688 168.769531 112.429688 C 168.769531 112.429688 168.769531 112.429688 168.765625 112.429688 C 168.730469 112.433594 168.691406 112.433594 168.652344 112.433594 C 168.527344 112.4375 168.40625 112.441406 168.285156 112.445312 M 170.027344 112.410156 C 170.0625 112.410156 170.101562 112.410156 170.136719 112.410156 C 170.128906 112.410156 170.121094 112.410156 170.109375 112.410156 C 170.101562 112.410156 170.09375 112.410156 170.082031 112.410156 C 170.070312 112.410156 170.0625 112.410156 170.050781 112.410156 C 170.039062 112.410156 170.03125 112.410156 170.027344 112.410156 M 170.144531 112.410156 C 170.164062 112.410156 170.179688 112.410156 170.199219 112.410156 C 170.1875 112.410156 170.179688 112.410156 170.167969 112.410156 C 170.160156 112.410156 170.152344 112.410156 170.144531 112.410156 M 170.207031 112.410156 C 170.222656 112.410156 170.242188 112.410156 170.257812 112.40625 C 170.242188 112.410156 170.234375 112.410156 170.222656 112.410156 C 170.214844 112.410156 170.210938 112.410156 170.207031 112.410156 M 170.261719 112.40625 C 170.28125 112.40625 170.300781 112.40625 170.316406 112.40625 C 170.304688 112.40625 170.289062 112.40625 170.277344 112.40625 C 170.273438 112.40625 170.269531 112.40625 170.261719 112.40625 M 170.328125 112.40625 C 170.347656 112.40625 170.363281 112.40625 170.382812 112.40625 C 170.363281 112.40625 170.347656 112.40625 170.328125 112.40625 " fill-opacity="1" fill-rule="nonzero"/><path fill="#12a3d9" d="M 185.15625 201.515625 C 185.507812 201.421875 185.855469 201.328125 186.203125 201.226562 C 185.855469 201.328125 185.507812 201.421875 185.15625 201.515625 M 205.839844 190.972656 C 206.164062 190.695312 206.484375 190.417969 206.800781 190.136719 C 206.484375 190.417969 206.164062 190.695312 205.839844 190.972656 " fill-opacity="1" fill-rule="nonzero"/><path fill="#beedf5" d="M 169.335938 203.597656 C 167.765625 203.597656 166.21875 203.53125 164.6875 203.394531 C 177.671875 202.34375 190.683594 198.757812 197.246094 190.160156 C 198.597656 188.390625 199.761719 186.714844 200.765625 185.09375 C 202.960938 186.875 205.03125 188.558594 206.800781 190.136719 C 206.484375 190.417969 206.164062 190.695312 205.839844 190.972656 C 202.851562 193.492188 199.429688 195.722656 195.664062 197.578125 C 194.402344 198.203125 193.101562 198.78125 191.769531 199.320312 C 189.976562 200.039062 188.117188 200.675781 186.203125 201.226562 C 185.855469 201.328125 185.507812 201.421875 185.15625 201.515625 C 181.957031 202.375 178.613281 202.984375 175.15625 203.316406 C 173.683594 203.457031 172.191406 203.546875 170.679688 203.582031 C 170.582031 203.585938 170.480469 203.589844 170.382812 203.589844 C 170.035156 203.597656 169.683594 203.597656 169.335938 203.597656 M 221.617188 160.996094 C 221.617188 160.992188 221.617188 160.988281 221.617188 160.988281 C 221.617188 160.988281 221.617188 160.992188 221.617188 160.996094 M 221.617188 160.980469 C 221.6875 159.996094 221.722656 159 221.722656 157.996094 C 221.722656 158 221.722656 158 221.722656 158 C 221.722656 159 221.6875 159.996094 221.617188 160.980469 M 198.058594 128.644531 C 197.65625 128.160156 197.238281 127.671875 196.800781 127.183594 C 195.171875 125.363281 193.328125 123.519531 191.316406 121.863281 C 192.269531 120.941406 193.03125 119.972656 193.558594 118.964844 C 193.941406 118.597656 194.316406 118.21875 194.6875 117.832031 C 199.164062 119.972656 203.242188 122.683594 206.800781 125.863281 C 203.632812 126.296875 200.710938 127.269531 198.058594 128.644531 M 181.382812 113.457031 C 181.382812 113.457031 181.378906 113.457031 181.378906 113.457031 C 181.378906 113.457031 181.382812 113.457031 181.382812 113.457031 M 181.339844 113.449219 C 181.335938 113.445312 181.332031 113.445312 181.332031 113.445312 C 181.332031 113.445312 181.335938 113.445312 181.339844 113.449219 M 181.292969 113.441406 C 181.292969 113.4375 181.285156 113.4375 181.28125 113.4375 C 181.285156 113.4375 181.292969 113.4375 181.292969 113.441406 M 181.246094 113.429688 C 181.246094 113.429688 181.238281 113.429688 181.234375 113.429688 C 181.238281 113.429688 181.246094 113.429688 181.246094 113.429688 M 181.203125 113.421875 C 181.199219 113.421875 181.1875 113.417969 181.183594 113.417969 C 181.1875 113.417969 181.199219 113.421875 181.203125 113.421875 M 181.160156 113.414062 C 181.152344 113.414062 181.140625 113.410156 181.136719 113.410156 C 181.140625 113.410156 181.152344 113.414062 181.160156 113.414062 M 181.113281 113.40625 C 181.105469 113.402344 181.09375 113.402344 181.085938 113.398438 C 181.09375 113.402344 181.105469 113.402344 181.113281 113.40625 M 181.066406 113.398438 C 181.054688 113.394531 181.046875 113.394531 181.039062 113.390625 C 181.046875 113.394531 181.054688 113.394531 181.066406 113.398438 M 181.019531 113.390625 C 181.007812 113.386719 181 113.382812 180.988281 113.382812 C 181 113.382812 181.007812 113.386719 181.019531 113.390625 M 180.972656 113.378906 C 180.960938 113.378906 180.945312 113.375 180.929688 113.371094 C 180.945312 113.375 180.960938 113.378906 180.972656 113.378906 M 180.929688 113.371094 C 178.0625 112.839844 175.105469 112.519531 172.082031 112.433594 C 175.105469 112.519531 178.0625 112.839844 180.929688 113.371094 M 172.082031 112.433594 C 172.066406 112.433594 172.050781 112.433594 172.03125 112.433594 C 172.050781 112.433594 172.066406 112.433594 172.082031 112.433594 M 172.027344 112.433594 C 172.015625 112.429688 172 112.429688 171.984375 112.429688 C 172 112.429688 172.015625 112.429688 172.027344 112.433594 M 168.765625 112.429688 C 168.769531 112.429688 168.769531 112.429688 168.769531 112.429688 C 168.769531 112.429688 168.769531 112.429688 168.765625 112.429688 M 171.980469 112.429688 C 171.964844 112.429688 171.949219 112.429688 171.9375 112.429688 C 171.949219 112.429688 171.964844 112.429688 171.980469 112.429688 M 168.828125 112.429688 C 168.828125 112.429688 168.828125 112.429688 168.832031 112.429688 C 168.828125 112.429688 168.828125 112.429688 168.828125 112.429688 M 171.925781 112.429688 C 171.914062 112.425781 171.898438 112.425781 171.886719 112.425781 C 171.902344 112.425781 171.914062 112.425781 171.925781 112.429688 M 168.886719 112.425781 C 168.890625 112.425781 168.890625 112.425781 168.894531 112.425781 C 168.890625 112.425781 168.890625 112.425781 168.886719 112.425781 M 171.875 112.425781 C 171.863281 112.425781 171.851562 112.425781 171.835938 112.425781 C 171.851562 112.425781 171.863281 112.425781 171.875 112.425781 M 171.824219 112.425781 C 171.8125 112.425781 171.800781 112.425781 171.785156 112.425781 C 171.800781 112.425781 171.8125 112.425781 171.824219 112.425781 M 168.945312 112.425781 C 168.949219 112.425781 168.949219 112.425781 168.953125 112.425781 C 168.949219 112.425781 168.949219 112.425781 168.945312 112.425781 M 171.777344 112.425781 C 171.765625 112.425781 171.75 112.425781 171.738281 112.425781 C 171.75 112.425781 171.765625 112.425781 171.777344 112.425781 M 169.003906 112.425781 C 169.011719 112.425781 169.011719 112.425781 169.015625 112.425781 C 169.011719 112.425781 169.011719 112.425781 169.003906 112.425781 M 171.726562 112.425781 C 171.710938 112.425781 171.703125 112.425781 171.6875 112.425781 C 171.703125 112.425781 171.710938 112.425781 171.726562 112.425781 M 169.066406 112.425781 C 169.070312 112.425781 169.070312 112.425781 169.078125 112.425781 C 169.070312 112.425781 169.070312 112.425781 169.066406 112.425781 M 171.675781 112.421875 C 171.664062 112.421875 171.652344 112.421875 171.640625 112.421875 C 171.652344 112.421875 171.664062 112.421875 171.675781 112.421875 M 169.125 112.421875 C 169.128906 112.421875 169.132812 112.421875 169.136719 112.421875 C 169.132812 112.421875 169.128906 112.421875 169.125 112.421875 M 171.625 112.421875 C 171.613281 112.421875 171.601562 112.421875 171.589844 112.421875 C 171.601562 112.421875 171.613281 112.421875 171.625 112.421875 M 169.183594 112.421875 C 169.191406 112.421875 169.191406 112.421875 169.199219 112.421875 C 169.195312 112.421875 169.1875 112.421875 169.183594 112.421875 M 171.574219 112.421875 C 171.5625 112.421875 171.550781 112.421875 171.539062 112.417969 C 171.550781 112.421875 171.5625 112.421875 171.574219 112.421875 M 171.523438 112.417969 C 171.511719 112.417969 171.503906 112.417969 171.492188 112.417969 C 171.503906 112.417969 171.511719 112.417969 171.523438 112.417969 M 169.242188 112.417969 C 169.25 112.417969 169.257812 112.417969 169.261719 112.417969 C 169.257812 112.417969 169.25 112.417969 169.242188 112.417969 M 171.472656 112.417969 C 171.464844 112.417969 171.453125 112.417969 171.441406 112.417969 C 171.453125 112.417969 171.464844 112.417969 171.472656 112.417969 M 169.304688 112.417969 C 169.308594 112.417969 169.316406 112.417969 169.320312 112.417969 C 169.316406 112.417969 169.308594 112.417969 169.304688 112.417969 M 171.425781 112.417969 C 171.414062 112.417969 171.402344 112.417969 171.390625 112.417969 C 171.402344 112.417969 171.414062 112.417969 171.425781 112.417969 M 169.363281 112.417969 C 169.367188 112.417969 169.371094 112.414062 169.378906 112.414062 C 169.371094 112.414062 169.367188 112.417969 169.363281 112.417969 M 171.375 112.414062 C 171.363281 112.414062 171.355469 112.414062 171.34375 112.414062 C 171.355469 112.414062 171.363281 112.414062 171.375 112.414062 M 169.421875 112.414062 C 169.429688 112.414062 169.433594 112.414062 169.4375 112.414062 C 169.433594 112.414062 169.429688 112.414062 169.421875 112.414062 M 171.324219 112.414062 C 171.3125 112.414062 171.304688 112.414062 171.292969 112.414062 C 171.304688 112.414062 171.3125 112.414062 171.324219 112.414062 M 169.484375 112.414062 C 169.488281 112.414062 169.496094 112.414062 169.503906 112.414062 C 169.496094 112.414062 169.488281 112.414062 169.484375 112.414062 M 171.277344 112.414062 C 171.265625 112.414062 171.257812 112.414062 171.246094 112.414062 C 171.257812 112.414062 171.265625 112.414062 171.277344 112.414062 M 171.226562 112.414062 C 171.21875 112.414062 171.207031 112.414062 171.195312 112.414062 C 171.207031 112.414062 171.21875 112.414062 171.226562 112.414062 M 169.542969 112.414062 C 169.550781 112.414062 169.554688 112.414062 169.5625 112.414062 C 169.554688 112.414062 169.550781 112.414062 169.542969 112.414062 M 171.175781 112.414062 C 171.167969 112.414062 171.15625 112.414062 171.144531 112.414062 C 171.15625 112.414062 171.167969 112.414062 171.175781 112.414062 M 169.601562 112.414062 C 169.609375 112.414062 169.617188 112.414062 169.621094 112.414062 C 169.617188 112.414062 169.609375 112.414062 169.601562 112.414062 M 171.125 112.414062 C 171.117188 112.414062 171.105469 112.414062 171.097656 112.414062 C 171.105469 112.414062 171.117188 112.414062 171.125 112.414062 M 169.664062 112.414062 C 169.667969 112.414062 169.675781 112.414062 169.683594 112.414062 C 169.675781 112.414062 169.667969 112.414062 169.664062 112.414062 M 171.078125 112.414062 C 171.066406 112.414062 171.058594 112.414062 171.046875 112.414062 C 171.058594 112.414062 171.066406 112.414062 171.078125 112.414062 M 169.722656 112.414062 C 169.730469 112.414062 169.738281 112.414062 169.742188 112.414062 C 169.738281 112.414062 169.730469 112.414062 169.722656 112.414062 M 171.03125 112.414062 C 171.019531 112.414062 171.007812 112.414062 170.996094 112.414062 C 171.007812 112.414062 171.019531 112.414062 171.03125 112.414062 M 169.78125 112.414062 C 169.789062 112.410156 169.796875 112.410156 169.808594 112.410156 C 169.796875 112.410156 169.789062 112.410156 169.78125 112.414062 M 170.980469 112.414062 C 170.96875 112.410156 170.957031 112.410156 170.949219 112.410156 C 170.957031 112.410156 170.96875 112.410156 170.980469 112.414062 M 170.925781 112.410156 C 170.917969 112.410156 170.90625 112.410156 170.898438 112.410156 C 170.90625 112.410156 170.917969 112.410156 170.925781 112.410156 M 169.839844 112.410156 C 169.851562 112.410156 169.859375 112.410156 169.867188 112.410156 C 169.859375 112.410156 169.851562 112.410156 169.839844 112.410156 M 170.878906 112.410156 C 170.867188 112.410156 170.859375 112.410156 170.847656 112.410156 C 170.859375 112.410156 170.867188 112.410156 170.878906 112.410156 M 169.902344 112.410156 C 169.910156 112.410156 169.917969 112.410156 169.925781 112.410156 C 169.917969 112.410156 169.910156 112.410156 169.902344 112.410156 M 170.832031 112.410156 C 170.820312 112.410156 170.808594 112.410156 170.800781 112.410156 C 170.808594 112.410156 170.820312 112.410156 170.832031 112.410156 M 169.960938 112.410156 C 169.96875 112.410156 169.980469 112.410156 169.988281 112.410156 C 169.980469 112.410156 169.96875 112.410156 169.960938 112.410156 M 170.78125 112.410156 C 170.769531 112.410156 170.761719 112.410156 170.75 112.410156 C 170.761719 112.410156 170.769531 112.410156 170.78125 112.410156 M 170.023438 112.410156 C 170.023438 112.410156 170.023438 112.410156 170.027344 112.410156 C 170.03125 112.410156 170.039062 112.410156 170.050781 112.410156 C 170.039062 112.410156 170.03125 112.410156 170.023438 112.410156 M 170.730469 112.410156 C 170.71875 112.410156 170.710938 112.410156 170.703125 112.410156 C 170.710938 112.410156 170.71875 112.410156 170.730469 112.410156 M 170.082031 112.410156 C 170.09375 112.410156 170.101562 112.410156 170.109375 112.410156 C 170.101562 112.410156 170.089844 112.410156 170.082031 112.410156 M 170.679688 112.410156 C 170.671875 112.410156 170.660156 112.410156 170.652344 112.410156 C 170.660156 112.410156 170.671875 112.410156 170.679688 112.410156 M 170.632812 112.410156 C 170.621094 112.410156 170.613281 112.410156 170.601562 112.410156 C 170.613281 112.410156 170.621094 112.410156 170.632812 112.410156 M 170.144531 112.410156 C 170.152344 112.410156 170.160156 112.410156 170.167969 112.410156 C 170.160156 112.410156 170.152344 112.410156 170.144531 112.410156 M 170.582031 112.410156 C 170.570312 112.410156 170.5625 112.410156 170.554688 112.410156 C 170.5625 112.410156 170.570312 112.410156 170.582031 112.410156 M 170.207031 112.410156 C 170.210938 112.410156 170.214844 112.410156 170.222656 112.410156 C 170.214844 112.410156 170.210938 112.410156 170.207031 112.410156 M 170.53125 112.410156 C 170.519531 112.410156 170.507812 112.40625 170.5 112.40625 C 170.507812 112.40625 170.519531 112.410156 170.53125 112.410156 M 170.261719 112.40625 C 170.269531 112.40625 170.273438 112.40625 170.277344 112.40625 C 170.273438 112.40625 170.269531 112.40625 170.261719 112.40625 M 170.480469 112.40625 C 170.472656 112.40625 170.457031 112.40625 170.445312 112.40625 C 170.457031 112.40625 170.472656 112.40625 170.480469 112.40625 M 170.328125 112.40625 C 170.347656 112.40625 170.363281 112.40625 170.382812 112.40625 C 170.363281 112.40625 170.347656 112.40625 170.328125 112.40625 M 170.433594 112.40625 C 170.414062 112.40625 170.398438 112.40625 170.382812 112.40625 C 170.398438 112.40625 170.414062 112.40625 170.433594 112.40625 " fill-opacity="1" fill-rule="nonzero"/><path fill="#abe5f2" d="M 206.800781 190.136719 C 205.03125 188.558594 202.960938 186.875 200.765625 185.09375 C 206.203125 176.324219 206.949219 169.253906 206.949219 158.671875 C 206.949219 146.753906 205.734375 137.925781 198.058594 128.644531 C 200.710938 127.269531 203.632812 126.296875 206.800781 125.863281 C 216.023438 134.101562 221.722656 145.457031 221.722656 158 C 221.722656 159 221.6875 159.996094 221.617188 160.980469 C 221.617188 160.984375 221.617188 160.988281 221.617188 160.988281 C 221.617188 160.988281 221.617188 160.992188 221.617188 160.996094 C 220.785156 172.339844 215.285156 182.554688 206.800781 190.136719 " fill-opacity="1" fill-rule="nonzero"/><path fill="#beedf5" d="M 191.316406 121.863281 C 191.140625 121.71875 190.96875 121.578125 190.789062 121.441406 C 191.742188 120.660156 192.664062 119.835938 193.558594 118.964844 C 193.03125 119.972656 192.269531 120.941406 191.316406 121.863281 M 189.976562 120.8125 C 188.441406 119.660156 186.824219 118.636719 185.132812 117.832031 C 184.949219 117.742188 184.765625 117.660156 184.578125 117.570312 C 184.414062 117.492188 184.246094 117.417969 184.078125 117.34375 C 178.441406 114.792969 172.203125 113.144531 165.605469 112.605469 C 166.4375 112.535156 167.28125 112.484375 168.125 112.453125 C 168.128906 112.453125 168.132812 112.453125 168.132812 112.453125 C 168.148438 112.453125 168.164062 112.449219 168.179688 112.449219 C 168.191406 112.449219 168.203125 112.449219 168.214844 112.449219 C 168.21875 112.449219 168.226562 112.449219 168.230469 112.449219 C 168.246094 112.445312 168.265625 112.445312 168.285156 112.445312 C 168.40625 112.441406 168.527344 112.4375 168.652344 112.433594 C 168.691406 112.433594 168.730469 112.433594 168.765625 112.429688 C 168.769531 112.429688 168.769531 112.429688 168.769531 112.429688 C 168.789062 112.429688 168.808594 112.429688 168.828125 112.429688 C 168.828125 112.429688 168.828125 112.429688 168.832031 112.429688 C 168.851562 112.425781 168.867188 112.425781 168.886719 112.425781 C 168.890625 112.425781 168.890625 112.425781 168.894531 112.425781 C 168.910156 112.425781 168.929688 112.425781 168.945312 112.425781 C 168.949219 112.425781 168.949219 112.425781 168.953125 112.425781 C 168.972656 112.425781 168.988281 112.425781 169.003906 112.425781 C 169.011719 112.425781 169.011719 112.425781 169.015625 112.425781 C 169.03125 112.425781 169.050781 112.425781 169.066406 112.425781 C 169.070312 112.425781 169.070312 112.425781 169.078125 112.425781 C 169.09375 112.421875 169.109375 112.421875 169.125 112.421875 C 169.128906 112.421875 169.132812 112.421875 169.136719 112.421875 C 169.152344 112.421875 169.167969 112.421875 169.183594 112.421875 C 169.1875 112.421875 169.195312 112.421875 169.199219 112.421875 C 169.214844 112.421875 169.230469 112.417969 169.242188 112.417969 C 169.25 112.417969 169.257812 112.417969 169.261719 112.417969 C 169.277344 112.417969 169.289062 112.417969 169.304688 112.417969 C 169.308594 112.417969 169.316406 112.417969 169.320312 112.417969 C 169.335938 112.417969 169.351562 112.417969 169.363281 112.417969 C 169.367188 112.417969 169.371094 112.414062 169.378906 112.414062 C 169.390625 112.414062 169.410156 112.414062 169.421875 112.414062 C 169.429688 112.414062 169.433594 112.414062 169.4375 112.414062 C 169.453125 112.414062 169.46875 112.414062 169.484375 112.414062 C 169.488281 112.414062 169.496094 112.414062 169.503906 112.414062 C 169.515625 112.414062 169.53125 112.414062 169.542969 112.414062 C 169.550781 112.414062 169.554688 112.414062 169.5625 112.414062 C 169.574219 112.414062 169.589844 112.414062 169.601562 112.414062 C 169.609375 112.414062 169.617188 112.414062 169.621094 112.414062 C 169.636719 112.414062 169.648438 112.414062 169.664062 112.414062 C 169.667969 112.414062 169.675781 112.414062 169.683594 112.414062 C 169.695312 112.414062 169.710938 112.414062 169.722656 112.414062 C 169.730469 112.414062 169.738281 112.414062 169.742188 112.414062 C 169.757812 112.414062 169.769531 112.414062 169.78125 112.414062 C 169.789062 112.410156 169.796875 112.410156 169.808594 112.410156 C 169.816406 112.410156 169.828125 112.410156 169.839844 112.410156 C 169.851562 112.410156 169.859375 112.410156 169.867188 112.410156 C 169.878906 112.410156 169.890625 112.410156 169.902344 112.410156 C 169.910156 112.410156 169.917969 112.410156 169.925781 112.410156 C 169.941406 112.410156 169.949219 112.410156 169.960938 112.410156 C 169.96875 112.410156 169.980469 112.410156 169.988281 112.410156 C 170 112.410156 170.007812 112.410156 170.019531 112.410156 C 170.019531 112.410156 170.023438 112.410156 170.023438 112.410156 C 170.03125 112.410156 170.039062 112.410156 170.050781 112.410156 C 170.0625 112.410156 170.070312 112.410156 170.082031 112.410156 C 170.089844 112.410156 170.101562 112.410156 170.109375 112.410156 C 170.121094 112.410156 170.128906 112.410156 170.136719 112.410156 C 170.140625 112.410156 170.140625 112.410156 170.144531 112.410156 C 170.152344 112.410156 170.160156 112.410156 170.167969 112.410156 C 170.179688 112.410156 170.1875 112.410156 170.199219 112.410156 C 170.203125 112.410156 170.203125 112.410156 170.207031 112.410156 C 170.210938 112.410156 170.214844 112.410156 170.222656 112.410156 C 170.234375 112.410156 170.242188 112.410156 170.257812 112.40625 C 170.257812 112.40625 170.261719 112.40625 170.261719 112.40625 C 170.269531 112.40625 170.273438 112.40625 170.277344 112.40625 C 170.289062 112.40625 170.304688 112.40625 170.316406 112.40625 C 170.320312 112.40625 170.324219 112.40625 170.328125 112.40625 C 170.347656 112.40625 170.363281 112.40625 170.382812 112.40625 C 170.398438 112.40625 170.414062 112.40625 170.433594 112.40625 C 170.4375 112.40625 170.441406 112.40625 170.445312 112.40625 C 170.457031 112.40625 170.472656 112.40625 170.480469 112.40625 C 170.488281 112.40625 170.492188 112.40625 170.5 112.40625 C 170.507812 112.40625 170.519531 112.410156 170.53125 112.410156 C 170.539062 112.410156 170.546875 112.410156 170.554688 112.410156 C 170.5625 112.410156 170.570312 112.410156 170.582031 112.410156 C 170.589844 112.410156 170.59375 112.410156 170.601562 112.410156 C 170.613281 112.410156 170.621094 112.410156 170.632812 112.410156 C 170.636719 112.410156 170.648438 112.410156 170.652344 112.410156 C 170.660156 112.410156 170.671875 112.410156 170.679688 112.410156 C 170.6875 112.410156 170.695312 112.410156 170.703125 112.410156 C 170.710938 112.410156 170.71875 112.410156 170.730469 112.410156 C 170.734375 112.410156 170.746094 112.410156 170.75 112.410156 C 170.761719 112.410156 170.769531 112.410156 170.78125 112.410156 C 170.785156 112.410156 170.792969 112.410156 170.800781 112.410156 C 170.808594 112.410156 170.820312 112.410156 170.832031 112.410156 C 170.835938 112.410156 170.839844 112.410156 170.847656 112.410156 C 170.859375 112.410156 170.867188 112.410156 170.878906 112.410156 C 170.886719 112.410156 170.890625 112.410156 170.898438 112.410156 C 170.90625 112.410156 170.917969 112.410156 170.925781 112.410156 C 170.933594 112.410156 170.941406 112.410156 170.949219 112.410156 C 170.957031 112.410156 170.96875 112.410156 170.980469 112.414062 C 170.984375 112.414062 170.992188 112.414062 170.996094 112.414062 C 171.007812 112.414062 171.019531 112.414062 171.03125 112.414062 C 171.035156 112.414062 171.039062 112.414062 171.046875 112.414062 C 171.058594 112.414062 171.066406 112.414062 171.078125 112.414062 C 171.085938 112.414062 171.089844 112.414062 171.097656 112.414062 C 171.105469 112.414062 171.117188 112.414062 171.125 112.414062 C 171.132812 112.414062 171.140625 112.414062 171.144531 112.414062 C 171.15625 112.414062 171.167969 112.414062 171.175781 112.414062 C 171.183594 112.414062 171.191406 112.414062 171.195312 112.414062 C 171.207031 112.414062 171.21875 112.414062 171.226562 112.414062 C 171.234375 112.414062 171.238281 112.414062 171.246094 112.414062 C 171.257812 112.414062 171.265625 112.414062 171.277344 112.414062 C 171.28125 112.414062 171.289062 112.414062 171.292969 112.414062 C 171.304688 112.414062 171.3125 112.414062 171.324219 112.414062 C 171.332031 112.414062 171.335938 112.414062 171.34375 112.414062 C 171.355469 112.414062 171.363281 112.414062 171.375 112.414062 C 171.378906 112.414062 171.386719 112.414062 171.390625 112.417969 C 171.402344 112.417969 171.414062 112.417969 171.425781 112.417969 C 171.429688 112.417969 171.4375 112.417969 171.441406 112.417969 C 171.453125 112.417969 171.464844 112.417969 171.472656 112.417969 C 171.480469 112.417969 171.484375 112.417969 171.492188 112.417969 C 171.503906 112.417969 171.511719 112.417969 171.523438 112.417969 C 171.53125 112.417969 171.535156 112.417969 171.539062 112.417969 C 171.550781 112.421875 171.5625 112.421875 171.574219 112.421875 C 171.578125 112.421875 171.585938 112.421875 171.589844 112.421875 C 171.601562 112.421875 171.613281 112.421875 171.625 112.421875 C 171.628906 112.421875 171.636719 112.421875 171.640625 112.421875 C 171.652344 112.421875 171.664062 112.421875 171.675781 112.421875 C 171.679688 112.421875 171.683594 112.425781 171.6875 112.425781 C 171.703125 112.425781 171.710938 112.425781 171.726562 112.425781 C 171.730469 112.425781 171.734375 112.425781 171.738281 112.425781 C 171.75 112.425781 171.765625 112.425781 171.777344 112.425781 C 171.777344 112.425781 171.785156 112.425781 171.785156 112.425781 C 171.800781 112.425781 171.8125 112.425781 171.824219 112.425781 C 171.828125 112.425781 171.835938 112.425781 171.835938 112.425781 C 171.851562 112.425781 171.863281 112.425781 171.875 112.425781 C 171.882812 112.425781 171.882812 112.425781 171.886719 112.425781 C 171.898438 112.425781 171.914062 112.425781 171.925781 112.429688 C 171.929688 112.429688 171.929688 112.429688 171.9375 112.429688 C 171.949219 112.429688 171.964844 112.429688 171.980469 112.429688 C 171.980469 112.429688 171.984375 112.429688 171.984375 112.429688 C 172 112.429688 172.015625 112.429688 172.027344 112.433594 C 172.03125 112.433594 172.03125 112.433594 172.03125 112.433594 C 172.050781 112.433594 172.066406 112.433594 172.082031 112.433594 C 175.105469 112.519531 178.0625 112.839844 180.929688 113.371094 C 180.945312 113.375 180.960938 113.378906 180.972656 113.378906 C 180.980469 113.378906 180.980469 113.378906 180.988281 113.382812 C 181 113.382812 181.007812 113.386719 181.019531 113.390625 C 181.027344 113.390625 181.03125 113.390625 181.039062 113.390625 C 181.046875 113.394531 181.054688 113.394531 181.066406 113.398438 C 181.074219 113.398438 181.078125 113.398438 181.085938 113.398438 C 181.09375 113.402344 181.105469 113.402344 181.113281 113.40625 C 181.121094 113.410156 181.128906 113.410156 181.136719 113.410156 C 181.140625 113.410156 181.152344 113.414062 181.160156 113.414062 C 181.167969 113.417969 181.175781 113.417969 181.183594 113.417969 C 181.1875 113.417969 181.199219 113.421875 181.203125 113.421875 C 181.214844 113.425781 181.222656 113.429688 181.234375 113.429688 C 181.238281 113.429688 181.246094 113.429688 181.246094 113.429688 C 181.261719 113.433594 181.269531 113.4375 181.28125 113.4375 C 181.285156 113.4375 181.292969 113.4375 181.292969 113.441406 C 181.304688 113.441406 181.320312 113.445312 181.332031 113.445312 C 181.332031 113.445312 181.335938 113.445312 181.339844 113.449219 C 181.351562 113.453125 181.367188 113.453125 181.378906 113.457031 C 181.378906 113.457031 181.382812 113.457031 181.382812 113.457031 C 185.695312 114.292969 189.800781 115.609375 193.628906 117.34375 C 192.457031 118.59375 191.242188 119.75 189.976562 120.8125 " fill-opacity="1" fill-rule="nonzero"/><path fill="#abe5f2" d="M 190.789062 121.441406 C 190.523438 121.226562 190.25 121.019531 189.976562 120.8125 C 191.242188 119.75 192.457031 118.59375 193.628906 117.34375 C 193.800781 117.417969 193.964844 117.492188 194.132812 117.570312 C 194.316406 117.660156 194.5 117.742188 194.6875 117.832031 C 194.316406 118.21875 193.941406 118.597656 193.558594 118.964844 C 192.664062 119.835938 191.742188 120.660156 190.789062 121.441406 " fill-opacity="1" fill-rule="nonzero"/><path fill="#087799" d="M 235.15625 160.164062 C 235.15625 166.136719 232.59375 171.394531 228.714844 174.429688 C 226.496094 176.167969 223.84375 177.175781 221 177.175781 C 219.976562 177.175781 218.976562 177.046875 218.019531 176.796875 C 211.628906 175.152344 206.847656 168.332031 206.847656 160.164062 C 206.847656 151.996094 211.628906 145.171875 218.019531 143.53125 C 218.976562 143.28125 219.976562 143.148438 221 143.148438 C 223.84375 143.148438 226.496094 144.160156 228.714844 145.898438 C 232.59375 148.929688 235.15625 154.1875 235.15625 160.164062 " fill-opacity="1" fill-rule="nonzero"/><path fill="#06a1c4" d="M 223.914062 120.753906 L 224.03125 120.855469 Z M 228.824219 123.652344 C 228.347656 121.847656 227.660156 120.246094 226.699219 119.4375 C 225.082031 118.078125 222.015625 119.371094 224.042969 120.863281 C 224.515625 121.421875 224.761719 123.289062 224.886719 124.910156 C 224.980469 126.121094 225.015625 127.191406 225.027344 127.492188 C 225.347656 134.933594 221.75 141.6875 218.636719 148.246094 C 216.902344 154.222656 222.898438 152.765625 225.160156 149.96875 C 226.289062 148.574219 226.972656 145.058594 227.492188 143.402344 C 228.726562 139.464844 229.882812 135.3125 229.8125 131.140625 C 229.78125 129.453125 229.53125 126.328125 228.824219 123.652344 " fill-opacity="1" fill-rule="nonzero"/><path fill="#02b8f2" d="M 235.453125 160.164062 C 235.453125 169.0625 229.808594 176.28125 222.84375 176.28125 C 215.878906 176.28125 210.230469 169.0625 210.230469 160.164062 C 210.230469 151.261719 215.878906 144.046875 222.84375 144.046875 C 229.808594 144.046875 235.453125 151.261719 235.453125 160.164062 " fill-opacity="1" fill-rule="nonzero"/><path fill="#02b8f2" d="M 235.453125 160.164062 C 235.453125 169.066406 229.808594 176.28125 222.84375 176.28125 C 219.902344 176.28125 217.199219 174.996094 215.054688 172.84375 C 215.300781 172.648438 215.539062 172.453125 215.777344 172.257812 C 217.847656 170.53125 219.796875 168.710938 221.707031 166.890625 L 221.742188 166.855469 C 222.441406 166.15625 222.4375 165.023438 221.738281 164.324219 C 221.035156 163.628906 219.902344 163.628906 219.203125 164.328125 C 217.355469 166.183594 215.511719 168 213.589844 169.6875 C 213.386719 169.863281 213.183594 170.039062 212.980469 170.207031 C 211.257812 167.453125 210.230469 163.960938 210.230469 160.164062 C 210.230469 151.261719 215.878906 144.046875 222.84375 144.046875 C 229.808594 144.046875 235.453125 151.261719 235.453125 160.164062 " fill-opacity="1" fill-rule="nonzero"/><path fill="#06a1c4" d="M 235.453125 160.164062 C 235.453125 169.066406 229.808594 176.28125 222.84375 176.28125 C 221.972656 176.28125 221.125 176.171875 220.304688 175.953125 C 225.511719 173.441406 229.183594 167.320312 229.183594 160.164062 C 229.183594 153.007812 225.511719 146.886719 220.304688 144.371094 C 221.125 144.160156 221.972656 144.046875 222.84375 144.046875 C 229.808594 144.046875 235.453125 151.261719 235.453125 160.164062 " fill-opacity="1" fill-rule="nonzero"/><path fill="#038abd" d="M 220.304688 175.953125 C 219.570312 176.3125 218.804688 176.59375 218.019531 176.796875 C 211.628906 175.152344 206.847656 168.332031 206.847656 160.164062 C 206.847656 151.996094 211.628906 145.171875 218.019531 143.53125 C 218.804688 143.734375 219.570312 144.015625 220.304688 144.371094 C 214.554688 145.875 210.230469 152.375 210.230469 160.164062 C 210.230469 167.953125 214.554688 174.453125 220.304688 175.953125 " fill-opacity="1" fill-rule="nonzero"/><path fill="#038abd" d="M 228.824219 123.652344 C 227.941406 124.453125 226.757812 124.945312 225.453125 124.945312 C 225.261719 124.945312 225.074219 124.933594 224.886719 124.910156 C 224.761719 123.289062 224.515625 121.421875 224.042969 120.867188 C 222.015625 119.371094 225.082031 118.078125 226.699219 119.4375 C 227.660156 120.246094 228.347656 121.847656 228.824219 123.652344 " fill-opacity="1" fill-rule="nonzero"/><path fill="#06a1c4" d="M 230.230469 118.972656 C 230.230469 121.613281 228.027344 123.75 225.304688 123.75 C 222.585938 123.75 220.378906 121.613281 220.378906 118.972656 C 220.378906 116.335938 222.585938 114.199219 225.304688 114.199219 C 228.027344 114.199219 230.230469 116.335938 230.230469 118.972656 " fill-opacity="1" fill-rule="nonzero"/><path fill="#ff931e" d="M 239.222656 115.019531 C 238.84375 115.019531 238.488281 114.777344 238.367188 114.394531 C 236.234375 107.558594 228.9375 103.738281 222.101562 105.875 C 221.628906 106.023438 221.128906 105.757812 220.980469 105.289062 C 220.832031 104.816406 221.097656 104.3125 221.570312 104.164062 C 229.34375 101.734375 237.648438 106.082031 240.082031 113.859375 C 240.226562 114.332031 239.964844 114.832031 239.492188 114.980469 C 239.402344 115.007812 239.3125 115.019531 239.222656 115.019531 " fill-opacity="1" fill-rule="nonzero"/><path fill="#ff931e" d="M 234.949219 116.359375 C 234.570312 116.359375 234.214844 116.113281 234.097656 115.726562 C 232.695312 111.25 227.914062 108.75 223.4375 110.148438 C 222.96875 110.296875 222.460938 110.03125 222.316406 109.558594 C 222.167969 109.085938 222.433594 108.585938 222.90625 108.4375 C 228.320312 106.746094 234.109375 109.773438 235.804688 115.195312 C 235.953125 115.667969 235.6875 116.167969 235.21875 116.316406 C 235.128906 116.34375 235.039062 116.359375 234.949219 116.359375 " fill-opacity="1" fill-rule="nonzero"/><path fill="#038abd" d="M 215.054688 172.84375 C 213.191406 174.34375 211.222656 175.734375 209.183594 176.976562 C 206.882812 178.382812 204.515625 179.625 202.128906 180.796875 C 200.929688 181.382812 199.738281 181.9375 198.523438 182.492188 C 197.261719 183.070312 195.976562 183.527344 194.691406 183.949219 C 193.402344 184.367188 192.101562 184.707031 190.800781 185.03125 C 189.496094 185.339844 188.191406 185.625 186.878906 185.867188 C 184.261719 186.359375 181.632812 186.734375 179 187.039062 C 176.371094 187.339844 173.730469 187.574219 171.097656 187.746094 C 168.453125 187.914062 165.824219 188.035156 163.160156 188.070312 C 162.628906 188.078125 162.1875 187.652344 162.179688 187.113281 C 162.171875 186.585938 162.582031 186.152344 163.109375 186.132812 C 165.714844 186.027344 168.332031 185.839844 170.925781 185.605469 C 173.527344 185.371094 176.125 185.074219 178.699219 184.707031 C 181.277344 184.339844 183.84375 183.90625 186.378906 183.359375 C 187.644531 183.089844 188.894531 182.785156 190.144531 182.457031 C 191.382812 182.113281 192.617188 181.753906 193.816406 181.328125 C 195.011719 180.902344 196.195312 180.445312 197.3125 179.898438 C 198.46875 179.332031 199.640625 178.746094 200.789062 178.148438 C 203.089844 176.945312 205.34375 175.683594 207.496094 174.296875 C 209.417969 173.046875 211.242188 171.6875 212.980469 170.207031 C 213.589844 171.1875 214.289062 172.070312 215.054688 172.84375 " fill-opacity="1" fill-rule="nonzero"/><path fill="#038abd" d="M 172.175781 187.175781 C 172.175781 188.988281 169.433594 190.457031 166.054688 190.457031 C 162.675781 190.457031 159.933594 188.988281 159.933594 187.175781 C 159.933594 185.359375 162.675781 183.894531 166.054688 183.894531 C 169.433594 183.894531 172.175781 185.359375 172.175781 187.175781 " fill-opacity="1" fill-rule="nonzero"/><path fill="#e1f2fa" d="M 174.65625 235.285156 C 174.34375 235.285156 174.023438 235.296875 173.699219 235.316406 L 168.652344 235.585938 C 159.914062 236.117188 149.167969 243.863281 148.429688 253.050781 L 148.402344 253.449219 C 148.117188 256.761719 149.304688 260.058594 151.84375 263 C 155.671875 267.441406 161.992188 270.4375 168.339844 270.820312 L 174.019531 271.121094 C 178.390625 271.398438 181.910156 270.230469 184.472656 267.644531 C 187.550781 264.539062 189.003906 259.523438 188.566406 253.523438 L 188.535156 253.054688 C 187.90625 244.355469 183.914062 235.285156 174.65625 235.285156 M 175.214844 272.804688 C 174.789062 272.804688 174.359375 272.789062 173.917969 272.757812 L 168.246094 272.460938 C 161.464844 272.050781 154.707031 268.835938 150.597656 264.074219 C 147.765625 260.785156 146.441406 257.070312 146.765625 253.320312 L 146.792969 252.925781 C 147.609375 242.773438 158.957031 234.53125 168.5625 233.945312 L 173.601562 233.679688 C 182.765625 233.09375 189.28125 240.644531 190.175781 252.945312 L 190.203125 253.40625 C 190.675781 259.886719 189.054688 265.351562 185.640625 268.796875 C 183.03125 271.429688 179.445312 272.804688 175.214844 272.804688 " fill-opacity="1" fill-rule="nonzero"/><path fill="#50cef6" d="M 135.441406 151.171875 C 135.027344 151.171875 134.664062 150.976562 134.355469 150.519531 C 132.757812 148.164062 135.203125 143.726562 139.808594 140.605469 C 142.53125 138.761719 145.398438 137.789062 147.621094 137.789062 C 149.15625 137.789062 150.382812 138.253906 151.035156 139.21875 C 152.632812 141.570312 148.125 142.117188 143.515625 145.238281 C 139.804688 147.753906 137.160156 151.171875 135.441406 151.171875 " fill-opacity="1" fill-rule="nonzero"/><path fill="#50cef6" d="M 124.910156 222.871094 C 124.132812 222.871094 123.507812 222.59375 123.070312 221.945312 C 121.472656 219.59375 125.03125 216.707031 129.636719 213.589844 C 132.457031 211.675781 135.875 210.609375 138.460938 210.609375 C 140.097656 210.609375 141.40625 211.035156 142.023438 211.949219 C 143.621094 214.300781 137.976562 215.542969 133.367188 218.664062 C 130.027344 220.925781 126.957031 222.871094 124.910156 222.871094 " fill-opacity="1" fill-rule="nonzero"/><path fill="#50cef6" d="M 132.023438 156.882812 C 130.953125 156.882812 130.085938 155.878906 130.085938 154.640625 C 130.085938 153.40625 130.953125 152.402344 132.023438 152.402344 C 133.097656 152.402344 133.964844 153.40625 133.964844 154.640625 C 133.964844 155.878906 133.097656 156.882812 132.023438 156.882812 " fill-opacity="1" fill-rule="nonzero"/><path fill="#50cef6" d="M 118.890625 226.257812 C 118.347656 226.257812 117.835938 226.050781 117.488281 225.636719 C 116.789062 224.820312 116.988281 223.511719 117.933594 222.710938 C 118.394531 222.3125 118.953125 222.113281 119.484375 222.113281 C 120.03125 222.113281 120.542969 222.320312 120.894531 222.730469 C 121.585938 223.550781 121.386719 224.859375 120.449219 225.660156 C 119.984375 226.058594 119.421875 226.257812 118.890625 226.257812 " fill-opacity="1" fill-rule="nonzero"/><path fill="#02b8f2" d="M 197.546875 212.097656 C 197.097656 208.664062 196.949219 208.367188 196.949219 208.367188 L 190.828125 209.859375 L 197.546875 212.097656 " fill-opacity="1" fill-rule="nonzero"/><path fill="#02b8f2" d="M 159.335938 217.46875 L 158.890625 214.039062 L 163.964844 214.484375 Z M 159.335938 217.46875 " fill-opacity="1" fill-rule="nonzero"/><path fill="#c79b4d" d="M 150.167969 287.46875 C 150.167969 287.46875 150.164062 287.464844 150.164062 287.464844 C 150.164062 287.464844 150.167969 287.46875 150.167969 287.46875 M 150.125 287.417969 C 150.105469 287.402344 150.09375 287.386719 150.078125 287.371094 C 150.09375 287.386719 150.105469 287.402344 150.125 287.417969 " fill-opacity="1" fill-rule="nonzero"/><path fill="#c6effb" d="M 223.386719 319.5625 C 219.867188 319.5625 216.34375 319.34375 212.839844 318.933594 C 188.871094 316.105469 165.703125 303.972656 150.167969 287.46875 C 150.167969 287.46875 150.164062 287.464844 150.164062 287.464844 C 150.152344 287.449219 150.136719 287.433594 150.125 287.417969 C 150.105469 287.402344 150.09375 287.386719 150.078125 287.371094 C 156.550781 291.148438 163.101562 293.828125 173.964844 294.027344 C 174.394531 294.035156 174.816406 294.039062 175.234375 294.039062 C 184.285156 294.039062 189.847656 292.222656 193.402344 290.097656 C 194.09375 291.203125 195.230469 292.023438 196.554688 292.238281 C 210.640625 294.5 224.800781 295.753906 238.925781 295.996094 L 250.28125 309.921875 L 246.753906 296.027344 C 248.972656 296.007812 251.1875 295.964844 253.398438 295.894531 C 254.960938 295.84375 256.367188 294.910156 257.140625 293.597656 C 262.113281 298.558594 265.625 302.960938 265.625 306.707031 C 265.636719 312.679688 256.734375 316.980469 230.679688 319.25 C 228.253906 319.457031 225.820312 319.5625 223.386719 319.5625 M 216.824219 244.84375 C 214 244.628906 211.179688 244.375 208.359375 244.082031 C 208.609375 239.734375 208.871094 235.003906 209.109375 230.539062 C 209.375 231.390625 209.679688 232.296875 210.027344 233.226562 C 211.488281 237.171875 213.683594 241.628906 216.824219 244.84375 " fill-opacity="1" fill-rule="nonzero"/><path fill="#038abd" d="M 197.085938 208.6875 C 197.503906 211.625 189.285156 215.210938 178.738281 216.707031 C 168.1875 218.199219 159.296875 217.03125 158.882812 214.09375 C 158.46875 211.160156 166.683594 207.570312 177.230469 206.078125 C 187.78125 204.582031 196.671875 205.75 197.085938 208.6875 " fill-opacity="1" fill-rule="nonzero"/><path fill="#02b8f2" d="M 249.1875 234.632812 C 268.417969 212.640625 279.847656 178.9375 276.066406 169.957031 C 275.582031 168.808594 274.917969 168.132812 274.089844 168.035156 C 263.070312 166.722656 258.289062 186.96875 230.117188 198.621094 C 202.390625 210.09375 207.097656 212.394531 207.546875 224.335938 C 207.550781 224.503906 215.902344 272.6875 249.1875 234.632812 " fill-opacity="1" fill-rule="nonzero"/><path fill="#038abd" d="M 249.1875 234.632812 C 220.523438 267.402344 210.351562 236.222656 208.078125 226.824219 C 207.707031 225.304688 207.546875 224.355469 207.546875 224.335938 C 207.097656 212.394531 202.390625 210.09375 230.117188 198.621094 C 256.796875 187.585938 262.5 168.84375 272.386719 168.003906 C 272.9375 167.953125 273.503906 167.964844 274.089844 168.035156 C 274.917969 168.132812 275.582031 168.808594 276.066406 169.957031 C 279.847656 178.9375 268.417969 212.640625 249.1875 234.632812 " fill-opacity="1" fill-rule="nonzero"/><path fill="#02b8f2" d="M 272.386719 168.003906 C 270.359375 182.132812 260.117188 206.332031 245.15625 223.4375 C 224.554688 246.992188 213.507812 237.511719 208.078125 226.824219 C 207.707031 225.304688 207.546875 224.355469 207.546875 224.335938 C 207.097656 212.394531 202.390625 210.09375 230.117188 198.621094 C 256.796875 187.585938 262.5 168.84375 272.386719 168.003906 " fill-opacity="1" fill-rule="nonzero"/><path fill="#50cef6" d="M 213.859375 214.898438 C 212.722656 214.898438 211.820312 214.539062 211.277344 213.738281 C 209.679688 211.382812 213.835938 209.546875 218.441406 206.425781 C 221.917969 204.074219 226.292969 201.71875 228.917969 201.71875 C 229.769531 201.71875 230.4375 201.96875 230.828125 202.546875 C 232.421875 204.898438 226.777344 208.378906 222.171875 211.5 C 219.136719 213.554688 216.058594 214.898438 213.859375 214.898438 " fill-opacity="1" fill-rule="nonzero"/><path fill="#0090d4" d="M 307.101562 128.261719 L 296.773438 105.386719 L 193.683594 87.210938 C 188.941406 86.378906 185.082031 81.835938 185.082031 77.09375 L 185.082031 45.074219 C 185.082031 42.757812 185.984375 40.730469 187.617188 39.355469 C 188.917969 38.265625 190.558594 37.695312 192.332031 37.695312 C 192.835938 37.695312 193.347656 37.738281 193.863281 37.832031 L 314.539062 59.109375 C 319.28125 59.941406 323.140625 64.484375 323.140625 69.226562 L 323.140625 101.246094 C 323.140625 103.5625 322.238281 105.589844 320.605469 106.964844 C 319.300781 108.054688 317.667969 108.625 315.890625 108.625 C 315.390625 108.625 314.878906 108.582031 314.359375 108.488281 L 311.867188 108.050781 L 307.101562 128.261719 M 192.339844 38.742188 C 190.804688 38.742188 189.398438 39.222656 188.289062 40.15625 C 186.898438 41.324219 186.128906 43.070312 186.128906 45.074219 L 186.128906 77.09375 C 186.128906 81.351562 189.597656 85.429688 193.863281 86.183594 L 297.496094 104.457031 L 306.789062 125.03125 L 311.078125 106.851562 L 314.539062 107.460938 C 314.996094 107.539062 315.445312 107.578125 315.882812 107.578125 C 317.417969 107.578125 318.824219 107.09375 319.933594 106.164062 C 321.328125 104.996094 322.09375 103.25 322.09375 101.246094 L 322.09375 69.226562 C 322.09375 64.96875 318.625 60.890625 314.359375 60.136719 L 193.683594 38.859375 C 193.226562 38.777344 192.777344 38.742188 192.339844 38.742188 " fill-opacity="1" fill-rule="nonzero"/><path fill="#0090d4" d="M 306.296875 74.226562 C 306.09375 74.226562 305.886719 74.210938 305.675781 74.171875 L 195.082031 54.671875 C 193.113281 54.328125 191.5 52.429688 191.5 50.460938 C 191.5 48.703125 192.785156 47.457031 194.464844 47.457031 C 194.664062 47.457031 194.871094 47.472656 195.082031 47.511719 L 305.675781 67.007812 C 307.644531 67.355469 309.257812 69.253906 309.257812 71.222656 C 309.257812 72.980469 307.976562 74.226562 306.296875 74.226562 " fill-opacity="1" fill-rule="nonzero"/><path fill="#0090d4" d="M 306.371094 85.0625 C 306.167969 85.0625 305.960938 85.042969 305.75 85.003906 L 195.15625 65.507812 C 193.1875 65.15625 191.574219 63.265625 191.574219 61.292969 C 191.574219 59.535156 192.863281 58.285156 194.539062 58.285156 C 194.738281 58.285156 194.945312 58.304688 195.15625 58.34375 L 305.75 77.839844 C 307.722656 78.191406 309.332031 80.085938 309.332031 82.054688 C 309.332031 83.8125 308.050781 85.0625 306.371094 85.0625 " fill-opacity="1" fill-rule="nonzero"/><path fill="#0090d4" d="M 260.105469 87.722656 C 259.902344 87.722656 259.695312 87.703125 259.484375 87.667969 L 195.230469 76.339844 C 193.261719 75.992188 191.652344 74.09375 191.652344 72.125 C 191.652344 70.367188 192.933594 69.121094 194.613281 69.121094 C 194.8125 69.121094 195.023438 69.140625 195.230469 69.175781 L 259.484375 80.503906 C 261.453125 80.851562 263.066406 82.746094 263.066406 84.71875 C 263.066406 86.476562 261.78125 87.722656 260.105469 87.722656 " fill-opacity="1" fill-rule="nonzero"/><path fill="#0090d4" d="M 309.042969 183.886719 C 307.5 183.886719 305.929688 183.75 304.351562 183.46875 C 298.023438 182.355469 291.882812 179.039062 287.0625 174.132812 C 280.984375 167.945312 277.5 159.835938 277.5 151.875 C 277.5 144.679688 280.292969 138.378906 285.359375 134.125 C 289.398438 130.738281 294.476562 128.96875 300 128.96875 C 301.558594 128.96875 303.148438 129.109375 304.765625 129.394531 C 311.945312 130.664062 318.691406 134.640625 323.757812 140.597656 C 328.824219 146.558594 331.617188 153.800781 331.617188 160.992188 C 331.617188 169.050781 328.058594 176.039062 321.863281 180.15625 C 318.171875 182.613281 313.734375 183.886719 309.042969 183.886719 M 302.519531 135.652344 C 303.183594 135.652344 303.863281 135.707031 304.558594 135.832031 C 311.628906 137.078125 317.363281 144.40625 317.363281 152.199219 C 317.363281 158.574219 313.527344 163.28125 308.265625 164.105469 C 313.882812 166.464844 318.523438 171.699219 320.804688 177.988281 C 326.164062 174.292969 329.230469 168.121094 329.230469 160.992188 C 329.230469 147.285156 318.070312 134.164062 304.351562 131.746094 C 302.878906 131.488281 301.425781 131.359375 300.007812 131.359375 C 295.042969 131.359375 290.496094 132.933594 286.894531 135.953125 C 282.375 139.742188 279.886719 145.398438 279.886719 151.875 C 279.886719 159.046875 282.980469 166.378906 288.390625 172.066406 C 290.699219 166.691406 295.296875 163.171875 300.851562 162.796875 C 295.585938 160.117188 291.75 154.058594 291.75 147.683594 C 291.75 140.65625 296.417969 135.652344 302.519531 135.652344 " fill-opacity="1" fill-rule="nonzero"/><path fill="#0090d4" d="M 309.042969 336.550781 C 307.5 336.550781 305.929688 336.417969 304.351562 336.136719 C 298.023438 335.019531 291.882812 331.707031 287.0625 326.796875 C 280.984375 320.613281 277.5 312.5 277.5 304.539062 C 277.5 297.347656 280.292969 291.042969 285.359375 286.789062 C 289.398438 283.402344 294.476562 281.636719 299.996094 281.636719 C 301.558594 281.636719 303.148438 281.777344 304.765625 282.0625 C 311.945312 283.328125 318.691406 287.304688 323.757812 293.261719 C 328.824219 299.222656 331.617188 306.46875 331.617188 313.660156 C 331.617188 321.71875 328.058594 328.703125 321.863281 332.824219 C 318.171875 335.28125 313.734375 336.550781 309.042969 336.550781 M 302.519531 288.316406 C 303.183594 288.316406 303.863281 288.375 304.558594 288.5 C 311.628906 289.746094 317.363281 297.074219 317.363281 304.867188 C 317.363281 311.238281 313.527344 315.949219 308.265625 316.773438 C 313.882812 319.132812 318.523438 324.363281 320.804688 330.65625 C 326.164062 326.960938 329.230469 320.785156 329.230469 313.660156 C 329.230469 299.953125 318.070312 286.832031 304.351562 284.410156 C 302.878906 284.15625 301.425781 284.023438 300.007812 284.023438 C 295.042969 284.023438 290.496094 285.601562 286.894531 288.621094 C 282.375 292.410156 279.886719 298.066406 279.886719 304.539062 C 279.886719 311.714844 282.980469 319.046875 288.390625 324.734375 C 290.699219 319.355469 295.296875 315.835938 300.851562 315.464844 C 295.585938 312.785156 291.75 306.722656 291.75 300.351562 C 291.75 293.324219 296.417969 288.316406 302.519531 288.316406 " fill-opacity="1" fill-rule="nonzero"/><path fill="#5e8d84" d="M 152.425781 301.144531 L 140.039062 282.894531 L 106.125 274.945312 C 103.851562 274.414062 102.25 272.386719 102.25 270.054688 L 102.25 259.203125 C 111.765625 259.042969 121.957031 257.296875 130.789062 252.90625 C 132.152344 252.230469 133.488281 251.488281 134.777344 250.679688 C 135.710938 263.625 139.777344 276.109375 149.554688 286.808594 L 152.425781 301.144531 M 102.25 232.289062 L 102.25 230.15625 C 102.25 227.320312 104.570312 225.132812 107.261719 225.132812 C 107.652344 225.132812 108.050781 225.179688 108.449219 225.273438 L 110.90625 225.863281 C 107.976562 228.390625 105.074219 230.5 102.25 232.289062 " fill-opacity="1" fill-rule="nonzero"/><path fill="#039bd0" d="M 102.25 259.203125 C 111.765625 259.042969 121.957031 257.296875 130.789062 252.90625 C 121.957031 257.296875 111.765625 259.042969 102.25 259.203125 " fill-opacity="1" fill-rule="nonzero"/><path fill="#038abd" d="M 102.25 259.203125 L 102.25 254.300781 C 113.546875 252.578125 125.460938 248.460938 134.289062 240.578125 C 134.402344 240.476562 134.515625 240.375 134.628906 240.273438 C 134.585938 241.613281 134.5625 243.015625 134.5625 244.480469 C 134.5625 246.554688 134.632812 248.625 134.777344 250.679688 C 133.488281 251.488281 132.152344 252.230469 130.789062 252.90625 C 121.957031 257.296875 111.765625 259.042969 102.25 259.203125 " fill-opacity="1" fill-rule="nonzero"/><path fill="#039bd0" d="M 102.25 254.300781 L 102.25 232.289062 C 105.074219 230.5 107.976562 228.390625 110.90625 225.863281 L 135.316406 231.746094 C 134.964844 234.273438 134.738281 237.105469 134.628906 240.273438 C 134.515625 240.375 134.402344 240.476562 134.289062 240.578125 C 125.460938 248.460938 113.546875 252.578125 102.25 254.300781 " fill-opacity="1" fill-rule="nonzero"/><path fill="#5db4d4" d="M 149.554688 286.808594 C 139.777344 276.109375 135.710938 263.625 134.777344 250.679688 C 134.632812 248.625 134.5625 246.554688 134.5625 244.480469 C 134.5625 243.015625 134.585938 241.613281 134.628906 240.273438 C 134.738281 237.105469 134.964844 234.273438 135.316406 231.746094 L 156.449219 236.835938 C 156.957031 236.960938 157.433594 237.15625 157.863281 237.417969 C 152.035156 240.855469 147.3125 246.507812 146.792969 252.925781 L 146.765625 253.320312 C 146.441406 257.070312 147.765625 260.785156 150.597656 264.074219 C 153.058594 266.925781 156.472656 269.222656 160.273438 270.695312 L 160.265625 281.300781 C 160.261719 284.136719 157.941406 286.320312 155.246094 286.320312 C 154.867188 286.320312 154.480469 286.28125 154.089844 286.191406 L 149.207031 285.042969 L 149.554688 286.808594 M 160.273438 268.933594 C 156.964844 267.554688 154.003906 265.507812 151.84375 263 C 149.304688 260.058594 148.117188 256.761719 148.402344 253.449219 L 148.429688 253.050781 C 148.910156 247.101562 153.585938 241.753906 159.195312 238.582031 C 159.890625 239.453125 160.296875 240.550781 160.296875 241.722656 L 160.273438 268.933594 " fill-opacity="1" fill-rule="nonzero"/><path fill="#53b0d3" d="M 160.273438 270.695312 C 156.472656 269.222656 153.058594 266.925781 150.597656 264.074219 C 147.765625 260.785156 146.441406 257.070312 146.765625 253.320312 L 146.792969 252.925781 C 147.3125 246.507812 152.035156 240.855469 157.863281 237.417969 C 158.378906 237.726562 158.824219 238.121094 159.195312 238.582031 C 153.585938 241.753906 148.910156 247.101562 148.429688 253.050781 L 148.402344 253.449219 C 148.117188 256.761719 149.304688 260.058594 151.84375 263 C 154.003906 265.507812 156.964844 267.554688 160.273438 268.933594 L 160.273438 270.695312 " fill-opacity="1" fill-rule="nonzero"/><g clip-path="url(#dc51305bbc)"><path fill="#5eb4d5" d="M 55.109375 257.667969 L 34.082031 246.449219 C 32.546875 245.632812 31.589844 244.035156 31.589844 242.300781 L 31.589844 202.644531 C 31.589844 199.910156 33.835938 197.929688 36.300781 197.929688 C 37.039062 197.929688 37.796875 198.109375 38.523438 198.496094 L 50.097656 204.707031 C 49.636719 209.25 49.402344 213.867188 49.402344 218.53125 C 49.402344 232.132812 51.398438 245.273438 55.109375 257.667969 " fill-opacity="1" fill-rule="nonzero"/></g><path fill="#5e8d84" d="M 63.089844 277.90625 L 55.132812 257.679688 L 55.109375 257.667969 C 51.398438 245.273438 49.402344 232.132812 49.402344 218.53125 C 49.402344 213.867188 49.636719 209.25 50.097656 204.707031 L 71.453125 216.167969 C 72.980469 216.984375 73.933594 218.578125 73.933594 220.3125 L 73.933594 244.886719 C 72.367188 245.757812 71.121094 246.726562 70.253906 247.933594 C 69.800781 248.5625 69.453125 249.257812 69.21875 250.035156 C 68.792969 251.441406 70.589844 253.070312 73.933594 254.558594 L 73.933594 259.867188 C 73.933594 262.601562 71.6875 264.582031 69.222656 264.582031 C 68.488281 264.578125 67.730469 264.402344 67.011719 264.019531 L 61.824219 261.25 L 63.089844 277.90625 " fill-opacity="1" fill-rule="nonzero"/><path fill="#039bd0" d="M 73.933594 254.558594 C 70.589844 253.070312 68.792969 251.441406 69.21875 250.035156 C 69.453125 249.257812 69.800781 248.5625 70.253906 247.933594 C 69.800781 248.5625 69.457031 249.257812 69.21875 250.035156 C 69.179688 250.171875 69.15625 250.308594 69.160156 250.449219 C 69.160156 251.046875 69.53125 251.679688 70.21875 252.316406 C 71.035156 253.066406 72.300781 253.828125 73.933594 254.558594 " fill-opacity="1" fill-rule="nonzero"/><path fill="#038abd" d="M 73.933594 254.558594 C 72.300781 253.828125 71.035156 253.066406 70.21875 252.316406 C 71.203125 252.800781 72.457031 253.25 73.933594 253.640625 L 73.933594 254.558594 " fill-opacity="1" fill-rule="nonzero"/><path fill="#039bd0" d="M 73.933594 253.640625 C 72.457031 253.25 71.203125 252.800781 70.21875 252.316406 C 69.53125 251.679688 69.160156 251.046875 69.160156 250.449219 C 69.15625 250.308594 69.179688 250.171875 69.21875 250.035156 C 69.902344 247.773438 71.546875 246.210938 73.933594 244.886719 L 73.933594 253.640625 " fill-opacity="1" fill-rule="nonzero"/><path fill="#0279b1" d="M 257.140625 293.597656 C 245.117188 281.597656 224.535156 266.316406 224.144531 249.03125 C 224.914062 249.183594 225.710938 249.261719 226.546875 249.261719 C 229.566406 249.265625 233.027344 248.214844 236.984375 245.691406 C 237.761719 245.695312 238.546875 245.699219 239.324219 245.699219 C 240.195312 245.699219 241.066406 245.695312 241.933594 245.6875 L 257.730469 248.472656 C 257.757812 248.660156 257.765625 248.851562 257.765625 249.050781 C 257.765625 263.144531 257.765625 277.238281 257.765625 291.332031 C 257.765625 292.144531 257.539062 292.917969 257.140625 293.597656 M 257.382812 247.351562 L 247.390625 245.585938 C 249.546875 245.527344 251.699219 245.445312 253.855469 245.339844 C 253.921875 245.339844 253.988281 245.335938 254.058594 245.335938 C 255.542969 245.335938 256.785156 246.128906 257.382812 247.351562 " fill-opacity="1" fill-rule="nonzero"/><path fill="#028cc5" d="M 257.730469 248.472656 L 241.933594 245.6875 C 243.753906 245.671875 245.570312 245.636719 247.390625 245.585938 L 257.382812 247.351562 C 257.550781 247.691406 257.671875 248.070312 257.730469 248.472656 " fill-opacity="1" fill-rule="nonzero"/><path fill="#5db4d4" d="M 193.402344 290.097656 C 192.960938 289.394531 192.703125 288.574219 192.703125 287.726562 C 192.703125 273.933594 192.703125 260.136719 192.703125 246.34375 C 192.703125 244.195312 194.339844 242.628906 196.410156 242.628906 C 196.605469 242.628906 196.804688 242.640625 197.011719 242.671875 C 200.789062 243.214844 204.570312 243.683594 208.359375 244.082031 C 208.234375 246.222656 208.109375 248.273438 207.992188 250.152344 C 207.097656 264.476562 205.605469 276.714844 198.441406 285.667969 C 197.417969 286.945312 195.910156 288.601562 193.402344 290.097656 " fill-opacity="1" fill-rule="nonzero"/><path fill="#49aed3" d="M 250.28125 309.921875 L 238.925781 295.996094 C 224.800781 295.753906 210.640625 294.5 196.554688 292.238281 C 195.230469 292.023438 194.09375 291.203125 193.402344 290.097656 C 195.910156 288.601562 197.417969 286.945312 198.441406 285.667969 C 205.605469 276.714844 207.097656 264.476562 207.992188 250.152344 C 208.109375 248.273438 208.234375 246.222656 208.359375 244.082031 C 211.179688 244.375 214 244.628906 216.824219 244.84375 C 218.558594 246.617188 220.585938 248.015625 222.941406 248.730469 C 222.945312 248.734375 222.949219 248.734375 222.953125 248.734375 C 222.953125 248.738281 222.953125 248.738281 222.957031 248.738281 C 223.34375 248.851562 223.742188 248.953125 224.144531 249.03125 C 224.535156 266.316406 245.117188 281.597656 257.140625 293.597656 C 256.367188 294.910156 254.960938 295.84375 253.398438 295.894531 C 251.1875 295.964844 248.972656 296.007812 246.753906 296.027344 L 250.28125 309.921875 " fill-opacity="1" fill-rule="nonzero"/><path fill="#039bd0" d="M 226.546875 249.261719 C 225.710938 249.261719 224.914062 249.183594 224.144531 249.03125 C 223.742188 248.953125 223.34375 248.851562 222.957031 248.738281 C 224.078125 249.078125 225.273438 249.261719 226.546875 249.261719 C 229.566406 249.261719 233.027344 248.214844 236.980469 245.691406 L 236.984375 245.691406 C 233.027344 248.214844 229.566406 249.265625 226.546875 249.261719 M 222.953125 248.734375 C 222.949219 248.734375 222.945312 248.734375 222.941406 248.730469 C 222.945312 248.734375 222.949219 248.734375 222.953125 248.734375 " fill-opacity="1" fill-rule="nonzero"/><path fill="#038abd" d="M 226.546875 249.261719 C 225.273438 249.261719 224.078125 249.078125 222.957031 248.738281 C 222.953125 248.738281 222.953125 248.738281 222.953125 248.734375 C 222.949219 248.734375 222.945312 248.734375 222.941406 248.730469 C 220.585938 248.015625 218.558594 246.617188 216.824219 244.84375 C 223.542969 245.355469 230.265625 245.636719 236.980469 245.691406 C 233.027344 248.214844 229.566406 249.261719 226.546875 249.261719 " fill-opacity="1" fill-rule="nonzero"/></svg>