<svg xmlns="http://www.w3.org/2000/svg" xmlns:xlink="http://www.w3.org/1999/xlink" width="500" zoomAndPan="magnify" viewBox="0 0 375 374.999991" height="500" preserveAspectRatio="xMidYMid meet" version="1.0"><defs><clipPath id="b589df3e37"><path d="M 143 58.363281 L 230 58.363281 L 230 104 L 143 104 Z M 143 58.363281 " clip-rule="nonzero"/></clipPath><clipPath id="7a9fe40e4e"><path d="M 62.824219 281 L 311.824219 281 L 311.824219 316.363281 L 62.824219 316.363281 Z M 62.824219 281 " clip-rule="nonzero"/></clipPath><clipPath id="e326705ef2"><path d="M 239 130 L 311.824219 130 L 311.824219 203 L 239 203 Z M 239 130 " clip-rule="nonzero"/></clipPath></defs><path fill="#7ed957" d="M 126.082031 119.800781 C 132.289062 126.15625 159.226562 153.648438 164.875 159.398438 L 208.964844 159.398438 C 214.460938 153.800781 241.703125 125.953125 247.757812 119.800781 C 217.4375 119.800781 156.398438 119.800781 126.082031 119.800781 Z M 126.082031 119.800781 " fill-opacity="1" fill-rule="evenodd"/><path fill="#7ed957" d="M 298.203125 284 L 208.5625 284 L 208.5625 296.308594 L 165.277344 296.308594 L 165.277344 284 C 158.871094 284 68.828125 284 65.09375 284 L 65.09375 305.1875 C 65.09375 310.179688 69.179688 314.214844 74.125 314.214844 L 299.664062 314.214844 C 304.660156 314.214844 308.695312 310.128906 308.695312 305.1875 L 308.695312 284 Z M 298.203125 284 " fill-opacity="1" fill-rule="evenodd"/><g clip-path="url(#b589df3e37)"><path fill="#00bf63" d="M 227.679688 103.859375 C 226.417969 103.859375 225.359375 102.800781 225.359375 101.539062 L 225.359375 95.183594 C 225.410156 93.214844 221.828125 94.125 219.910156 93.921875 C 218.902344 93.921875 217.992188 93.265625 217.691406 92.257812 C 217.4375 89.382812 213.605469 86.050781 215.625 83.53125 C 215.625 83.53125 218.597656 80.554688 218.597656 80.554688 C 219.105469 80.050781 219.105469 79.292969 218.597656 78.789062 L 209.621094 69.808594 C 209.167969 69.355469 208.308594 69.355469 207.855469 69.808594 L 204.878906 72.785156 C 202.355469 74.800781 198.976562 70.917969 196.152344 70.714844 C 193.679688 70.160156 194.6875 66.023438 194.488281 64.308594 C 194.488281 63.605469 193.929688 63.050781 193.226562 63.050781 L 180.5625 63.050781 C 178.597656 63 179.503906 66.582031 179.300781 68.496094 C 179.300781 69.507812 178.648438 70.414062 177.636719 70.714844 C 174.761719 70.96875 171.433594 74.800781 168.910156 72.785156 C 167.546875 71.726562 165.53125 68.34375 164.167969 69.808594 L 155.191406 78.789062 C 154.683594 79.292969 154.683594 80.050781 155.191406 80.554688 C 156.300781 81.964844 159.882812 84.085938 158.570312 86.253906 C 156.753906 88.421875 157.003906 93.617188 153.878906 93.921875 C 153.878906 93.921875 149.691406 93.921875 149.691406 93.921875 C 148.984375 93.921875 148.429688 94.476562 148.429688 95.183594 L 148.429688 101.539062 C 148.429688 104.566406 143.789062 104.566406 143.789062 101.539062 C 143.789062 101.539062 143.789062 95.183594 143.789062 95.183594 C 143.941406 90.441406 147.976562 88.875 152.164062 89.332031 C 152.617188 88.070312 153.121094 86.859375 153.675781 85.648438 C 150.449219 83.074219 148.632812 78.9375 151.910156 75.558594 L 160.890625 66.582031 C 164.269531 63.300781 168.40625 65.117188 170.980469 68.34375 C 172.191406 67.789062 173.398438 67.285156 174.660156 66.832031 C 174.207031 62.644531 175.820312 58.558594 180.511719 58.457031 L 193.175781 58.457031 C 197.917969 58.558594 199.53125 62.695312 199.027344 66.832031 C 200.289062 67.285156 201.5 67.789062 202.710938 68.34375 C 205.28125 65.066406 209.417969 63.300781 212.796875 66.582031 C 212.796875 66.582031 221.777344 75.558594 221.777344 75.558594 C 225.054688 78.9375 223.242188 83.074219 220.011719 85.648438 C 220.566406 86.859375 221.070312 88.070312 221.523438 89.332031 C 225.710938 88.875 229.796875 90.492188 229.898438 95.183594 L 229.898438 101.539062 C 230 102.800781 228.941406 103.859375 227.679688 103.859375 Z M 207.753906 103.859375 C 206.492188 103.859375 205.433594 102.800781 205.433594 101.539062 C 204.675781 77.023438 169.113281 77.023438 168.355469 101.539062 C 168.355469 104.566406 163.714844 104.566406 163.714844 101.539062 C 164.671875 70.917969 209.066406 70.917969 210.074219 101.539062 C 210.074219 102.800781 209.066406 103.859375 207.753906 103.859375 Z M 207.753906 103.859375 " fill-opacity="1" fill-rule="nonzero"/></g><path fill="#00bf63" d="M 298.203125 286.320312 L 75.636719 286.320312 C 74.375 286.320312 73.316406 285.3125 73.316406 284 L 73.316406 121.160156 C 73.316406 116.015625 77.503906 111.878906 82.597656 111.878906 L 110.394531 111.878906 C 111.65625 111.878906 112.714844 112.890625 112.714844 114.199219 C 112.714844 115.511719 111.65625 116.519531 110.394531 116.519531 L 82.648438 116.519531 C 80.078125 116.519531 77.957031 118.640625 77.957031 121.210938 L 77.957031 281.730469 L 295.882812 281.730469 L 295.882812 189.464844 C 295.882812 188.203125 296.941406 187.144531 298.203125 187.144531 C 299.464844 187.144531 300.523438 188.203125 300.523438 189.464844 L 300.523438 284 C 300.523438 285.261719 299.464844 286.320312 298.203125 286.320312 Z M 298.203125 143.457031 C 296.941406 143.457031 295.882812 142.398438 295.882812 141.136719 L 295.882812 121.160156 C 295.882812 118.589844 293.761719 116.46875 291.191406 116.46875 L 263.394531 116.46875 C 262.132812 116.46875 261.074219 115.460938 261.074219 114.148438 C 261.074219 112.839844 262.132812 111.828125 263.394531 111.828125 L 291.191406 111.828125 C 296.335938 111.828125 300.472656 116.015625 300.472656 121.113281 L 300.472656 141.089844 C 300.523438 142.398438 299.464844 143.457031 298.203125 143.457031 Z M 298.203125 143.457031 " fill-opacity="1" fill-rule="nonzero"/><g clip-path="url(#7a9fe40e4e)"><path fill="#00bf63" d="M 299.664062 316.535156 L 74.175781 316.535156 C 67.917969 316.535156 62.824219 311.441406 62.824219 305.1875 L 62.824219 284 C 62.824219 282.738281 63.832031 281.679688 65.144531 281.679688 L 308.746094 281.679688 C 310.007812 281.679688 311.066406 282.738281 311.066406 284 L 311.066406 305.1875 C 311.066406 311.441406 305.921875 316.535156 299.664062 316.535156 Z M 67.414062 286.320312 L 67.414062 305.1875 C 67.414062 308.917969 70.441406 311.945312 74.175781 311.945312 L 299.714844 311.945312 C 303.449219 311.945312 306.476562 308.917969 306.476562 305.1875 L 306.476562 286.320312 Z M 67.414062 286.320312 " fill-opacity="1" fill-rule="nonzero"/></g><path fill="#00bf63" d="M 208.5625 298.578125 L 165.277344 298.578125 C 164.015625 298.578125 162.957031 297.570312 162.957031 296.257812 L 162.957031 283.949219 C 162.957031 282.6875 164.015625 281.628906 165.277344 281.628906 L 208.511719 281.628906 C 209.769531 281.628906 210.832031 282.6875 210.832031 283.949219 L 210.832031 296.257812 C 210.832031 297.570312 209.820312 298.578125 208.5625 298.578125 Z M 167.597656 293.988281 L 206.242188 293.988281 L 206.242188 286.320312 L 167.597656 286.320312 Z M 167.597656 293.988281 " fill-opacity="1" fill-rule="nonzero"/><path fill="#00bf63" d="M 254.96875 122.121094 L 118.867188 122.121094 C 112.5625 122.121094 107.417969 116.976562 107.417969 110.667969 C 107.417969 104.363281 112.5625 99.21875 118.867188 99.21875 L 254.96875 99.21875 C 270.054688 99.621094 270.105469 121.71875 254.96875 122.121094 Z M 118.867188 103.859375 C 109.941406 104.011719 109.839844 117.378906 118.867188 117.53125 C 118.867188 117.53125 254.96875 117.53125 254.96875 117.53125 C 258.753906 117.53125 261.78125 114.453125 261.78125 110.71875 C 261.78125 106.9375 258.703125 103.910156 254.96875 103.910156 L 118.867188 103.910156 Z M 118.867188 103.859375 " fill-opacity="1" fill-rule="nonzero"/><path fill="#00bf63" d="M 208.964844 161.71875 L 164.875 161.71875 C 164.269531 161.71875 163.664062 161.46875 163.210938 161.015625 L 124.417969 121.464844 C 123.003906 120.101562 124.066406 117.480469 126.082031 117.53125 C 126.082031 117.53125 247.757812 117.53125 247.757812 117.53125 C 249.722656 117.480469 250.835938 120.101562 249.421875 121.464844 L 210.628906 161.0625 C 210.175781 161.46875 209.570312 161.71875 208.964844 161.71875 Z M 165.832031 157.128906 L 207.957031 157.128906 L 242.207031 122.171875 L 131.582031 122.171875 Z M 165.832031 157.128906 " fill-opacity="1" fill-rule="nonzero"/><path fill="#00bf63" d="M 186.917969 270.582031 C 168.910156 270.582031 154.230469 255.902344 154.230469 237.894531 C 155.746094 194.609375 218.09375 194.609375 219.609375 237.894531 C 219.609375 255.902344 204.929688 270.582031 186.917969 270.582031 Z M 186.917969 209.792969 C 149.84375 210.953125 149.84375 264.78125 186.917969 265.941406 C 224.046875 264.78125 223.996094 210.953125 186.917969 209.792969 Z M 186.917969 209.792969 " fill-opacity="1" fill-rule="nonzero"/><path fill="#00bf63" d="M 186.917969 255.195312 C 184.75 255.144531 184.449219 253.078125 184.597656 251.363281 L 181.320312 251.363281 C 178.292969 251.363281 178.292969 246.769531 181.320312 246.71875 L 186.917969 246.71875 C 188.734375 246.71875 190.199219 245.257812 190.199219 243.441406 C 190.199219 241.625 188.734375 240.164062 186.917969 240.164062 C 177.890625 240.164062 176.125 227.300781 184.597656 224.726562 L 184.597656 222.859375 C 184.597656 219.832031 189.191406 219.832031 189.238281 222.859375 L 189.238281 224.375 L 192.519531 224.375 C 195.546875 224.375 195.546875 228.964844 192.519531 229.015625 L 186.917969 229.015625 C 185.105469 229.015625 183.640625 230.476562 183.640625 232.292969 C 183.640625 234.109375 185.105469 235.570312 186.917969 235.570312 C 195.949219 235.570312 197.714844 248.4375 189.238281 251.007812 C 189.339844 252.773438 189.289062 255.144531 186.917969 255.195312 Z M 186.917969 255.195312 " fill-opacity="1" fill-rule="nonzero"/><path fill="#00bf63" d="M 202.507812 193.753906 L 171.332031 193.753906 C 170.222656 193.753906 169.265625 192.996094 169.0625 191.886719 L 162.605469 159.855469 C 162.300781 158.492188 163.460938 157.027344 164.875 157.078125 L 208.964844 157.078125 C 210.375 157.027344 211.535156 158.441406 211.234375 159.855469 L 204.777344 191.886719 C 204.574219 192.996094 203.617188 193.753906 202.507812 193.753906 Z M 173.199219 189.113281 L 200.589844 189.113281 L 206.089844 161.71875 L 167.648438 161.71875 Z M 173.199219 189.113281 " fill-opacity="1" fill-rule="nonzero"/><g clip-path="url(#e326705ef2)"><path fill="#00bf63" d="M 276.058594 202.730469 C 256.179688 202.730469 239.988281 186.539062 239.988281 166.664062 C 241.804688 118.890625 310.359375 118.890625 312.175781 166.664062 C 312.175781 186.539062 295.984375 202.730469 276.058594 202.730469 Z M 276.058594 135.1875 C 258.703125 135.1875 244.578125 149.308594 244.578125 166.613281 C 246.042969 208.230469 306.019531 208.230469 307.484375 166.613281 C 307.535156 149.308594 293.410156 135.1875 276.058594 135.1875 Z M 276.058594 135.1875 " fill-opacity="1" fill-rule="nonzero"/></g><path fill="#00bf63" d="M 276.058594 202.730469 C 266.824219 202.730469 258.046875 199.25 251.339844 192.945312 C 250.582031 192.238281 250.378906 191.078125 250.882812 190.171875 C 253.761719 184.722656 258.402344 180.335938 263.898438 177.710938 C 254.316406 167.773438 262.183594 149.816406 276.058594 150.269531 C 289.929688 149.816406 297.796875 167.824219 288.214844 177.710938 C 293.710938 180.335938 298.355469 184.722656 301.230469 190.171875 C 301.734375 191.078125 301.53125 192.238281 300.773438 192.945312 C 294.066406 199.25 285.289062 202.730469 276.058594 202.730469 Z M 255.878906 190.777344 C 267.078125 200.511719 285.085938 200.511719 296.285156 190.777344 C 293.257812 185.984375 288.566406 182.351562 283.167969 180.636719 C 281.351562 180.132812 280.949219 177.507812 282.5625 176.5 C 285.894531 174.332031 287.859375 170.648438 287.859375 166.664062 C 287.457031 151.125 264.65625 151.125 264.253906 166.664062 C 264.253906 170.648438 266.21875 174.332031 269.550781 176.5 C 271.164062 177.507812 270.808594 180.132812 268.945312 180.636719 C 263.597656 182.351562 258.90625 185.984375 255.878906 190.777344 Z M 255.878906 190.777344 " fill-opacity="1" fill-rule="nonzero"/><path fill="#00bf63" d="M 132.742188 228.003906 L 100.859375 228.003906 C 88.347656 227.804688 88.347656 209.1875 100.859375 208.9375 C 100.859375 208.9375 132.742188 208.9375 132.742188 208.9375 C 145.25 209.1875 145.25 227.804688 132.742188 228.003906 Z M 100.859375 213.578125 C 94.402344 213.679688 94.402344 223.261719 100.859375 223.414062 L 132.742188 223.414062 C 135.464844 223.414062 137.632812 221.195312 137.632812 218.523438 C 137.632812 215.796875 135.414062 213.628906 132.742188 213.628906 L 100.859375 213.628906 Z M 100.859375 213.578125 " fill-opacity="1" fill-rule="nonzero"/><path fill="#00bf63" d="M 139.703125 213.578125 L 107.820312 213.578125 C 95.3125 213.375 95.3125 194.761719 107.820312 194.507812 C 107.820312 194.507812 139.703125 194.507812 139.703125 194.507812 C 152.214844 194.761719 152.214844 213.375 139.703125 213.578125 Z M 107.820312 199.152344 C 101.363281 199.25 101.363281 208.835938 107.820312 208.988281 C 107.820312 208.988281 139.703125 208.988281 139.703125 208.988281 C 142.425781 208.988281 144.597656 206.769531 144.597656 204.09375 C 144.597656 201.371094 142.375 199.199219 139.703125 199.199219 L 107.820312 199.199219 Z M 107.820312 199.152344 " fill-opacity="1" fill-rule="nonzero"/><path fill="#00bf63" d="M 135.71875 199.152344 L 103.835938 199.152344 C 91.324219 198.949219 91.324219 180.335938 103.835938 180.082031 C 103.835938 180.082031 135.71875 180.082031 135.71875 180.082031 C 148.226562 180.285156 148.226562 198.898438 135.71875 199.152344 Z M 103.835938 184.722656 C 97.378906 184.824219 97.378906 194.410156 103.835938 194.558594 C 103.835938 194.558594 135.71875 194.558594 135.71875 194.558594 C 142.175781 194.460938 142.175781 184.875 135.71875 184.722656 C 135.71875 184.722656 103.835938 184.722656 103.835938 184.722656 Z M 103.835938 184.722656 " fill-opacity="1" fill-rule="nonzero"/><path fill="#00bf63" d="M 95.359375 171.859375 C 92.992188 171.960938 92.132812 168.328125 94.402344 167.421875 C 94.402344 167.421875 105.703125 162.425781 105.703125 162.425781 C 105.601562 161.972656 120.128906 162.324219 120.484375 162.222656 L 142.980469 152.238281 C 145.707031 151.027344 147.621094 155.210938 144.847656 156.472656 C 144.847656 156.472656 121.894531 166.664062 121.894531 166.664062 C 121.59375 166.816406 121.289062 166.867188 120.9375 166.867188 L 107.066406 166.867188 C 106.761719 166.914062 95.511719 172.261719 95.359375 171.859375 Z M 95.359375 171.859375 " fill-opacity="1" fill-rule="nonzero"/><path fill="#00bf63" d="M 258.601562 266.042969 C 222.03125 264.882812 222.03125 211.863281 258.601562 210.703125 C 295.175781 211.863281 295.175781 264.882812 258.601562 266.042969 Z M 258.601562 215.34375 C 228.132812 216.300781 228.183594 260.441406 258.601562 261.398438 C 289.070312 260.441406 289.070312 216.300781 258.601562 215.34375 Z M 258.601562 215.34375 " fill-opacity="1" fill-rule="nonzero"/><path fill="#00bf63" d="M 258.601562 266.042969 C 251.539062 266.042969 244.78125 263.367188 239.636719 258.523438 C 238.878906 257.820312 238.675781 256.707031 239.179688 255.75 C 241.300781 251.765625 244.578125 248.535156 248.5625 246.46875 C 241.753906 238.496094 248.058594 225.128906 258.601562 225.484375 C 269.195312 225.179688 275.453125 238.496094 268.640625 246.46875 C 272.625 248.535156 275.90625 251.765625 278.023438 255.75 C 278.527344 256.660156 278.328125 257.820312 277.570312 258.523438 C 272.425781 263.367188 265.714844 266.042969 258.601562 266.042969 Z M 244.226562 256.355469 C 252.398438 262.914062 264.859375 262.914062 273.03125 256.355469 C 270.808594 253.078125 267.53125 250.605469 263.746094 249.445312 C 261.933594 248.941406 261.527344 246.316406 263.144531 245.308594 C 265.464844 243.746094 266.875 241.171875 266.875 238.398438 C 266.675781 227.5 250.53125 227.5 250.328125 238.398438 C 250.328125 241.171875 251.742188 243.792969 254.0625 245.308594 C 255.675781 246.316406 255.324219 248.941406 253.457031 249.445312 C 249.722656 250.605469 246.394531 253.078125 244.226562 256.355469 Z M 244.226562 256.355469 " fill-opacity="1" fill-rule="nonzero"/><path fill="#00bf63" d="M 132.742188 242.484375 L 100.859375 242.484375 C 88.347656 242.28125 88.347656 223.667969 100.859375 223.414062 C 100.859375 223.414062 132.742188 223.414062 132.742188 223.414062 C 145.25 223.617188 145.25 242.230469 132.742188 242.484375 Z M 100.859375 228.003906 C 94.402344 228.105469 94.402344 237.691406 100.859375 237.84375 L 132.742188 237.84375 C 135.464844 237.84375 137.632812 235.621094 137.632812 232.949219 C 137.632812 230.226562 135.414062 228.054688 132.742188 228.054688 L 100.859375 228.054688 Z M 100.859375 228.003906 " fill-opacity="1" fill-rule="nonzero"/></svg>