<svg xmlns="http://www.w3.org/2000/svg" xmlns:xlink="http://www.w3.org/1999/xlink" width="500" zoomAndPan="magnify" viewBox="0 0 375 374.999991" height="500" preserveAspectRatio="xMidYMid meet" version="1.0"><defs><filter x="0%" y="0%" width="100%" height="100%" id="605207c6fb"><feColorMatrix values="0 0 0 0 1 0 0 0 0 1 0 0 0 0 1 0 0 0 1 0" color-interpolation-filters="sRGB"/></filter><clipPath id="bfcf96ccab"><path d="M 57.664062 64.742188 L 317.164062 64.742188 L 317.164062 324.242188 L 57.664062 324.242188 Z M 57.664062 64.742188 " clip-rule="nonzero"/></clipPath><clipPath id="4079a31b92"><path d="M 134 64.742188 L 317.164062 64.742188 L 317.164062 220 L 134 220 Z M 134 64.742188 " clip-rule="nonzero"/></clipPath><clipPath id="accac79467"><path d="M 57.664062 169 L 241 169 L 241 324.242188 L 57.664062 324.242188 Z M 57.664062 169 " clip-rule="nonzero"/></clipPath><clipPath id="89d7e04bfe"><path d="M 161 64.742188 L 317.164062 64.742188 L 317.164062 246 L 161 246 Z M 161 64.742188 " clip-rule="nonzero"/></clipPath><clipPath id="595340c916"><path d="M 57.664062 143 L 214 143 L 214 324.242188 L 57.664062 324.242188 Z M 57.664062 143 " clip-rule="nonzero"/></clipPath><clipPath id="1fe36a3b7e"><path d="M 164 137 L 317.164062 137 L 317.164062 324.242188 L 164 324.242188 Z M 164 137 " clip-rule="nonzero"/></clipPath><clipPath id="45b1d9b20b"><path d="M 57.664062 64.742188 L 211 64.742188 L 211 252 L 57.664062 252 Z M 57.664062 64.742188 " clip-rule="nonzero"/></clipPath><clipPath id="0b9d14be38"><path d="M 136 168 L 317.164062 168 L 317.164062 324.242188 L 136 324.242188 Z M 136 168 " clip-rule="nonzero"/></clipPath><clipPath id="68848e12fa"><path d="M 57.664062 64.742188 L 239 64.742188 L 239 221 L 57.664062 221 Z M 57.664062 64.742188 " clip-rule="nonzero"/></clipPath><clipPath id="e6656a54c9"><path d="M 57.664062 112 L 276 112 L 276 324.242188 L 57.664062 324.242188 Z M 57.664062 112 " clip-rule="nonzero"/></clipPath><mask id="d93f60d9cb"><g filter="url(#605207c6fb)"><rect x="-37.5" width="450" fill="#000000" y="-37.499999" height="449.999989" fill-opacity="0.01"/></g></mask><clipPath id="49f74074e9"><path d="M 0.957031 0 L 113.457031 0 L 113.457031 106.285156 L 0.957031 106.285156 Z M 0.957031 0 " clip-rule="nonzero"/></clipPath><clipPath id="9df8203a35"><rect x="0" width="114" y="0" height="107"/></clipPath></defs><g clip-path="url(#bfcf96ccab)"><path fill="#ffd800" d="M 317.34375 194.574219 C 317.34375 266.28125 259.207031 324.417969 187.496094 324.417969 C 115.789062 324.417969 57.652344 266.28125 57.652344 194.574219 C 57.652344 122.863281 115.789062 64.726562 187.496094 64.726562 C 259.207031 64.726562 317.34375 122.863281 317.34375 194.574219 " fill-opacity="1" fill-rule="nonzero"/></g><path fill="#fffcd8" d="M 292.660156 194.574219 C 292.660156 252.65625 245.582031 299.734375 187.496094 299.734375 C 129.414062 299.734375 82.335938 252.65625 82.335938 194.574219 C 82.335938 136.488281 129.414062 89.410156 187.496094 89.410156 C 245.582031 89.410156 292.660156 136.488281 292.660156 194.574219 " fill-opacity="1" fill-rule="nonzero"/><path stroke-linecap="butt" transform="matrix(0.130879, 0, 0, -0.130879, -90.751763, 472.821449)" fill="none" stroke-linejoin="miter" d="M 2125.992181 2838.507078 L 2125.992181 2723.509451 " stroke="#24537c" stroke-width="50" stroke-opacity="1" stroke-miterlimit="10"/><path stroke-linecap="butt" transform="matrix(0.130879, 0, 0, -0.130879, -90.751763, 472.821449)" fill="none" stroke-linejoin="miter" d="M 2125.992181 1528.49518 L 2125.992181 1413.497553 " stroke="#24537c" stroke-width="50" stroke-opacity="1" stroke-miterlimit="10"/><path stroke-linecap="butt" transform="matrix(0.130879, 0, 0, -0.130879, -90.751763, 472.821449)" fill="none" stroke-linejoin="miter" d="M 2838.511866 2125.987392 L 2723.514239 2125.987392 " stroke="#24537c" stroke-width="50" stroke-opacity="1" stroke-miterlimit="10"/><path stroke-linecap="butt" transform="matrix(0.130879, 0, 0, -0.130879, -90.751763, 472.821449)" fill="none" stroke-linejoin="miter" d="M 1528.499968 2125.987392 L 1413.502341 2125.987392 " stroke="#24537c" stroke-width="50" stroke-opacity="1" stroke-miterlimit="10"/><g clip-path="url(#4079a31b92)"><path stroke-linecap="butt" transform="matrix(0.130879, 0, 0, -0.130879, -90.751763, 472.821449)" fill="none" stroke-linejoin="miter" d="M 2489.101739 2738.999658 L 2430.513537 2640.089163 " stroke="#24537c" stroke-width="50" stroke-opacity="1" stroke-miterlimit="10"/></g><g clip-path="url(#accac79467)"><path stroke-linecap="butt" transform="matrix(0.130879, 0, 0, -0.130879, -90.751763, 472.821449)" fill="none" stroke-linejoin="miter" d="M 1821.50067 1611.885621 L 1762.912468 1512.885588 " stroke="#24537c" stroke-width="50" stroke-opacity="1" stroke-miterlimit="10"/></g><g clip-path="url(#89d7e04bfe)"><path stroke-linecap="butt" transform="matrix(0.130879, 0, 0, -0.130879, -90.751763, 472.821449)" fill="none" stroke-linejoin="miter" d="M 2730.796726 2502.706844 L 2633.199466 2441.790634 " stroke="#24537c" stroke-width="50" stroke-opacity="1" stroke-miterlimit="10"/></g><g clip-path="url(#595340c916)"><path stroke-linecap="butt" transform="matrix(0.130879, 0, 0, -0.130879, -90.751763, 472.821449)" fill="none" stroke-linejoin="miter" d="M 1618.814741 1810.094612 L 1521.187635 1749.297787 " stroke="#24537c" stroke-width="50" stroke-opacity="1" stroke-miterlimit="10"/></g><g clip-path="url(#1fe36a3b7e)"><path stroke-linecap="butt" transform="matrix(0.130879, 0, 0, -0.130879, -90.751763, 472.821449)" fill="none" stroke-linejoin="miter" d="M 2758.9119 1798.812727 L 2656.807855 1851.610755 " stroke="#24537c" stroke-width="50" stroke-opacity="1" stroke-miterlimit="10"/></g><g clip-path="url(#45b1d9b20b)"><path stroke-linecap="butt" transform="matrix(0.130879, 0, 0, -0.130879, -90.751763, 472.821449)" fill="none" stroke-linejoin="miter" d="M 1595.206352 2400.393876 L 1493.102308 2453.191904 " stroke="#24537c" stroke-width="50" stroke-opacity="1" stroke-miterlimit="10"/></g><g clip-path="url(#0b9d14be38)"><path stroke-linecap="butt" transform="matrix(0.130879, 0, 0, -0.130879, -90.751763, 472.821449)" fill="none" stroke-linejoin="miter" d="M 2500.41347 1519.809919 L 2440.004647 1617.705641 " stroke="#24537c" stroke-width="50" stroke-opacity="1" stroke-miterlimit="10"/></g><g clip-path="url(#68848e12fa)"><path stroke-linecap="butt" transform="matrix(0.130879, 0, 0, -0.130879, -90.751763, 472.821449)" fill="none" stroke-linejoin="miter" d="M 1812.00956 2634.29899 L 1751.600737 2732.194711 " stroke="#24537c" stroke-width="50" stroke-opacity="1" stroke-miterlimit="10"/></g><path stroke-linecap="butt" transform="matrix(0.130879, 0, 0, -0.130879, -90.751763, 472.821449)" fill="none" stroke-linejoin="miter" d="M 2125.992181 2572.009852 L 2125.992181 2213.496617 " stroke="#24537c" stroke-width="50" stroke-opacity="1" stroke-miterlimit="10"/><g clip-path="url(#e6656a54c9)"><path stroke-linecap="butt" transform="matrix(0.130879, 0, 0, -0.130879, -90.751763, 472.821449)" fill="none" stroke-linejoin="miter" d="M 2087.788972 2047.402198 L 1751.600737 1717.004137 " stroke="#24537c" stroke-width="50" stroke-opacity="1" stroke-miterlimit="10"/></g><path stroke-linecap="butt" transform="matrix(0.130879, 0, 0, -0.130879, -90.751763, 472.821449)" fill="none" stroke-linejoin="miter" d="M 2213.501405 2125.987392 C 2213.501405 2077.696149 2174.31327 2038.508014 2125.992181 2038.508014 C 2077.700937 2038.508014 2038.512802 2077.696149 2038.512802 2125.987392 C 2038.512802 2174.308482 2077.700937 2213.496617 2125.992181 2213.496617 C 2174.31327 2213.496617 2213.501405 2174.308482 2213.501405 2125.987392 Z M 2213.501405 2125.987392 " stroke="#d7282f" stroke-width="50" stroke-opacity="1" stroke-miterlimit="10"/><g mask="url(#d93f60d9cb)"><g transform="matrix(1, 0, 0, 1, 9, 0)"><g clip-path="url(#9df8203a35)"><g clip-path="url(#49f74074e9)"><path fill="#ffd800" d="M 0.957031 -6.214844 L 113.457031 -6.214844 L 113.457031 106.285156 L 0.957031 106.285156 Z M 0.957031 -6.214844 " fill-opacity="1" fill-rule="nonzero"/></g></g></g></g></svg>