<svg xmlns="http://www.w3.org/2000/svg" xmlns:xlink="http://www.w3.org/1999/xlink" width="500" zoomAndPan="magnify" viewBox="0 0 375 374.999991" height="500" preserveAspectRatio="xMidYMid meet" version="1.0"><defs><clipPath id="16f22d9dfd"><path d="M 275.910156 172.128906 L 315.558594 172.128906 L 315.558594 209.546875 L 275.910156 209.546875 Z M 275.910156 172.128906 " clip-rule="nonzero"/></clipPath><clipPath id="5325059a99"><path d="M 152.417969 260.582031 L 196.421875 260.582031 L 196.421875 301.085938 L 152.417969 301.085938 Z M 152.417969 260.582031 " clip-rule="nonzero"/></clipPath><clipPath id="d001d61560"><path d="M 156.441406 260.582031 L 197 260.582031 L 197 301.085938 L 156.441406 301.085938 Z M 156.441406 260.582031 " clip-rule="nonzero"/></clipPath><clipPath id="e8a9aff40c"><path d="M 146 73.84375 L 214 73.84375 L 214 95 L 146 95 Z M 146 73.84375 " clip-rule="nonzero"/></clipPath><clipPath id="629846108c"><path d="M 59.074219 218 L 88 218 L 88 256 L 59.074219 256 Z M 59.074219 218 " clip-rule="nonzero"/></clipPath></defs><path fill="#663fae" d="M 258.207031 276.6875 L 106.898438 276.6875 C 103.914062 276.6875 101.199219 275.304688 99.238281 273.082031 C 97.273438 270.859375 96.054688 267.785156 96.054688 264.40625 L 96.054688 175.457031 C 96.054688 172.074219 97.273438 169.003906 99.238281 166.78125 C 101.199219 164.558594 103.914062 163.175781 106.898438 163.175781 L 258.207031 163.175781 C 261.191406 163.175781 263.902344 164.558594 265.867188 166.78125 C 267.828125 169.003906 269.046875 172.074219 269.046875 175.457031 L 269.046875 264.40625 C 269.046875 267.785156 267.828125 270.859375 265.867188 273.082031 C 263.902344 275.304688 261.191406 276.6875 258.207031 276.6875 Z M 106.898438 268.035156 L 258.207031 268.035156 C 259.082031 268.035156 259.882812 267.625 260.464844 266.964844 C 261.046875 266.304688 261.410156 265.398438 261.410156 264.40625 L 261.410156 175.457031 C 261.410156 174.464844 261.046875 173.558594 260.464844 172.898438 C 259.882812 172.242188 259.082031 171.832031 258.207031 171.832031 L 106.898438 171.832031 C 106.019531 171.832031 105.222656 172.242188 104.640625 172.898438 C 104.054688 173.558594 103.695312 174.464844 103.695312 175.457031 L 103.695312 264.40625 C 103.695312 265.398438 104.054688 266.304688 104.640625 266.964844 C 105.222656 267.625 106.019531 268.035156 106.898438 268.035156 " fill-opacity="1" fill-rule="evenodd"/><path fill="#7752b3" d="M 258.035156 278.886719 L 107.070312 278.886719 C 104.089844 278.886719 101.386719 277.503906 99.425781 275.28125 C 97.46875 273.058594 96.253906 269.984375 96.253906 266.605469 L 96.253906 177.65625 C 96.253906 174.273438 97.46875 171.203125 99.425781 168.980469 C 101.386719 166.753906 104.089844 165.375 107.070312 165.375 L 258.035156 165.375 C 261.015625 165.375 263.71875 166.753906 265.679688 168.980469 C 267.636719 171.203125 268.851562 174.273438 268.851562 177.65625 L 268.851562 266.605469 C 268.851562 269.984375 267.636719 273.058594 265.679688 275.28125 C 263.71875 277.503906 261.015625 278.886719 258.035156 278.886719 Z M 107.070312 270.230469 L 258.035156 270.230469 C 258.910156 270.230469 259.707031 269.824219 260.289062 269.164062 C 260.871094 268.503906 261.230469 267.597656 261.230469 266.605469 L 261.230469 177.65625 C 261.230469 176.664062 260.871094 175.757812 260.289062 175.097656 C 259.707031 174.4375 258.910156 174.027344 258.035156 174.027344 L 107.070312 174.027344 C 106.195312 174.027344 105.394531 174.4375 104.816406 175.097656 C 104.234375 175.757812 103.875 176.664062 103.875 177.65625 L 103.875 266.605469 C 103.875 267.597656 104.234375 268.503906 104.816406 269.164062 C 105.394531 269.824219 106.195312 270.230469 107.070312 270.230469 " fill-opacity="1" fill-rule="evenodd"/><path fill="#8e72c1" d="M 107.070312 278.664062 C 105.632812 278.664062 104.265625 278.335938 103.015625 277.746094 C 101.714844 277.136719 100.546875 276.238281 99.566406 275.125 C 98.585938 274.011719 97.792969 272.679688 97.253906 271.207031 C 96.734375 269.789062 96.449219 268.230469 96.449219 266.605469 L 96.449219 177.65625 C 96.449219 176.027344 96.734375 174.472656 97.253906 173.054688 C 97.792969 171.578125 98.585938 170.25 99.566406 169.136719 C 100.546875 168.023438 101.714844 167.125 103.015625 166.511719 C 104.265625 165.921875 105.632812 165.597656 107.070312 165.597656 L 258.035156 165.597656 C 259.46875 165.597656 260.839844 165.921875 262.089844 166.511719 C 263.386719 167.125 264.558594 168.023438 265.539062 169.136719 C 266.519531 170.25 267.308594 171.578125 267.851562 173.054688 C 268.367188 174.472656 268.65625 176.027344 268.65625 177.65625 L 268.65625 266.605469 C 268.65625 268.234375 268.367188 269.789062 267.851562 271.207031 C 267.308594 272.679688 266.519531 274.011719 265.539062 275.125 C 264.558594 276.238281 263.386719 277.136719 262.089844 277.746094 C 260.839844 278.335938 259.46875 278.664062 258.035156 278.664062 Z M 258.035156 279.109375 L 107.070312 279.109375 C 105.582031 279.109375 104.164062 278.769531 102.867188 278.160156 C 101.519531 277.523438 100.304688 276.59375 99.289062 275.4375 C 98.273438 274.285156 97.453125 272.90625 96.894531 271.378906 C 96.355469 269.90625 96.054688 268.292969 96.054688 266.605469 L 96.054688 177.65625 C 96.054688 175.96875 96.355469 174.355469 96.894531 172.882812 C 97.453125 171.355469 98.273438 169.976562 99.289062 168.820312 C 100.304688 167.667969 101.519531 166.738281 102.867188 166.101562 C 104.164062 165.492188 105.582031 165.152344 107.070312 165.152344 L 258.035156 165.152344 C 259.523438 165.152344 260.941406 165.492188 262.238281 166.101562 C 263.585938 166.738281 264.800781 167.667969 265.816406 168.820312 C 266.832031 169.976562 267.652344 171.355469 268.210938 172.882812 C 268.75 174.355469 269.046875 175.96875 269.046875 177.65625 L 269.046875 266.605469 C 269.046875 268.292969 268.75 269.90625 268.210938 271.378906 C 267.652344 272.90625 266.832031 274.285156 265.816406 275.4375 C 264.800781 276.59375 263.585938 277.523438 262.238281 278.160156 C 260.941406 278.769531 259.523438 279.109375 258.035156 279.109375 Z M 258.035156 270.453125 L 107.070312 270.453125 C 106.613281 270.453125 106.179688 270.347656 105.777344 270.160156 C 105.363281 269.964844 104.992188 269.675781 104.675781 269.320312 C 104.363281 268.964844 104.109375 268.539062 103.9375 268.070312 C 103.769531 267.617188 103.675781 267.121094 103.675781 266.605469 L 103.675781 177.65625 C 103.675781 177.140625 103.769531 176.644531 103.9375 176.191406 C 104.109375 175.722656 104.363281 175.296875 104.675781 174.941406 C 104.992188 174.585938 105.363281 174.296875 105.777344 174.101562 C 106.179688 173.910156 106.613281 173.804688 107.070312 173.804688 L 258.035156 173.804688 C 258.492188 173.804688 258.925781 173.910156 259.324219 174.101562 C 259.738281 174.296875 260.113281 174.585938 260.425781 174.941406 C 260.742188 175.296875 260.996094 175.71875 261.167969 176.191406 C 261.335938 176.644531 261.425781 177.140625 261.425781 177.65625 L 261.425781 266.605469 C 261.425781 267.121094 261.335938 267.617188 261.167969 268.070312 C 260.996094 268.539062 260.742188 268.964844 260.425781 269.320312 C 260.113281 269.675781 259.738281 269.964844 259.324219 270.160156 C 258.925781 270.347656 258.492188 270.453125 258.035156 270.453125 Z M 107.070312 270.011719 L 258.035156 270.011719 C 258.4375 270.011719 258.824219 269.917969 259.175781 269.75 C 259.542969 269.578125 259.871094 269.320312 260.152344 269.003906 C 260.429688 268.6875 260.652344 268.3125 260.804688 267.898438 C 260.953125 267.5 261.035156 267.0625 261.035156 266.605469 L 261.035156 177.65625 C 261.035156 177.199219 260.953125 176.761719 260.804688 176.363281 C 260.652344 175.945312 260.429688 175.570312 260.152344 175.253906 C 259.871094 174.9375 259.542969 174.683594 259.175781 174.511719 C 258.824219 174.34375 258.4375 174.25 258.035156 174.25 L 107.070312 174.25 C 106.667969 174.25 106.28125 174.34375 105.929688 174.511719 C 105.5625 174.683594 105.234375 174.9375 104.953125 175.253906 C 104.675781 175.570312 104.449219 175.949219 104.296875 176.363281 C 104.152344 176.761719 104.070312 177.199219 104.070312 177.65625 L 104.070312 266.605469 C 104.070312 267.0625 104.152344 267.5 104.296875 267.898438 C 104.449219 268.3125 104.675781 268.6875 104.953125 269.003906 C 105.234375 269.320312 105.5625 269.578125 105.929688 269.75 C 106.28125 269.917969 106.667969 270.011719 107.070312 270.011719 " fill-opacity="1" fill-rule="evenodd"/><path fill="#e6e6eb" d="M 107.070312 270.230469 L 258.035156 270.230469 C 258.910156 270.230469 259.707031 269.824219 260.289062 269.164062 C 260.871094 268.503906 261.230469 267.597656 261.230469 266.605469 L 261.230469 177.65625 C 261.230469 176.664062 260.871094 175.757812 260.289062 175.097656 C 259.707031 174.4375 258.910156 174.027344 258.035156 174.027344 L 107.070312 174.027344 C 106.195312 174.027344 105.394531 174.4375 104.816406 175.097656 C 104.234375 175.757812 103.875 176.664062 103.875 177.65625 L 103.875 266.605469 C 103.875 267.597656 104.234375 268.503906 104.816406 269.164062 C 105.394531 269.824219 106.195312 270.230469 107.070312 270.230469 " fill-opacity="1" fill-rule="evenodd"/><path fill="#5b3b97" d="M 258.035156 271.46875 L 107.070312 271.46875 C 106.496094 271.46875 105.945312 271.335938 105.4375 271.09375 C 104.910156 270.847656 104.4375 270.484375 104.046875 270.035156 C 103.652344 269.589844 103.332031 269.054688 103.113281 268.457031 C 102.902344 267.882812 102.785156 267.253906 102.785156 266.605469 L 102.785156 177.65625 C 102.785156 177.003906 102.902344 176.378906 103.113281 175.804688 C 103.332031 175.207031 103.652344 174.671875 104.046875 174.222656 C 104.4375 173.777344 104.910156 173.414062 105.4375 173.164062 C 105.945312 172.925781 106.496094 172.792969 107.070312 172.792969 L 258.035156 172.792969 C 258.609375 172.792969 259.160156 172.925781 259.667969 173.164062 C 260.1875 173.414062 260.65625 173.773438 261.054688 174.222656 L 261.058594 174.226562 C 261.453125 174.679688 261.773438 175.214844 261.992188 175.804688 C 262.203125 176.378906 262.320312 177.003906 262.320312 177.65625 L 262.320312 266.605469 C 262.320312 267.253906 262.203125 267.882812 261.992188 268.457031 C 261.769531 269.054688 261.453125 269.589844 261.058594 270.035156 C 260.667969 270.484375 260.195312 270.847656 259.667969 271.09375 C 259.160156 271.335938 258.609375 271.46875 258.035156 271.46875 Z M 107.070312 268.996094 L 258.035156 268.996094 C 258.320312 268.996094 258.589844 268.933594 258.832031 268.816406 C 259.085938 268.695312 259.320312 268.515625 259.519531 268.289062 C 259.71875 268.0625 259.878906 267.800781 259.984375 267.511719 C 260.085938 267.234375 260.140625 266.925781 260.140625 266.605469 L 260.140625 177.65625 C 260.140625 177.335938 260.085938 177.027344 259.984375 176.75 C 259.875 176.457031 259.71875 176.191406 259.523438 175.972656 L 259.519531 175.96875 C 259.324219 175.746094 259.09375 175.566406 258.832031 175.445312 C 258.589844 175.328125 258.320312 175.265625 258.035156 175.265625 L 107.070312 175.265625 C 106.785156 175.265625 106.515625 175.328125 106.269531 175.445312 C 106.015625 175.566406 105.785156 175.746094 105.585938 175.972656 C 105.386719 176.199219 105.226562 176.460938 105.121094 176.75 C 105.019531 177.027344 104.960938 177.335938 104.960938 177.65625 L 104.960938 266.605469 C 104.960938 266.925781 105.019531 267.234375 105.121094 267.511719 C 105.226562 267.800781 105.386719 268.0625 105.585938 268.289062 C 105.785156 268.515625 106.015625 268.695312 106.269531 268.816406 C 106.515625 268.933594 106.785156 268.996094 107.070312 268.996094 " fill-opacity="1" fill-rule="evenodd"/><path fill="#abe5e9" d="M 107.394531 270.023438 L 257.707031 270.023438 C 258.578125 270.023438 259.375 269.617188 259.953125 268.960938 C 260.53125 268.300781 260.890625 267.398438 260.890625 266.410156 L 260.890625 177.851562 C 260.890625 176.859375 260.53125 175.957031 259.953125 175.300781 C 259.375 174.644531 258.578125 174.238281 257.707031 174.238281 L 107.394531 174.238281 C 106.527344 174.238281 105.730469 174.644531 105.152344 175.300781 C 104.574219 175.957031 104.214844 176.859375 104.214844 177.851562 L 104.214844 266.410156 C 104.214844 267.398438 104.574219 268.300781 105.152344 268.960938 C 105.730469 269.617188 106.527344 270.023438 107.394531 270.023438 " fill-opacity="1" fill-rule="evenodd"/><path fill="#ffffff" d="M 114.949219 179.425781 L 215.222656 179.425781 C 217.292969 179.425781 218.988281 181.121094 218.988281 183.195312 C 218.988281 185.269531 217.292969 186.964844 215.222656 186.964844 L 114.949219 186.964844 C 112.878906 186.964844 111.183594 185.269531 111.183594 183.195312 C 111.183594 181.121094 112.878906 179.425781 114.949219 179.425781 " fill-opacity="1" fill-rule="evenodd"/><path fill="#abe5e9" d="M 117.65625 185.222656 L 144.144531 185.222656 L 144.144531 181.167969 L 117.65625 181.167969 L 117.65625 185.222656 " fill-opacity="1" fill-rule="evenodd"/><path fill="#abe5e9" d="M 147.1875 185.222656 L 156.160156 185.222656 L 156.160156 181.167969 L 147.1875 181.167969 L 147.1875 185.222656 " fill-opacity="1" fill-rule="evenodd"/><path fill="#abe5e9" d="M 157.898438 185.222656 L 171.359375 185.222656 L 171.359375 181.167969 L 157.898438 181.167969 L 157.898438 185.222656 " fill-opacity="1" fill-rule="evenodd"/><path fill="#467cdd" d="M 234.398438 186.28125 C 236.097656 186.28125 237.480469 184.894531 237.480469 183.195312 C 237.480469 181.496094 236.097656 180.109375 234.398438 180.109375 C 232.699219 180.109375 231.3125 181.496094 231.3125 183.195312 C 231.3125 184.894531 232.699219 186.28125 234.398438 186.28125 " fill-opacity="1" fill-rule="evenodd"/><path fill="#fec106" d="M 241.800781 186.28125 C 243.496094 186.28125 244.882812 184.894531 244.882812 183.195312 C 244.882812 181.496094 243.496094 180.109375 241.800781 180.109375 C 240.101562 180.109375 238.714844 181.496094 238.714844 183.195312 C 238.714844 184.894531 240.101562 186.28125 241.800781 186.28125 " fill-opacity="1" fill-rule="evenodd"/><path fill="#467cdd" d="M 249.199219 186.28125 C 250.898438 186.28125 252.285156 184.894531 252.285156 183.195312 C 252.285156 181.496094 250.898438 180.109375 249.199219 180.109375 C 247.5 180.109375 246.117188 181.496094 246.117188 183.195312 C 246.117188 184.894531 247.5 186.28125 249.199219 186.28125 " fill-opacity="1" fill-rule="evenodd"/><path fill="#ffffff" d="M 110.855469 266.300781 L 252.140625 266.300781 L 252.140625 191.523438 L 110.855469 191.523438 L 110.855469 266.300781 " fill-opacity="1" fill-rule="evenodd"/><path fill="#5b3b97" d="M 92.011719 287.074219 C 90.445312 287.074219 89.023438 285.101562 87.992188 281.933594 C 87.570312 280.632812 87.214844 279.128906 86.941406 277.476562 L 86.941406 277.464844 L 86.9375 277.457031 L 86.9375 277.449219 L 86.933594 277.429688 L 86.933594 277.417969 L 86.929688 277.410156 L 86.929688 277.398438 L 86.925781 277.390625 L 86.925781 277.371094 L 86.921875 277.359375 L 86.921875 277.351562 L 86.917969 277.332031 L 86.917969 277.320312 L 86.914062 277.304688 L 86.910156 277.292969 L 86.910156 277.28125 L 86.90625 277.265625 L 86.90625 277.253906 L 86.902344 277.234375 L 86.898438 277.226562 L 86.898438 277.203125 L 86.894531 277.195312 L 86.894531 277.175781 L 86.890625 277.164062 L 86.890625 277.15625 L 86.886719 277.144531 L 86.886719 277.125 L 86.882812 277.117188 L 86.882812 277.105469 L 86.878906 277.097656 L 86.878906 277.085938 L 86.875 277.066406 L 86.875 277.058594 L 86.871094 277.046875 L 86.871094 277.027344 L 86.867188 277.019531 L 86.867188 277.007812 L 86.863281 277 L 86.863281 276.976562 L 86.859375 276.96875 L 86.859375 276.949219 L 86.855469 276.9375 L 86.855469 276.929688 L 86.851562 276.917969 L 86.851562 276.898438 L 86.847656 276.890625 L 86.847656 276.878906 L 86.84375 276.871094 L 86.84375 276.847656 L 278.261719 276.847656 C 277.976562 278.75 277.585938 280.46875 277.109375 281.933594 C 276.082031 285.101562 274.660156 287.074219 273.09375 287.074219 C 212.730469 287.074219 152.371094 287.074219 92.011719 287.074219 " fill-opacity="1" fill-rule="evenodd"/><path fill="#8e72c1" d="M 278.261719 276.847656 C 278.230469 277.0625 278.195312 277.269531 278.164062 277.476562 C 214.421875 277.476562 150.683594 277.476562 86.941406 277.476562 C 86.90625 277.269531 86.875 277.0625 86.84375 276.847656 C 150.648438 276.847656 214.457031 276.847656 278.261719 276.847656 " fill-opacity="1" fill-rule="evenodd"/><path fill="#8e72c1" d="M 170.894531 280.082031 C 170.402344 280.082031 169.949219 279.460938 169.625 278.457031 C 169.492188 278.046875 169.378906 277.570312 169.292969 277.046875 L 169.292969 277.042969 L 169.289062 277.039062 L 169.289062 277.019531 L 169.285156 277.015625 L 169.285156 277 L 169.28125 276.992188 L 169.28125 276.96875 L 169.277344 276.964844 L 169.277344 276.949219 L 169.273438 276.941406 L 169.273438 276.917969 L 169.269531 276.914062 L 169.269531 276.894531 L 169.265625 276.890625 L 169.265625 276.871094 L 169.261719 276.863281 L 169.261719 276.847656 L 195.84375 276.847656 C 195.753906 277.449219 195.628906 277.996094 195.480469 278.457031 C 195.152344 279.460938 194.703125 280.082031 194.207031 280.082031 C 175.113281 280.082031 189.988281 280.082031 170.894531 280.082031 " fill-opacity="1" fill-rule="evenodd"/><path fill="#f59d1f" d="M 260.152344 209.269531 C 268.605469 210.816406 274.773438 218.464844 274.269531 227.277344 C 273.761719 236.085938 266.753906 242.972656 258.179688 243.542969 C 254.765625 242.90625 252.085938 241.476562 249.535156 239.222656 C 245.832031 235.613281 244.089844 231.597656 243.996094 226.421875 C 244.167969 221.042969 246.105469 216.734375 250.414062 213.074219 C 253.378906 210.789062 256.398438 209.527344 260.152344 209.269531 Z M 288.378906 225.796875 L 292.222656 224.757812 C 292.339844 224.714844 292.394531 224.628906 292.386719 224.515625 L 292.351562 224.265625 L 291.832031 220.25 L 291.730469 219.464844 L 291.722656 219.425781 L 291.714844 219.40625 L 291.703125 219.386719 L 291.683594 219.351562 L 291.667969 219.339844 L 291.65625 219.324219 L 291.625 219.300781 L 291.566406 219.277344 L 291.527344 219.269531 L 287.332031 219.03125 L 287.328125 219.011719 C 286.996094 217.859375 286.585938 216.734375 286.101562 215.632812 L 286.03125 215.464844 L 286.171875 215.347656 L 289.183594 212.820312 C 289.261719 212.746094 289.285156 212.648438 289.238281 212.542969 C 289.101562 212.316406 288.949219 212.089844 288.808594 211.863281 L 286.511719 208.222656 C 286.46875 208.160156 286.421875 208.132812 286.347656 208.121094 L 282.085938 207.875 C 282.046875 207.871094 282.007812 207.875 281.96875 207.894531 C 281.738281 208 281.503906 208.105469 281.273438 208.210938 C 280.828125 207.726562 280.363281 207.257812 279.886719 206.800781 L 281.796875 203.191406 C 281.847656 203.085938 281.824219 202.980469 281.730469 202.90625 C 280.355469 201.921875 278.972656 200.929688 277.59375 199.9375 C 277.554688 199.917969 277.535156 199.910156 277.496094 199.898438 L 273.234375 199.65625 C 273.214844 199.652344 273.191406 199.652344 273.171875 199.652344 C 273.117188 199.660156 273.066406 199.6875 273.03125 199.730469 L 273.019531 199.742188 L 271.453125 201.398438 C 271.265625 201.320312 271.078125 201.25 270.886719 201.175781 L 271.242188 197.089844 L 271.242188 197.046875 L 271.234375 197.007812 L 271.226562 196.992188 L 271.210938 196.953125 L 271.199219 196.941406 L 271.1875 196.925781 L 271.171875 196.910156 L 271.125 196.875 L 271.105469 196.867188 L 271.089844 196.859375 L 271.066406 196.851562 L 270.863281 196.808594 L 270.296875 196.679688 L 266.867188 195.910156 L 266.097656 195.734375 L 261.835938 195.488281 C 261.710938 195.460938 261.628906 195.53125 261.578125 195.636719 L 260.300781 199.066406 L 259.148438 195.511719 C 259.117188 195.425781 259.0625 195.378906 258.972656 195.363281 L 254.710938 195.117188 C 254.683594 195.113281 254.65625 195.113281 254.628906 195.121094 L 254.617188 195.121094 L 253.859375 195.257812 L 250.402344 195.878906 L 249.625 196.019531 C 249.570312 196.027344 249.523438 196.058594 249.492188 196.097656 C 249.457031 196.140625 249.4375 196.191406 249.441406 196.246094 L 249.453125 196.488281 C 249.476562 197.03125 249.503906 197.476562 249.523438 197.859375 L 249.527344 197.871094 C 249.5625 198.515625 249.589844 198.980469 249.585938 199.324219 C 249.582031 199.992188 249.5 200.21875 248.898438 200.453125 L 247.457031 198.734375 C 247.414062 198.691406 247.378906 198.671875 247.320312 198.660156 L 243.058594 198.414062 C 243.003906 198.40625 242.949219 198.417969 242.902344 198.449219 L 242.894531 198.453125 L 242.238281 198.867188 L 239.265625 200.742188 L 238.597656 201.164062 C 238.503906 201.222656 238.46875 201.339844 238.515625 201.441406 C 239.042969 202.597656 239.570312 203.757812 240.097656 204.914062 L 240.175781 205.085938 C 239.605469 205.542969 239.054688 206.015625 238.519531 206.515625 L 237.886719 206.179688 C 237.855469 206.164062 237.839844 206.160156 237.808594 206.15625 L 233.546875 205.910156 C 233.421875 205.894531 233.363281 205.964844 233.304688 206.050781 C 233.164062 206.25 233.019531 206.445312 232.878906 206.644531 L 230.832031 209.5 L 230.371094 210.140625 C 230.335938 210.1875 230.324219 210.246094 230.332031 210.296875 C 230.339844 210.351562 230.367188 210.402344 230.410156 210.441406 L 233.191406 213.070312 L 233.328125 213.199219 C 232.710938 214.339844 232.175781 215.484375 231.722656 216.703125 L 231.65625 216.875 L 231.472656 216.859375 L 227.597656 216.523438 C 227.542969 216.519531 227.492188 216.535156 227.449219 216.566406 C 227.40625 216.597656 227.375 216.644531 227.363281 216.695312 C 227.054688 218.09375 226.734375 219.496094 226.417969 220.894531 L 226.246094 221.664062 C 226.230469 221.722656 226.242188 221.777344 226.269531 221.820312 C 226.292969 221.871094 226.335938 221.90625 226.386719 221.921875 L 226.394531 221.925781 L 229.964844 223.253906 L 230.140625 223.320312 C 230.007812 224.613281 229.953125 225.875 229.996094 227.171875 L 230 227.355469 L 229.824219 227.414062 L 226.109375 228.617188 C 226.054688 228.636719 226.011719 228.671875 225.984375 228.71875 C 225.957031 228.765625 225.945312 228.820312 225.960938 228.875 L 225.960938 228.886719 L 226.097656 229.644531 L 226.71875 233.101562 L 226.859375 233.878906 C 226.871094 233.9375 226.898438 233.980469 226.9375 234.015625 C 226.976562 234.042969 227.019531 234.0625 227.066406 234.0625 L 227.070312 234.0625 L 231.210938 234.300781 C 231.554688 235.394531 231.960938 236.460938 232.4375 237.503906 L 232.515625 237.671875 L 232.375 237.792969 L 229.40625 240.28125 C 229.363281 240.316406 229.339844 240.367188 229.332031 240.417969 C 229.324219 240.472656 229.335938 240.527344 229.367188 240.574219 L 229.371094 240.582031 L 229.78125 241.238281 L 231.65625 244.207031 L 232.078125 244.878906 C 232.109375 244.925781 232.152344 244.957031 232.203125 244.972656 L 236.542969 245.226562 C 236.574219 245.222656 236.59375 245.21875 236.621094 245.207031 C 236.878906 245.089844 237.136719 244.972656 237.394531 244.855469 C 237.847656 245.335938 238.3125 245.789062 238.796875 246.238281 L 238.707031 246.402344 L 236.910156 249.796875 C 236.882812 249.847656 236.878906 249.902344 236.890625 249.953125 C 236.902344 250.003906 236.933594 250.050781 236.976562 250.082031 L 236.980469 250.082031 L 237.019531 250.113281 L 237.121094 250.1875 L 237.621094 250.542969 L 240.476562 252.589844 L 241.117188 253.050781 C 241.160156 253.078125 241.207031 253.09375 241.257812 253.09375 L 245.515625 253.339844 L 245.535156 253.335938 L 245.558594 253.332031 L 245.578125 253.328125 L 245.597656 253.320312 L 245.613281 253.3125 L 245.632812 253.300781 L 245.648438 253.285156 L 245.664062 253.273438 L 245.691406 253.246094 L 247.332031 251.511719 C 247.457031 251.558594 247.582031 251.605469 247.707031 251.652344 L 247.882812 251.71875 L 247.867188 251.902344 L 247.535156 255.746094 C 247.53125 255.800781 247.546875 255.855469 247.578125 255.898438 C 247.609375 255.941406 247.65625 255.972656 247.707031 255.984375 C 249.367188 256.347656 251.023438 256.726562 252.679688 257.101562 C 252.699219 257.105469 252.71875 257.105469 252.742188 257.105469 L 257.003906 257.351562 C 257.097656 257.34375 257.164062 257.292969 257.199219 257.203125 L 258.507812 253.6875 L 259.632812 257.15625 C 259.660156 257.25 259.753906 257.3125 259.851562 257.308594 L 264.113281 257.554688 L 269.175781 256.644531 C 269.28125 256.609375 269.339844 256.53125 269.339844 256.421875 C 269.285156 255.144531 269.230469 253.867188 269.175781 252.589844 L 269.167969 252.402344 C 269.414062 252.324219 269.664062 252.246094 269.90625 252.164062 L 271.265625 253.785156 C 271.300781 253.824219 271.351562 253.851562 271.402344 253.859375 C 271.417969 253.863281 271.429688 253.863281 271.445312 253.863281 L 275.707031 254.109375 L 275.765625 254.097656 L 275.804688 254.082031 L 275.820312 254.070312 L 275.828125 254.066406 L 276.484375 253.652344 C 277.699219 252.886719 278.910156 252.121094 280.125 251.355469 C 280.21875 251.289062 280.253906 251.1875 280.207031 251.078125 C 280.183594 251.023438 280.160156 250.972656 280.136719 250.917969 L 278.527344 247.390625 C 279.085938 246.921875 279.644531 246.433594 280.164062 245.925781 L 280.726562 246.222656 C 280.761719 246.242188 280.804688 246.25 280.84375 246.246094 L 285.105469 246.492188 C 285.179688 246.484375 285.226562 246.460938 285.273438 246.398438 C 286.109375 245.234375 286.945312 244.070312 287.78125 242.902344 L 288.242188 242.261719 C 288.3125 242.152344 288.292969 242.046875 288.191406 241.949219 L 285.375 239.289062 L 285.242188 239.164062 C 285.710938 238.257812 286.136719 237.339844 286.511719 236.390625 L 290.695312 236.632812 L 290.714844 236.628906 L 290.734375 236.628906 L 290.757812 236.621094 L 290.773438 236.617188 L 290.792969 236.609375 L 290.808594 236.597656 L 290.824219 236.589844 L 290.839844 236.578125 L 290.855469 236.5625 L 290.890625 236.515625 L 290.90625 236.476562 L 290.910156 236.460938 L 290.957031 236.253906 L 291.085938 235.6875 L 291.855469 232.261719 L 292.03125 231.488281 C 292.050781 231.359375 291.992188 231.28125 291.878906 231.230469 L 288.175781 229.847656 C 288.339844 228.472656 288.402344 227.183594 288.378906 225.796875 " fill-opacity="1" fill-rule="evenodd"/><path fill="#fec105" d="M 258.011719 209.011719 C 267.539062 209.558594 274.816406 217.738281 274.269531 227.277344 C 273.71875 236.8125 265.550781 244.101562 256.023438 243.550781 C 246.492188 243.003906 239.214844 234.824219 239.761719 225.285156 C 240.3125 215.75 248.480469 208.460938 258.011719 209.011719 Z M 284.027344 228.503906 C 284.054688 228.195312 284.078125 227.886719 284.09375 227.582031 C 284.105469 227.277344 284.117188 226.972656 284.121094 226.660156 C 284.125 226.363281 284.125 226.058594 284.121094 225.742188 L 284.117188 225.554688 L 284.300781 225.503906 L 287.960938 224.511719 C 288.015625 224.496094 288.058594 224.464844 288.089844 224.421875 C 288.117188 224.378906 288.132812 224.324219 288.125 224.269531 L 288.09375 224.019531 L 288.023438 223.484375 L 287.570312 220 L 287.46875 219.21875 C 287.460938 219.164062 287.433594 219.113281 287.394531 219.078125 C 287.355469 219.042969 287.300781 219.023438 287.246094 219.023438 L 287.238281 219.023438 L 283.316406 219 L 283.132812 219 L 283.082031 218.824219 C 283 218.527344 282.910156 218.238281 282.816406 217.949219 C 282.726562 217.664062 282.625 217.375 282.519531 217.085938 C 282.414062 216.792969 282.308594 216.507812 282.195312 216.230469 C 282.089844 215.960938 281.972656 215.679688 281.84375 215.386719 L 281.769531 215.21875 L 281.910156 215.101562 L 284.921875 212.574219 C 284.964844 212.539062 284.992188 212.488281 285 212.433594 C 285.007812 212.382812 284.996094 212.324219 284.964844 212.28125 L 284.960938 212.273438 L 284.546875 211.617188 L 282.671875 208.644531 L 282.25 207.976562 C 282.222656 207.929688 282.175781 207.898438 282.125 207.882812 C 282.074219 207.867188 282.019531 207.871094 281.96875 207.894531 L 281.769531 207.984375 L 278.523438 209.464844 L 278.347656 209.542969 L 278.230469 209.394531 C 278.046875 209.164062 277.851562 208.925781 277.648438 208.6875 C 277.453125 208.457031 277.25 208.226562 277.046875 208.003906 C 276.84375 207.78125 276.632812 207.558594 276.414062 207.335938 C 276.199219 207.109375 275.980469 206.894531 275.757812 206.683594 L 275.625 206.558594 L 275.710938 206.394531 L 277.539062 202.945312 C 277.5625 202.898438 277.570312 202.84375 277.554688 202.792969 C 277.542969 202.742188 277.515625 202.695312 277.472656 202.664062 L 277.273438 202.523438 L 277.277344 202.519531 L 276.828125 202.199219 L 276.808594 202.1875 L 276.804688 202.183594 L 273.972656 200.152344 L 273.328125 199.695312 C 273.28125 199.660156 273.226562 199.648438 273.171875 199.652344 C 273.117188 199.660156 273.066406 199.6875 273.03125 199.730469 L 273.019531 199.742188 L 270.417969 202.496094 L 270.289062 202.632812 L 270.125 202.542969 C 269.851562 202.390625 269.582031 202.25 269.320312 202.117188 C 269.042969 201.976562 268.769531 201.84375 268.496094 201.714844 C 268.234375 201.59375 267.953125 201.46875 267.652344 201.34375 C 267.359375 201.21875 267.074219 201.101562 266.796875 200.996094 L 266.628906 200.929688 L 266.644531 200.746094 L 266.980469 196.84375 C 266.984375 196.789062 266.96875 196.734375 266.9375 196.691406 C 266.90625 196.652344 266.859375 196.621094 266.808594 196.609375 L 266.601562 196.5625 L 266.035156 196.433594 L 262.609375 195.664062 L 261.835938 195.488281 C 261.78125 195.476562 261.726562 195.488281 261.679688 195.511719 C 261.632812 195.539062 261.597656 195.582031 261.578125 195.632812 L 261.578125 195.636719 L 260.257812 199.183594 L 260.191406 199.359375 L 260.003906 199.339844 C 259.695312 199.304688 259.394531 199.277344 259.097656 199.253906 C 258.792969 199.230469 258.484375 199.214844 258.179688 199.199219 C 257.875 199.1875 257.570312 199.179688 257.257812 199.175781 C 256.960938 199.175781 256.65625 199.175781 256.339844 199.1875 L 256.160156 199.191406 L 256.101562 199.015625 L 254.890625 195.265625 C 254.871094 195.210938 254.832031 195.171875 254.789062 195.144531 C 254.738281 195.117188 254.683594 195.105469 254.628906 195.121094 L 254.617188 195.121094 L 253.859375 195.257812 L 250.402344 195.878906 L 249.625 196.019531 C 249.570312 196.027344 249.523438 196.058594 249.492188 196.097656 C 249.457031 196.140625 249.4375 196.191406 249.441406 196.246094 L 249.453125 196.488281 C 249.476562 197.03125 249.503906 197.476562 249.523438 197.859375 L 249.527344 197.871094 C 249.5625 198.515625 249.589844 198.980469 249.585938 199.324219 C 249.582031 199.703125 249.542969 199.945312 249.433594 200.101562 L 249.421875 200.117188 L 249.414062 200.132812 C 249.324219 200.25 249.179688 200.335938 248.972656 200.421875 C 248.808594 200.492188 248.574219 200.570312 248.277344 200.667969 C 248.003906 200.761719 247.6875 200.867188 247.300781 201.011719 C 246.921875 201.148438 246.488281 201.324219 245.988281 201.546875 L 245.820312 201.621094 L 245.703125 201.480469 L 243.195312 198.492188 C 243.160156 198.445312 243.109375 198.421875 243.058594 198.414062 C 243.003906 198.40625 242.949219 198.417969 242.902344 198.449219 L 242.894531 198.453125 L 242.238281 198.867188 L 239.265625 200.742188 L 238.597656 201.164062 C 238.550781 201.191406 238.519531 201.234375 238.503906 201.285156 C 238.488281 201.335938 238.492188 201.390625 238.515625 201.441406 L 238.605469 201.644531 L 240.097656 204.914062 L 240.175781 205.085938 L 240.027344 205.203125 C 239.796875 205.390625 239.558594 205.589844 239.324219 205.792969 C 239.09375 205.992188 238.867188 206.195312 238.640625 206.402344 C 238.417969 206.609375 238.199219 206.820312 237.976562 207.042969 C 237.746094 207.269531 237.53125 207.488281 237.335938 207.695312 L 237.207031 207.832031 L 237.042969 207.746094 L 233.625 205.933594 C 233.574219 205.90625 233.519531 205.902344 233.46875 205.914062 C 233.417969 205.925781 233.371094 205.957031 233.339844 206 L 233.335938 206 L 233.304688 206.050781 L 233.210938 206.179688 L 232.878906 206.644531 L 230.832031 209.5 L 230.371094 210.140625 C 230.335938 210.1875 230.324219 210.246094 230.332031 210.296875 C 230.339844 210.351562 230.367188 210.402344 230.410156 210.441406 L 230.421875 210.449219 L 233.191406 213.070312 L 233.328125 213.199219 L 233.238281 213.363281 C 233.097656 213.625 232.957031 213.894531 232.820312 214.171875 C 232.683594 214.449219 232.550781 214.726562 232.425781 215.003906 C 232.296875 215.28125 232.175781 215.5625 232.058594 215.847656 C 231.941406 216.125 231.832031 216.410156 231.722656 216.703125 L 231.65625 216.875 L 231.472656 216.859375 L 227.597656 216.523438 C 227.542969 216.519531 227.492188 216.535156 227.449219 216.566406 C 227.40625 216.597656 227.375 216.644531 227.363281 216.695312 L 227.316406 216.902344 L 227.1875 217.46875 L 226.417969 220.894531 L 226.246094 221.664062 C 226.230469 221.722656 226.242188 221.777344 226.269531 221.820312 C 226.292969 221.871094 226.335938 221.90625 226.386719 221.921875 L 226.394531 221.925781 L 229.964844 223.253906 L 230.140625 223.320312 L 230.121094 223.507812 C 230.089844 223.816406 230.0625 224.117188 230.042969 224.417969 C 230.023438 224.722656 230.007812 225.027344 229.996094 225.335938 C 229.984375 225.636719 229.980469 225.945312 229.980469 226.253906 C 229.980469 226.570312 229.984375 226.875 229.996094 227.171875 L 230 227.355469 L 229.824219 227.414062 L 226.109375 228.617188 C 226.054688 228.636719 226.011719 228.671875 225.984375 228.71875 C 225.957031 228.765625 225.945312 228.820312 225.960938 228.875 L 225.960938 228.886719 L 226.097656 229.644531 L 226.71875 233.101562 L 226.859375 233.878906 C 226.871094 233.9375 226.898438 233.980469 226.9375 234.015625 C 226.980469 234.046875 227.03125 234.066406 227.085938 234.0625 L 227.355469 234.050781 L 230.894531 233.898438 L 231.085938 233.890625 L 231.140625 234.074219 C 231.226562 234.363281 231.324219 234.65625 231.421875 234.945312 C 231.523438 235.246094 231.625 235.53125 231.730469 235.804688 C 231.832031 236.078125 231.945312 236.363281 232.070312 236.65625 C 232.191406 236.949219 232.3125 237.230469 232.4375 237.503906 L 232.515625 237.671875 L 232.375 237.792969 L 229.40625 240.28125 C 229.363281 240.316406 229.339844 240.367188 229.332031 240.417969 C 229.324219 240.472656 229.335938 240.527344 229.367188 240.574219 L 229.371094 240.582031 L 229.78125 241.238281 L 231.65625 244.207031 L 232.078125 244.878906 C 232.109375 244.925781 232.152344 244.957031 232.203125 244.972656 C 232.253906 244.988281 232.308594 244.984375 232.359375 244.960938 L 232.523438 244.886719 L 235.855469 243.367188 L 236.027344 243.289062 L 236.144531 243.4375 C 236.34375 243.679688 236.542969 243.914062 236.742188 244.136719 C 236.949219 244.378906 237.15625 244.601562 237.355469 244.816406 C 237.558594 245.03125 237.773438 245.25 237.996094 245.472656 C 238.210938 245.6875 238.433594 245.902344 238.65625 246.109375 L 238.796875 246.238281 L 238.707031 246.402344 L 236.910156 249.796875 C 236.882812 249.847656 236.878906 249.902344 236.890625 249.953125 C 236.902344 250.003906 236.933594 250.050781 236.976562 250.082031 L 237.019531 250.113281 L 237.121094 250.1875 L 237.621094 250.542969 L 240.476562 252.589844 L 241.117188 253.050781 C 241.164062 253.085938 241.222656 253.097656 241.277344 253.089844 C 241.328125 253.082031 241.382812 253.054688 241.417969 253.011719 L 241.429688 253 L 244.066406 250.207031 L 244.195312 250.074219 L 244.359375 250.160156 C 244.621094 250.296875 244.890625 250.4375 245.175781 250.574219 C 245.453125 250.710938 245.730469 250.839844 246.007812 250.964844 C 246.28125 251.085938 246.5625 251.203125 246.847656 251.320312 C 247.128906 251.433594 247.414062 251.546875 247.707031 251.652344 L 247.882812 251.71875 L 247.867188 251.902344 L 247.535156 255.746094 C 247.53125 255.800781 247.546875 255.855469 247.578125 255.898438 C 247.609375 255.941406 247.65625 255.972656 247.707031 255.984375 L 247.914062 256.027344 L 247.914062 256.03125 L 248.480469 256.15625 L 251.90625 256.925781 L 252.679688 257.101562 C 252.734375 257.113281 252.789062 257.105469 252.835938 257.078125 C 252.882812 257.050781 252.917969 257.011719 252.9375 256.957031 L 252.941406 256.953125 L 254.277344 253.359375 L 254.34375 253.183594 L 254.527344 253.199219 C 254.835938 253.230469 255.136719 253.253906 255.4375 253.273438 C 255.742188 253.289062 256.046875 253.304688 256.351562 253.3125 L 256.433594 253.3125 L 256.578125 253.316406 C 256.839844 253.320312 257.113281 253.324219 257.386719 253.320312 C 257.664062 253.316406 257.933594 253.308594 258.195312 253.296875 L 258.378906 253.289062 L 258.4375 253.46875 L 259.632812 257.15625 C 259.648438 257.210938 259.6875 257.253906 259.734375 257.28125 C 259.78125 257.308594 259.835938 257.316406 259.894531 257.304688 L 259.902344 257.304688 L 260.660156 257.167969 L 264.117188 256.542969 L 264.894531 256.40625 L 264.894531 256.402344 C 264.953125 256.394531 264.996094 256.367188 265.03125 256.324219 C 265.0625 256.285156 265.082031 256.230469 265.078125 256.175781 L 265.066406 255.90625 L 264.914062 252.34375 L 264.90625 252.15625 L 265.085938 252.101562 C 265.367188 252.011719 265.660156 251.917969 265.953125 251.8125 C 266.253906 251.707031 266.539062 251.601562 266.816406 251.496094 C 267.105469 251.382812 267.390625 251.269531 267.667969 251.148438 C 267.945312 251.03125 268.226562 250.90625 268.507812 250.773438 L 268.675781 250.695312 L 268.796875 250.839844 L 271.265625 253.785156 C 271.300781 253.824219 271.351562 253.851562 271.402344 253.859375 C 271.457031 253.867188 271.511719 253.855469 271.558594 253.824219 L 271.566406 253.820312 L 272.222656 253.40625 L 274.902344 251.71875 L 275.195312 251.535156 L 275.863281 251.113281 C 275.910156 251.082031 275.941406 251.039062 275.957031 250.988281 C 275.972656 250.9375 275.96875 250.882812 275.945312 250.832031 L 275.886719 250.699219 L 274.34375 247.3125 L 274.265625 247.140625 L 274.410156 247.023438 C 274.636719 246.832031 274.867188 246.632812 275.105469 246.421875 C 275.332031 246.21875 275.554688 246.011719 275.78125 245.796875 C 275.992188 245.59375 276.210938 245.378906 276.429688 245.15625 C 276.652344 244.925781 276.859375 244.703125 277.058594 244.488281 L 277.1875 244.347656 L 277.351562 244.433594 L 280.726562 246.222656 C 280.777344 246.25 280.832031 246.253906 280.882812 246.242188 C 280.933594 246.230469 280.980469 246.199219 281.011719 246.15625 L 281.160156 245.945312 L 281.160156 245.949219 L 281.472656 245.515625 L 281.484375 245.496094 L 281.488281 245.488281 L 283.519531 242.65625 L 283.980469 242.015625 C 284.015625 241.96875 284.027344 241.914062 284.019531 241.859375 C 284.011719 241.804688 283.984375 241.753906 283.941406 241.71875 L 283.929688 241.703125 L 281.113281 239.042969 L 280.980469 238.917969 L 281.066406 238.753906 C 281.167969 238.558594 281.269531 238.351562 281.378906 238.132812 C 281.484375 237.910156 281.585938 237.699219 281.679688 237.492188 C 281.777344 237.273438 281.875 237.058594 281.964844 236.847656 C 282.046875 236.648438 282.136719 236.433594 282.226562 236.199219 L 282.296875 236.03125 L 282.476562 236.042969 L 286.414062 236.386719 C 286.46875 236.390625 286.523438 236.375 286.5625 236.34375 L 286.566406 236.34375 C 286.609375 236.3125 286.640625 236.265625 286.652344 236.214844 L 286.695312 236.007812 L 286.824219 235.441406 L 287.59375 232.015625 L 287.765625 231.242188 C 287.78125 231.1875 287.769531 231.132812 287.746094 231.085938 C 287.71875 231.039062 287.675781 231.003906 287.625 230.984375 L 287.621094 230.984375 L 284.09375 229.671875 L 283.914062 229.605469 L 283.9375 229.414062 C 283.972656 229.105469 284.003906 228.800781 284.027344 228.503906 " fill-opacity="1" fill-rule="evenodd"/><path fill="#f59d1f" d="M 271.746094 213.140625 C 268.386719 209.367188 263.589844 206.875 258.152344 206.5625 C 252.710938 206.25 247.660156 208.171875 243.890625 211.535156 C 240.121094 214.898438 237.628906 219.699219 237.316406 225.144531 C 237.003906 230.589844 238.925781 235.648438 242.285156 239.421875 C 245.644531 243.199219 250.441406 245.6875 255.882812 246 C 261.320312 246.316406 266.375 244.390625 270.144531 241.027344 C 273.914062 237.664062 276.402344 232.863281 276.714844 227.417969 C 277.027344 221.972656 275.105469 216.914062 271.746094 213.140625 Z M 258.21875 205.359375 C 263.992188 205.691406 269.082031 208.335938 272.644531 212.339844 C 276.210938 216.34375 278.246094 221.710938 277.914062 227.484375 C 277.582031 233.261719 274.941406 238.359375 270.941406 241.925781 C 266.945312 245.496094 261.582031 247.535156 255.8125 247.203125 C 250.042969 246.871094 244.953125 244.226562 241.386719 240.222656 C 237.824219 236.21875 235.785156 230.851562 236.117188 225.074219 C 236.449219 219.300781 239.089844 214.203125 243.089844 210.636719 C 247.089844 207.070312 252.449219 205.027344 258.21875 205.359375 " fill-opacity="1" fill-rule="evenodd"/><g clip-path="url(#16f22d9dfd)"><path fill="#ce2798" d="M 296.347656 180.671875 C 301.386719 181.59375 305.066406 186.152344 304.761719 191.40625 C 304.460938 196.65625 300.285156 200.761719 295.171875 201.101562 C 293.140625 200.722656 291.539062 199.867188 290.019531 198.523438 C 287.8125 196.375 286.773438 193.980469 286.71875 190.894531 C 286.820312 187.6875 287.976562 185.121094 290.542969 182.941406 C 292.3125 181.578125 294.109375 180.824219 296.347656 180.671875 Z M 313.171875 190.523438 L 315.464844 189.902344 C 315.535156 189.878906 315.566406 189.828125 315.558594 189.757812 L 315.539062 189.609375 L 315.230469 187.214844 L 315.171875 186.75 L 315.167969 186.738281 L 315.164062 186.722656 L 315.160156 186.714844 L 315.15625 186.703125 L 315.148438 186.691406 L 315.140625 186.683594 L 315.132812 186.671875 L 315.117188 186.65625 L 315.105469 186.652344 L 315.09375 186.644531 L 315.082031 186.640625 L 315.074219 186.636719 L 315.058594 186.636719 L 315.046875 186.632812 L 312.546875 186.488281 L 312.546875 186.480469 C 312.347656 185.792969 312.101562 185.121094 311.816406 184.464844 L 311.773438 184.363281 L 311.855469 184.292969 L 313.652344 182.789062 C 313.699219 182.746094 313.714844 182.6875 313.683594 182.621094 C 313.601562 182.488281 313.511719 182.351562 313.425781 182.21875 L 312.058594 180.050781 C 312.035156 180.011719 312.003906 179.996094 311.960938 179.988281 L 309.421875 179.839844 C 309.398438 179.839844 309.375 179.839844 309.351562 179.851562 C 309.214844 179.914062 309.074219 179.976562 308.9375 180.042969 C 308.671875 179.75 308.394531 179.472656 308.109375 179.203125 L 309.25 177.050781 C 309.277344 176.988281 309.265625 176.921875 309.210938 176.878906 C 308.386719 176.292969 307.566406 175.699219 306.742188 175.109375 C 306.722656 175.097656 306.707031 175.09375 306.683594 175.085938 L 304.144531 174.941406 C 304.132812 174.9375 304.121094 174.9375 304.109375 174.941406 C 304.074219 174.945312 304.042969 174.960938 304.023438 174.988281 L 304.015625 174.996094 L 303.085938 175.980469 C 302.972656 175.933594 302.859375 175.890625 302.746094 175.847656 L 302.957031 173.414062 L 302.957031 173.375 L 302.953125 173.363281 L 302.945312 173.34375 L 302.9375 173.332031 L 302.933594 173.324219 L 302.925781 173.3125 L 302.917969 173.304688 L 302.90625 173.296875 L 302.898438 173.289062 L 302.886719 173.285156 L 302.878906 173.277344 L 302.867188 173.277344 L 302.855469 173.273438 L 302.734375 173.246094 L 302.394531 173.167969 L 300.351562 172.710938 L 299.894531 172.605469 L 297.351562 172.457031 C 297.277344 172.441406 297.226562 172.484375 297.195312 172.546875 L 296.4375 174.59375 L 295.75 172.472656 C 295.730469 172.421875 295.695312 172.394531 295.644531 172.382812 L 293.105469 172.238281 C 293.089844 172.234375 293.070312 172.234375 293.054688 172.238281 L 293.046875 172.238281 L 292.597656 172.320312 L 290.539062 172.691406 L 290.074219 172.773438 C 290.039062 172.78125 290.011719 172.796875 289.992188 172.820312 C 289.972656 172.84375 289.960938 172.878906 289.964844 172.910156 L 289.972656 173.054688 C 289.984375 173.378906 290 173.644531 290.011719 173.871094 L 290.015625 173.878906 C 290.035156 174.261719 290.050781 174.539062 290.050781 174.746094 C 290.046875 175.144531 290 175.277344 289.640625 175.417969 L 288.78125 174.394531 C 288.757812 174.367188 288.734375 174.355469 288.699219 174.347656 L 286.160156 174.203125 C 286.128906 174.195312 286.09375 174.203125 286.066406 174.222656 L 286.0625 174.226562 L 285.671875 174.472656 L 283.898438 175.589844 L 283.503906 175.839844 C 283.445312 175.875 283.425781 175.945312 283.453125 176.007812 C 283.765625 176.695312 284.078125 177.386719 284.394531 178.074219 L 284.441406 178.179688 C 284.101562 178.453125 283.773438 178.730469 283.457031 179.03125 L 283.074219 178.832031 C 283.058594 178.820312 283.046875 178.820312 283.03125 178.816406 L 280.488281 178.667969 C 280.414062 178.660156 280.382812 178.703125 280.34375 178.753906 C 280.261719 178.871094 280.175781 178.988281 280.089844 179.109375 L 278.871094 180.808594 L 278.597656 181.191406 C 278.578125 181.21875 278.570312 181.253906 278.574219 181.285156 C 278.578125 181.316406 278.59375 181.347656 278.621094 181.367188 L 280.28125 182.9375 L 280.359375 183.015625 C 279.992188 183.695312 279.671875 184.378906 279.402344 185.101562 L 279.363281 185.203125 L 279.253906 185.195312 L 276.945312 184.996094 C 276.910156 184.992188 276.882812 185.003906 276.855469 185.023438 C 276.832031 185.039062 276.8125 185.066406 276.804688 185.097656 C 276.621094 185.933594 276.429688 186.765625 276.242188 187.601562 L 276.136719 188.0625 C 276.132812 188.09375 276.136719 188.125 276.152344 188.152344 C 276.167969 188.179688 276.191406 188.203125 276.222656 188.214844 L 276.226562 188.214844 L 278.355469 189.007812 L 278.460938 189.046875 C 278.382812 189.816406 278.347656 190.570312 278.375 191.34375 L 278.378906 191.453125 L 278.273438 191.488281 L 276.058594 192.203125 C 276.023438 192.214844 276 192.238281 275.980469 192.265625 C 275.964844 192.292969 275.960938 192.324219 275.96875 192.359375 L 275.96875 192.363281 L 276.050781 192.816406 L 276.421875 194.878906 L 276.503906 195.339844 C 276.511719 195.375 276.527344 195.402344 276.550781 195.421875 C 276.574219 195.4375 276.601562 195.449219 276.628906 195.449219 L 279.097656 195.589844 C 279.300781 196.242188 279.546875 196.878906 279.828125 197.5 L 279.875 197.601562 L 279.792969 197.671875 L 278.023438 199.15625 C 277.996094 199.175781 277.984375 199.207031 277.976562 199.238281 C 277.972656 199.269531 277.980469 199.304688 278 199.332031 L 278.246094 199.726562 L 279.363281 201.496094 L 279.617188 201.894531 C 279.632812 201.921875 279.660156 201.941406 279.691406 201.953125 L 282.277344 202.105469 C 282.296875 202.101562 282.304688 202.097656 282.324219 202.089844 C 282.476562 202.023438 282.628906 201.953125 282.78125 201.882812 C 283.054688 202.167969 283.332031 202.4375 283.617188 202.703125 L 283.566406 202.804688 L 282.496094 204.828125 C 282.480469 204.855469 282.476562 204.890625 282.484375 204.921875 C 282.492188 204.953125 282.507812 204.980469 282.535156 204.996094 L 282.5625 205.015625 L 282.621094 205.058594 L 282.917969 205.273438 L 284.621094 206.492188 L 285.003906 206.765625 C 285.027344 206.785156 285.058594 206.792969 285.085938 206.792969 L 287.625 206.9375 L 287.636719 206.9375 L 287.695312 206.917969 L 287.703125 206.90625 L 287.714844 206.898438 L 287.722656 206.890625 L 287.726562 206.882812 L 288.707031 205.847656 C 288.78125 205.878906 288.855469 205.90625 288.929688 205.933594 L 289.035156 205.972656 L 289.027344 206.082031 L 288.828125 208.375 C 288.824219 208.40625 288.835938 208.4375 288.855469 208.464844 C 288.871094 208.488281 288.898438 208.507812 288.929688 208.515625 C 289.921875 208.734375 290.90625 208.957031 291.894531 209.179688 C 291.90625 209.183594 291.917969 209.183594 291.929688 209.183594 L 294.46875 209.332031 C 294.527344 209.324219 294.566406 209.296875 294.585938 209.242188 L 295.367188 207.144531 L 296.039062 209.214844 C 296.054688 209.269531 296.109375 209.304688 296.167969 209.304688 L 298.707031 209.453125 L 301.726562 208.910156 C 301.789062 208.890625 301.824219 208.84375 301.824219 208.777344 C 301.792969 208.015625 301.757812 207.253906 301.726562 206.492188 L 301.722656 206.378906 C 301.867188 206.335938 302.015625 206.285156 302.164062 206.238281 L 302.972656 207.203125 C 302.992188 207.230469 303.023438 207.246094 303.054688 207.25 C 303.0625 207.25 303.070312 207.25 303.078125 207.25 L 305.617188 207.398438 L 305.628906 207.394531 L 305.640625 207.394531 L 305.675781 207.382812 L 305.6875 207.375 L 305.691406 207.375 L 306.082031 207.125 C 306.804688 206.667969 307.527344 206.214844 308.25 205.757812 C 308.308594 205.71875 308.328125 205.65625 308.300781 205.589844 C 308.289062 205.558594 308.273438 205.527344 308.257812 205.496094 L 307.300781 203.390625 C 307.632812 203.113281 307.964844 202.824219 308.277344 202.519531 L 308.609375 202.695312 C 308.632812 202.707031 308.65625 202.714844 308.679688 202.710938 L 311.21875 202.859375 C 311.265625 202.855469 311.292969 202.839844 311.320312 202.804688 C 311.816406 202.109375 312.316406 201.414062 312.816406 200.71875 L 313.089844 200.335938 C 313.132812 200.273438 313.117188 200.207031 313.058594 200.152344 L 311.382812 198.566406 L 311.300781 198.488281 C 311.582031 197.949219 311.835938 197.402344 312.058594 196.835938 L 314.550781 196.980469 L 314.566406 196.980469 L 314.578125 196.976562 L 314.589844 196.976562 L 314.609375 196.96875 L 314.621094 196.960938 L 314.628906 196.953125 L 314.640625 196.949219 L 314.648438 196.941406 L 314.65625 196.929688 L 314.664062 196.921875 L 314.667969 196.910156 L 314.675781 196.898438 L 314.679688 196.890625 L 314.683594 196.878906 L 314.707031 196.757812 L 314.785156 196.417969 L 315.246094 194.375 L 315.347656 193.914062 C 315.359375 193.839844 315.328125 193.792969 315.257812 193.761719 L 313.050781 192.9375 C 313.148438 192.117188 313.1875 191.347656 313.171875 190.523438 " fill-opacity="1" fill-rule="evenodd"/></g><path fill="#ed3db5" d="M 295.070312 180.519531 C 300.75 180.84375 305.089844 185.71875 304.761719 191.40625 C 304.433594 197.089844 299.566406 201.433594 293.886719 201.105469 C 288.207031 200.777344 283.867188 195.90625 284.195312 190.21875 C 284.523438 184.535156 289.390625 180.191406 295.070312 180.519531 Z M 310.578125 192.136719 C 310.59375 191.953125 310.609375 191.769531 310.617188 191.585938 C 310.625 191.40625 310.632812 191.222656 310.636719 191.039062 C 310.636719 190.859375 310.636719 190.679688 310.632812 190.488281 L 310.632812 190.378906 L 310.742188 190.347656 L 312.921875 189.757812 C 312.957031 189.75 312.980469 189.726562 313 189.703125 C 313.015625 189.675781 313.023438 189.644531 313.019531 189.613281 L 313 189.464844 L 312.960938 189.144531 L 312.691406 187.070312 L 312.628906 186.601562 C 312.625 186.570312 312.609375 186.539062 312.585938 186.519531 C 312.5625 186.5 312.53125 186.484375 312.496094 186.488281 L 312.492188 186.488281 L 310.15625 186.472656 L 310.046875 186.472656 L 310.015625 186.367188 C 309.964844 186.191406 309.914062 186.019531 309.855469 185.84375 C 309.800781 185.675781 309.742188 185.503906 309.679688 185.332031 C 309.617188 185.15625 309.554688 184.988281 309.488281 184.820312 C 309.421875 184.660156 309.351562 184.492188 309.277344 184.316406 L 309.230469 184.21875 L 309.316406 184.148438 L 311.109375 182.640625 C 311.136719 182.621094 311.152344 182.589844 311.15625 182.558594 C 311.164062 182.527344 311.15625 182.492188 311.136719 182.464844 L 310.886719 182.070312 L 309.769531 180.300781 L 309.519531 179.902344 C 309.5 179.875 309.476562 179.855469 309.445312 179.847656 C 309.414062 179.835938 309.382812 179.839844 309.351562 179.851562 L 309.230469 179.90625 L 307.296875 180.789062 L 307.195312 180.835938 L 307.121094 180.746094 C 307.011719 180.609375 306.898438 180.46875 306.777344 180.324219 C 306.660156 180.1875 306.539062 180.050781 306.417969 179.917969 C 306.296875 179.785156 306.171875 179.652344 306.042969 179.519531 C 305.910156 179.386719 305.78125 179.257812 305.648438 179.132812 L 305.570312 179.054688 L 305.621094 178.957031 L 306.710938 176.902344 C 306.726562 176.875 306.730469 176.839844 306.722656 176.8125 C 306.714844 176.78125 306.695312 176.753906 306.671875 176.734375 L 306.554688 176.652344 L 306.289062 176.457031 L 306.277344 176.453125 L 306.273438 176.449219 L 304.585938 175.238281 L 304.203125 174.964844 C 304.171875 174.945312 304.140625 174.9375 304.109375 174.941406 C 304.074219 174.945312 304.042969 174.960938 304.023438 174.988281 L 304.015625 174.996094 L 302.46875 176.632812 L 302.390625 176.714844 L 302.292969 176.660156 C 302.128906 176.574219 301.96875 176.488281 301.8125 176.410156 C 301.648438 176.324219 301.484375 176.246094 301.320312 176.167969 C 301.164062 176.097656 300.996094 176.023438 300.820312 175.949219 C 300.644531 175.875 300.476562 175.804688 300.308594 175.742188 L 300.207031 175.703125 L 300.21875 175.59375 L 300.417969 173.265625 C 300.421875 173.234375 300.410156 173.203125 300.390625 173.175781 C 300.375 173.152344 300.347656 173.132812 300.316406 173.125 L 300.195312 173.097656 L 299.855469 173.023438 L 297.8125 172.5625 L 297.351562 172.457031 C 297.320312 172.453125 297.289062 172.457031 297.261719 172.472656 L 297.257812 172.472656 C 297.230469 172.488281 297.210938 172.511719 297.199219 172.542969 L 297.195312 172.546875 L 296.410156 174.660156 L 296.371094 174.765625 L 296.257812 174.753906 C 296.074219 174.734375 295.894531 174.71875 295.71875 174.703125 C 295.539062 174.6875 295.355469 174.679688 295.171875 174.671875 C 294.992188 174.664062 294.808594 174.660156 294.625 174.65625 C 294.445312 174.65625 294.265625 174.65625 294.078125 174.660156 L 293.96875 174.664062 L 293.933594 174.5625 L 293.210938 172.328125 C 293.199219 172.292969 293.175781 172.269531 293.148438 172.253906 C 293.121094 172.238281 293.089844 172.230469 293.054688 172.238281 L 293.046875 172.238281 L 292.597656 172.320312 L 290.539062 172.691406 L 290.074219 172.773438 C 290.039062 172.78125 290.011719 172.796875 289.992188 172.820312 C 289.972656 172.84375 289.960938 172.878906 289.964844 172.910156 L 289.972656 173.054688 C 289.984375 173.378906 290 173.644531 290.011719 173.871094 L 290.015625 173.878906 C 290.035156 174.261719 290.050781 174.539062 290.050781 174.746094 C 290.050781 174.972656 290.023438 175.113281 289.960938 175.210938 L 289.953125 175.21875 L 289.949219 175.226562 C 289.894531 175.296875 289.808594 175.347656 289.6875 175.398438 C 289.585938 175.441406 289.445312 175.488281 289.269531 175.546875 C 289.109375 175.601562 288.917969 175.664062 288.6875 175.75 C 288.460938 175.832031 288.203125 175.9375 287.90625 176.070312 L 287.808594 176.113281 L 287.734375 176.03125 L 286.242188 174.246094 C 286.21875 174.222656 286.191406 174.207031 286.160156 174.203125 C 286.128906 174.195312 286.09375 174.203125 286.066406 174.222656 L 286.0625 174.226562 L 285.671875 174.472656 L 283.898438 175.589844 L 283.503906 175.839844 C 283.476562 175.855469 283.453125 175.882812 283.445312 175.914062 C 283.4375 175.941406 283.4375 175.976562 283.453125 176.007812 L 283.507812 176.125 L 284.394531 178.074219 L 284.441406 178.179688 L 284.355469 178.25 C 284.214844 178.363281 284.074219 178.476562 283.933594 178.601562 C 283.796875 178.71875 283.660156 178.839844 283.527344 178.964844 C 283.394531 179.085938 283.261719 179.214844 283.128906 179.34375 C 282.992188 179.480469 282.867188 179.609375 282.75 179.734375 L 282.671875 179.8125 L 282.574219 179.761719 L 280.535156 178.683594 C 280.507812 178.667969 280.472656 178.664062 280.445312 178.671875 C 280.414062 178.679688 280.386719 178.699219 280.367188 178.722656 L 280.367188 178.726562 L 280.34375 178.753906 L 280.289062 178.832031 L 280.089844 179.109375 L 278.871094 180.808594 L 278.597656 181.191406 C 278.578125 181.21875 278.570312 181.253906 278.574219 181.285156 C 278.578125 181.316406 278.59375 181.347656 278.621094 181.367188 L 278.628906 181.375 L 280.28125 182.9375 L 280.359375 183.015625 L 280.308594 183.113281 C 280.222656 183.265625 280.140625 183.429688 280.058594 183.59375 C 279.976562 183.761719 279.898438 183.925781 279.820312 184.089844 C 279.746094 184.253906 279.671875 184.421875 279.601562 184.59375 C 279.535156 184.757812 279.46875 184.925781 279.402344 185.101562 L 279.363281 185.203125 L 279.253906 185.195312 L 276.945312 184.996094 C 276.910156 184.992188 276.882812 185.003906 276.855469 185.023438 C 276.832031 185.039062 276.8125 185.066406 276.804688 185.097656 L 276.777344 185.21875 L 276.703125 185.558594 L 276.242188 187.601562 L 276.136719 188.0625 C 276.132812 188.09375 276.136719 188.125 276.152344 188.152344 C 276.167969 188.179688 276.191406 188.203125 276.222656 188.214844 L 276.226562 188.214844 L 278.355469 189.007812 L 278.460938 189.046875 L 278.449219 189.160156 C 278.429688 189.34375 278.414062 189.523438 278.402344 189.703125 C 278.390625 189.882812 278.378906 190.066406 278.375 190.246094 C 278.367188 190.425781 278.363281 190.609375 278.363281 190.796875 C 278.363281 190.984375 278.367188 191.164062 278.375 191.34375 L 278.378906 191.453125 L 278.273438 191.488281 L 276.058594 192.203125 C 276.023438 192.214844 276 192.238281 275.980469 192.265625 C 275.964844 192.292969 275.960938 192.324219 275.96875 192.359375 L 275.96875 192.363281 L 276.050781 192.816406 L 276.421875 194.878906 L 276.503906 195.339844 C 276.511719 195.375 276.527344 195.402344 276.550781 195.421875 C 276.578125 195.441406 276.609375 195.449219 276.640625 195.449219 L 276.800781 195.445312 L 278.910156 195.351562 L 279.023438 195.347656 L 279.054688 195.457031 C 279.109375 195.628906 279.164062 195.800781 279.222656 195.976562 C 279.285156 196.152344 279.34375 196.324219 279.40625 196.488281 C 279.46875 196.652344 279.535156 196.820312 279.609375 196.996094 C 279.683594 197.167969 279.753906 197.335938 279.828125 197.5 L 279.875 197.601562 L 279.792969 197.671875 L 278.023438 199.15625 C 277.996094 199.175781 277.984375 199.207031 277.976562 199.238281 C 277.972656 199.269531 277.980469 199.304688 278 199.332031 L 278.246094 199.726562 L 279.363281 201.496094 L 279.617188 201.894531 C 279.632812 201.921875 279.660156 201.941406 279.691406 201.953125 C 279.71875 201.960938 279.753906 201.960938 279.78125 201.945312 L 279.878906 201.902344 L 281.867188 200.996094 L 281.96875 200.949219 L 282.039062 201.035156 C 282.15625 201.179688 282.277344 201.320312 282.394531 201.457031 C 282.519531 201.597656 282.640625 201.730469 282.761719 201.859375 C 282.882812 201.988281 283.011719 202.117188 283.140625 202.25 C 283.273438 202.378906 283.402344 202.503906 283.535156 202.628906 L 283.617188 202.703125 L 283.566406 202.804688 L 282.496094 204.828125 C 282.480469 204.855469 282.476562 204.890625 282.484375 204.921875 C 282.492188 204.953125 282.507812 204.980469 282.535156 204.996094 L 282.5625 205.015625 L 282.621094 205.058594 L 282.917969 205.273438 L 284.621094 206.492188 L 285.003906 206.765625 C 285.03125 206.785156 285.066406 206.796875 285.097656 206.789062 C 285.128906 206.785156 285.160156 206.769531 285.183594 206.742188 L 285.1875 206.738281 L 286.761719 205.074219 L 286.835938 204.992188 L 286.933594 205.042969 C 287.089844 205.125 287.253906 205.210938 287.421875 205.292969 C 287.585938 205.371094 287.753906 205.449219 287.917969 205.523438 C 288.082031 205.59375 288.246094 205.667969 288.417969 205.734375 C 288.585938 205.800781 288.757812 205.871094 288.929688 205.933594 L 289.035156 205.972656 L 289.027344 206.082031 L 288.828125 208.375 C 288.824219 208.40625 288.835938 208.4375 288.855469 208.464844 C 288.871094 208.488281 288.898438 208.507812 288.929688 208.515625 L 289.054688 208.542969 L 289.390625 208.617188 L 291.433594 209.078125 L 291.894531 209.179688 C 291.925781 209.1875 291.960938 209.183594 291.988281 209.167969 C 292.015625 209.152344 292.039062 209.125 292.046875 209.097656 L 292.050781 209.09375 L 292.847656 206.949219 L 292.886719 206.847656 L 292.996094 206.855469 C 293.179688 206.875 293.359375 206.886719 293.539062 206.898438 C 293.71875 206.910156 293.898438 206.917969 294.082031 206.921875 L 294.132812 206.921875 L 294.21875 206.925781 C 294.375 206.925781 294.535156 206.929688 294.703125 206.925781 C 294.867188 206.925781 295.027344 206.921875 295.179688 206.914062 L 295.292969 206.910156 L 295.324219 207.015625 L 296.039062 209.214844 C 296.046875 209.246094 296.070312 209.273438 296.097656 209.289062 C 296.125 209.304688 296.160156 209.308594 296.195312 209.300781 L 296.199219 209.300781 L 296.652344 209.21875 L 298.710938 208.847656 L 299.175781 208.765625 C 299.207031 208.761719 299.238281 208.742188 299.253906 208.71875 C 299.273438 208.695312 299.285156 208.664062 299.285156 208.628906 L 299.277344 208.46875 L 299.1875 206.34375 L 299.183594 206.234375 L 299.289062 206.199219 C 299.457031 206.148438 299.628906 206.089844 299.808594 206.027344 C 299.984375 205.96875 300.15625 205.902344 300.320312 205.839844 C 300.492188 205.773438 300.660156 205.703125 300.824219 205.632812 C 300.992188 205.5625 301.160156 205.488281 301.328125 205.410156 L 301.429688 205.363281 L 301.5 205.449219 L 302.972656 207.203125 C 302.992188 207.230469 303.023438 207.246094 303.054688 207.25 C 303.085938 207.253906 303.121094 207.246094 303.148438 207.230469 L 303.152344 207.226562 L 303.542969 206.976562 L 305.140625 205.972656 L 305.3125 205.863281 L 305.710938 205.609375 C 305.738281 205.59375 305.761719 205.566406 305.769531 205.539062 C 305.777344 205.507812 305.773438 205.472656 305.761719 205.445312 L 305.726562 205.363281 L 304.804688 203.34375 L 304.761719 203.246094 L 304.84375 203.175781 C 304.980469 203.0625 305.121094 202.941406 305.257812 202.816406 C 305.394531 202.695312 305.53125 202.570312 305.664062 202.441406 C 305.789062 202.320312 305.917969 202.195312 306.050781 202.0625 C 306.179688 201.925781 306.308594 201.792969 306.425781 201.664062 L 306.5 201.578125 L 306.601562 201.632812 L 308.609375 202.695312 C 308.640625 202.710938 308.671875 202.714844 308.703125 202.707031 C 308.734375 202.703125 308.761719 202.683594 308.78125 202.65625 L 308.871094 202.53125 L 308.871094 202.535156 L 309.054688 202.273438 L 309.0625 202.261719 L 309.066406 202.261719 L 310.277344 200.574219 L 310.550781 200.191406 C 310.570312 200.160156 310.578125 200.128906 310.574219 200.097656 C 310.570312 200.0625 310.554688 200.035156 310.527344 200.011719 L 310.519531 200.003906 L 308.839844 198.417969 L 308.761719 198.34375 L 308.8125 198.246094 C 308.875 198.128906 308.933594 198.003906 309 197.875 C 309.0625 197.742188 309.121094 197.617188 309.179688 197.492188 C 309.238281 197.363281 309.292969 197.234375 309.347656 197.109375 C 309.398438 196.992188 309.449219 196.863281 309.507812 196.722656 L 309.546875 196.621094 L 309.65625 196.632812 L 312 196.835938 C 312.035156 196.835938 312.066406 196.828125 312.089844 196.808594 C 312.117188 196.789062 312.132812 196.761719 312.140625 196.730469 L 312.167969 196.609375 L 312.246094 196.273438 L 312.703125 194.230469 L 312.808594 193.769531 C 312.816406 193.738281 312.808594 193.703125 312.792969 193.675781 C 312.777344 193.648438 312.753906 193.625 312.722656 193.617188 L 312.71875 193.613281 L 310.617188 192.832031 L 310.511719 192.792969 L 310.523438 192.679688 C 310.546875 192.492188 310.566406 192.3125 310.578125 192.136719 " fill-opacity="1" fill-rule="evenodd"/><path fill="#ce2798" d="M 303.257812 182.980469 C 301.257812 180.730469 298.398438 179.246094 295.15625 179.058594 C 291.914062 178.871094 288.902344 180.019531 286.65625 182.023438 C 284.40625 184.027344 282.925781 186.890625 282.738281 190.136719 C 282.550781 193.378906 283.695312 196.394531 285.699219 198.644531 C 287.703125 200.894531 290.5625 202.378906 293.800781 202.566406 C 297.042969 202.753906 300.054688 201.605469 302.300781 199.601562 C 304.550781 197.597656 306.03125 194.734375 306.21875 191.488281 C 306.40625 188.242188 305.261719 185.230469 303.257812 182.980469 Z M 295.195312 178.34375 C 298.636719 178.539062 301.667969 180.117188 303.792969 182.503906 C 305.917969 184.886719 307.132812 188.085938 306.933594 191.53125 C 306.738281 194.972656 305.164062 198.011719 302.78125 200.136719 C 300.394531 202.261719 297.199219 203.480469 293.761719 203.28125 C 290.320312 203.082031 287.289062 201.507812 285.164062 199.121094 C 283.039062 196.734375 281.824219 193.539062 282.023438 190.09375 C 282.21875 186.652344 283.792969 183.613281 286.179688 181.488281 C 288.5625 179.359375 291.757812 178.144531 295.195312 178.34375 " fill-opacity="1" fill-rule="evenodd"/><g clip-path="url(#5325059a99)"><path fill="#faa908" d="M 176.125 260.609375 C 187.292969 260.609375 196.339844 269.671875 196.339844 280.847656 C 196.339844 292.027344 187.292969 301.085938 176.125 301.085938 C 174.980469 301.085938 173.839844 301.085938 172.699219 301.085938 C 161.53125 301.085938 152.480469 292.027344 152.480469 280.847656 C 152.480469 269.671875 161.53125 260.609375 172.699219 260.609375 C 173.839844 260.609375 174.980469 260.609375 176.125 260.609375 " fill-opacity="1" fill-rule="evenodd"/></g><path fill="#fdcb2b" d="M 187.105469 263.855469 C 192.664062 267.460938 196.34375 273.722656 196.339844 280.847656 C 196.34375 287.972656 192.664062 294.238281 187.105469 297.84375 L 161.71875 297.84375 C 156.160156 294.238281 152.480469 287.972656 152.480469 280.847656 C 152.480469 273.722656 156.160156 267.460938 161.71875 263.855469 L 187.105469 263.855469 " fill-opacity="1" fill-rule="evenodd"/><path fill="#faa908" d="M 194.308594 271.996094 C 195.613281 274.671875 196.339844 277.671875 196.339844 280.847656 C 196.339844 284.023438 195.609375 287.027344 194.308594 289.703125 L 154.511719 289.703125 C 153.210938 287.027344 152.480469 284.023438 152.480469 280.847656 C 152.480469 277.675781 153.210938 274.671875 154.511719 271.996094 L 194.308594 271.996094 " fill-opacity="1" fill-rule="evenodd"/><g clip-path="url(#d001d61560)"><path fill="#fcb408" d="M 156.53125 280.847656 C 156.53125 269.671875 165.585938 260.609375 176.75 260.609375 C 187.914062 260.609375 196.964844 269.671875 196.964844 280.847656 C 196.964844 292.027344 187.914062 301.085938 176.75 301.085938 C 165.585938 301.085938 156.53125 292.027344 156.53125 280.847656 " fill-opacity="1" fill-rule="evenodd"/></g><path fill="#fdd833" d="M 194.953125 280.847656 C 194.953125 270.921875 186.914062 262.875 177 262.875 C 167.082031 262.875 159.042969 270.921875 159.042969 280.847656 C 159.042969 290.777344 167.082031 298.824219 177 298.824219 C 186.914062 298.824219 194.953125 290.777344 194.953125 280.847656 " fill-opacity="1" fill-rule="evenodd"/><path fill="#f8a008" d="M 176.480469 278.574219 C 175.335938 277.914062 174.304688 277.199219 173.960938 276.535156 C 173.421875 275.492188 173.722656 274.882812 173.976562 273.867188 C 174.527344 272.953125 175.460938 272.371094 176.480469 272.160156 Z M 176.480469 289.511719 C 175.859375 289.367188 175.265625 289.078125 174.765625 288.632812 C 174.074219 288.019531 173.644531 287.175781 173.644531 286.246094 C 173.644531 285.367188 172.839844 284.652344 171.84375 284.652344 C 170.851562 284.652344 170.046875 285.367188 170.046875 286.246094 C 170.046875 288.054688 170.878906 289.699219 172.222656 290.886719 C 173.414062 291.945312 174.917969 292.574219 176.480469 292.757812 L 176.480469 295.351562 C 176.480469 295.859375 176.894531 296.273438 177.402344 296.273438 C 177.910156 296.273438 178.320312 295.859375 178.320312 295.351562 L 178.320312 292.769531 C 179.464844 292.652344 180.585938 292.292969 181.59375 291.691406 C 184.484375 289.957031 185.574219 286.691406 184.105469 283.84375 C 182.839844 281.398438 181.132812 281.140625 179.785156 280.328125 C 179.40625 280.117188 178.890625 279.855469 178.320312 279.558594 L 178.320312 272.183594 C 178.941406 272.332031 179.535156 272.621094 180.035156 273.066406 C 180.730469 273.679688 181.160156 274.523438 181.160156 275.449219 C 181.160156 276.332031 181.964844 277.046875 182.957031 277.046875 C 183.949219 277.046875 184.757812 276.332031 184.757812 275.449219 C 184.757812 273.644531 183.921875 272 182.582031 270.808594 C 181.390625 269.753906 179.882812 269.125 178.320312 268.9375 L 178.320312 266.347656 C 178.320312 265.839844 177.910156 265.425781 177.402344 265.425781 C 176.894531 265.425781 176.480469 265.839844 176.480469 266.347656 L 176.480469 268.925781 C 175.339844 269.042969 174.214844 269.402344 173.207031 270.007812 C 170.320312 271.742188 169.226562 275.007812 170.699219 277.855469 C 171.335938 279.082031 174.226562 281.011719 176.480469 282.292969 Z M 178.601562 283.382812 C 179.644531 283.839844 180.304688 284.125 180.84375 285.164062 C 181.382812 286.207031 181.078125 286.816406 180.828125 287.828125 C 180.273438 288.746094 179.34375 289.328125 178.320312 289.539062 L 178.320312 283.257812 C 178.421875 283.304688 178.511719 283.34375 178.601562 283.382812 " fill-opacity="1" fill-rule="evenodd"/><path fill="#faa908" d="M 182.488281 233.488281 C 188.707031 233.488281 193.746094 238.535156 193.746094 244.757812 C 193.746094 250.976562 188.707031 256.023438 182.488281 256.023438 C 181.851562 256.023438 181.21875 256.023438 180.582031 256.023438 C 174.363281 256.023438 169.324219 250.976562 169.324219 244.757812 C 169.324219 238.535156 174.363281 233.488281 180.582031 233.488281 C 181.21875 233.488281 181.851562 233.488281 182.488281 233.488281 " fill-opacity="1" fill-rule="evenodd"/><path fill="#fdcb2b" d="M 188.601562 235.292969 C 191.695312 237.300781 193.746094 240.789062 193.746094 244.753906 C 193.746094 248.722656 191.695312 252.210938 188.601562 254.21875 L 174.46875 254.21875 C 171.375 252.210938 169.324219 248.722656 169.324219 244.757812 C 169.324219 240.789062 171.375 237.300781 174.46875 235.292969 L 188.601562 235.292969 " fill-opacity="1" fill-rule="evenodd"/><path fill="#faa908" d="M 192.613281 239.828125 C 193.335938 241.316406 193.746094 242.988281 193.746094 244.753906 C 193.746094 246.523438 193.335938 248.195312 192.613281 249.683594 L 170.457031 249.683594 C 169.734375 248.195312 169.324219 246.523438 169.324219 244.757812 C 169.324219 242.988281 169.734375 241.316406 170.457031 239.828125 L 192.613281 239.828125 " fill-opacity="1" fill-rule="evenodd"/><path fill="#fcb408" d="M 171.582031 244.757812 C 171.582031 238.535156 176.621094 233.488281 182.835938 233.488281 C 189.054688 233.488281 194.09375 238.535156 194.09375 244.757812 C 194.09375 250.976562 189.054688 256.023438 182.835938 256.023438 C 176.621094 256.023438 171.582031 250.976562 171.582031 244.757812 " fill-opacity="1" fill-rule="evenodd"/><path fill="#fdd833" d="M 192.972656 244.757812 C 192.972656 239.230469 188.496094 234.75 182.976562 234.75 C 177.453125 234.75 172.980469 239.230469 172.980469 244.757812 C 172.980469 250.28125 177.453125 254.761719 182.976562 254.761719 C 188.496094 254.761719 192.972656 250.28125 192.972656 244.757812 " fill-opacity="1" fill-rule="evenodd"/><path fill="#f8a008" d="M 182.6875 243.488281 C 182.050781 243.121094 181.476562 242.722656 181.285156 242.355469 C 180.984375 241.773438 181.152344 241.433594 181.292969 240.871094 C 181.597656 240.359375 182.117188 240.035156 182.6875 239.917969 Z M 182.6875 249.578125 C 182.339844 249.496094 182.011719 249.335938 181.730469 249.089844 C 181.347656 248.746094 181.109375 248.277344 181.109375 247.761719 C 181.109375 247.269531 180.660156 246.871094 180.105469 246.871094 C 179.554688 246.871094 179.105469 247.269531 179.105469 247.761719 C 179.105469 248.765625 179.570312 249.683594 180.316406 250.34375 C 180.980469 250.933594 181.816406 251.285156 182.6875 251.386719 L 182.6875 252.828125 C 182.6875 253.113281 182.917969 253.339844 183.199219 253.339844 C 183.480469 253.339844 183.710938 253.113281 183.710938 252.828125 L 183.710938 251.394531 C 184.347656 251.328125 184.972656 251.128906 185.535156 250.792969 C 187.140625 249.824219 187.75 248.007812 186.929688 246.421875 C 186.226562 245.0625 185.277344 244.917969 184.527344 244.464844 C 184.316406 244.347656 184.027344 244.199219 183.710938 244.039062 L 183.710938 239.933594 C 184.058594 240.015625 184.386719 240.175781 184.667969 240.421875 C 185.050781 240.765625 185.292969 241.234375 185.292969 241.75 C 185.292969 242.242188 185.738281 242.636719 186.292969 242.636719 C 186.847656 242.636719 187.296875 242.242188 187.296875 241.75 C 187.296875 240.742188 186.832031 239.828125 186.082031 239.167969 C 185.421875 238.578125 184.582031 238.226562 183.710938 238.125 L 183.710938 236.683594 C 183.710938 236.398438 183.480469 236.171875 183.199219 236.171875 C 182.917969 236.171875 182.6875 236.398438 182.6875 236.683594 L 182.6875 238.117188 C 182.050781 238.183594 181.425781 238.382812 180.867188 238.71875 C 179.257812 239.683594 178.648438 241.503906 179.46875 243.089844 C 179.820312 243.773438 181.433594 244.847656 182.6875 245.558594 Z M 183.867188 246.167969 C 184.449219 246.421875 184.816406 246.578125 185.117188 247.15625 C 185.414062 247.738281 185.246094 248.078125 185.105469 248.640625 C 184.800781 249.152344 184.28125 249.476562 183.710938 249.59375 L 183.710938 246.09375 C 183.765625 246.121094 183.820312 246.144531 183.867188 246.167969 " fill-opacity="1" fill-rule="evenodd"/><path fill="#faa908" d="M 213.019531 250.347656 C 221.175781 250.347656 227.789062 256.964844 227.789062 265.128906 C 227.789062 273.296875 221.175781 279.917969 213.019531 279.917969 C 212.183594 279.917969 211.351562 279.917969 210.515625 279.917969 C 202.359375 279.917969 195.746094 273.296875 195.746094 265.128906 C 195.746094 256.964844 202.359375 250.347656 210.515625 250.347656 C 211.351562 250.347656 212.183594 250.347656 213.019531 250.347656 " fill-opacity="1" fill-rule="evenodd"/><path fill="#fdcb2b" d="M 221.039062 252.714844 C 225.101562 255.351562 227.789062 259.925781 227.789062 265.128906 C 227.789062 270.335938 225.101562 274.910156 221.039062 277.546875 L 202.492188 277.546875 C 198.433594 274.910156 195.746094 270.335938 195.746094 265.132812 C 195.746094 259.925781 198.433594 255.351562 202.492188 252.714844 L 221.039062 252.714844 " fill-opacity="1" fill-rule="evenodd"/><path fill="#faa908" d="M 226.304688 258.664062 C 227.253906 260.617188 227.789062 262.8125 227.789062 265.128906 C 227.789062 267.449219 227.253906 269.644531 226.304688 271.597656 L 197.230469 271.597656 C 196.277344 269.644531 195.746094 267.449219 195.746094 265.132812 C 195.746094 262.8125 196.277344 260.617188 197.230469 258.664062 L 226.304688 258.664062 " fill-opacity="1" fill-rule="evenodd"/><path fill="#fcb408" d="M 198.707031 265.128906 C 198.707031 256.964844 205.320312 250.347656 213.476562 250.347656 C 221.632812 250.347656 228.246094 256.964844 228.246094 265.128906 C 228.246094 273.296875 221.632812 279.917969 213.476562 279.917969 C 205.320312 279.917969 198.707031 273.296875 198.707031 265.128906 " fill-opacity="1" fill-rule="evenodd"/><path fill="#fdd833" d="M 226.773438 265.128906 C 226.773438 257.878906 220.902344 252 213.65625 252 C 206.414062 252 200.539062 257.878906 200.539062 265.128906 C 200.539062 272.382812 206.414062 278.261719 213.65625 278.261719 C 220.902344 278.261719 226.773438 272.382812 226.773438 265.128906 " fill-opacity="1" fill-rule="evenodd"/><path fill="#f8a008" d="M 213.28125 263.46875 C 212.441406 262.988281 211.6875 262.464844 211.4375 261.980469 C 211.042969 261.21875 211.265625 260.769531 211.449219 260.03125 C 211.851562 259.363281 212.535156 258.9375 213.28125 258.785156 Z M 213.28125 271.460938 C 212.824219 271.355469 212.390625 271.140625 212.027344 270.816406 C 211.519531 270.371094 211.207031 269.75 211.207031 269.074219 C 211.207031 268.429688 210.617188 267.910156 209.890625 267.910156 C 209.167969 267.910156 208.578125 268.429688 208.578125 269.074219 C 208.578125 270.394531 209.1875 271.59375 210.167969 272.464844 C 211.039062 273.238281 212.136719 273.695312 213.28125 273.832031 L 213.28125 275.726562 C 213.28125 276.097656 213.578125 276.398438 213.953125 276.398438 C 214.320312 276.398438 214.621094 276.097656 214.621094 275.726562 L 214.621094 273.839844 C 215.457031 273.753906 216.277344 273.492188 217.015625 273.050781 C 219.125 271.785156 219.921875 269.398438 218.847656 267.316406 C 217.921875 265.53125 216.679688 265.34375 215.691406 264.75 C 215.414062 264.59375 215.039062 264.402344 214.621094 264.191406 L 214.621094 258.800781 C 215.078125 258.910156 215.511719 259.121094 215.875 259.445312 C 216.382812 259.890625 216.695312 260.511719 216.695312 261.1875 C 216.695312 261.832031 217.285156 262.351562 218.011719 262.351562 C 218.734375 262.351562 219.324219 261.832031 219.324219 261.1875 C 219.324219 259.867188 218.714844 258.667969 217.734375 257.796875 C 216.863281 257.027344 215.765625 256.566406 214.621094 256.429688 L 214.621094 254.535156 C 214.621094 254.164062 214.320312 253.867188 213.953125 253.867188 C 213.578125 253.867188 213.28125 254.164062 213.28125 254.535156 L 213.28125 256.421875 C 212.445312 256.507812 211.625 256.769531 210.886719 257.210938 C 208.777344 258.476562 207.980469 260.863281 209.054688 262.945312 C 209.519531 263.839844 211.632812 265.253906 213.28125 266.183594 Z M 214.828125 266.984375 C 215.589844 267.316406 216.074219 267.523438 216.464844 268.28125 C 216.859375 269.042969 216.636719 269.492188 216.453125 270.230469 C 216.050781 270.898438 215.371094 271.324219 214.621094 271.476562 L 214.621094 266.890625 C 214.695312 266.921875 214.761719 266.953125 214.828125 266.984375 " fill-opacity="1" fill-rule="evenodd"/><path fill="#467cdd" d="M 194.289062 212.917969 L 194.261719 231.765625 C 193.417969 240.484375 173.199219 255.589844 168.445312 249.773438 C 168.003906 249.230469 167.789062 248.535156 167.78125 247.722656 L 167.78125 212.917969 C 163.84375 207.316406 125.824219 154.019531 125.824219 153.214844 C 125.824219 148.203125 150.542969 144.136719 181.035156 144.136719 C 211.527344 144.136719 236.242188 148.203125 236.242188 153.214844 C 236.242188 154.019531 198.222656 207.316406 194.289062 212.917969 " fill-opacity="1" fill-rule="evenodd"/><path fill="#6da8f4" d="M 187.597656 242.238281 C 183.597656 246.085938 178.519531 249.425781 174.464844 250.609375 L 174.460938 212.917969 C 172.511719 207.316406 153.660156 154.019531 153.660156 153.214844 C 153.660156 148.203125 165.914062 144.136719 181.035156 144.136719 C 196.152344 144.136719 208.410156 148.203125 208.410156 153.214844 C 208.410156 154.019531 189.558594 207.316406 187.605469 212.917969 L 187.597656 242.238281 " fill-opacity="1" fill-rule="evenodd"/><path fill="#ebeff0" d="M 125.824219 154.171875 C 125.824219 153.847656 125.824219 153.539062 125.824219 153.214844 C 125.824219 148.203125 150.542969 144.136719 181.035156 144.136719 C 211.527344 144.136719 236.242188 148.203125 236.242188 153.214844 C 236.242188 153.539062 236.242188 153.847656 236.242188 154.171875 C 236.242188 162.121094 186.253906 163.25 181.035156 163.25 C 175.816406 163.25 125.824219 162.121094 125.824219 154.171875 " fill-opacity="1" fill-rule="evenodd"/><path fill="#96c4f6" d="M 125.824219 153.214844 C 125.824219 148.203125 150.542969 144.136719 181.035156 144.136719 C 211.527344 144.136719 236.242188 148.203125 236.242188 153.214844 C 236.242188 161.160156 186.253906 162.292969 181.035156 162.292969 C 175.816406 162.292969 125.824219 161.160156 125.824219 153.214844 " fill-opacity="1" fill-rule="evenodd"/><path fill="#3760ad" d="M 142.261719 148.417969 C 152.152344 146.792969 165.859375 145.785156 181.035156 145.785156 C 196.207031 145.785156 209.914062 146.792969 219.808594 148.417969 C 228.945312 149.921875 234.59375 151.636719 234.59375 153.214844 C 234.59375 154.789062 228.945312 156.507812 219.808594 158.007812 C 209.914062 159.636719 196.207031 160.644531 181.035156 160.644531 C 165.859375 160.644531 152.152344 159.636719 142.261719 158.007812 C 133.125 156.507812 127.472656 154.789062 127.472656 153.214844 C 127.472656 151.636719 133.125 149.921875 142.261719 148.417969 " fill-opacity="1" fill-rule="evenodd"/><path fill="#6293e1" d="M 125.824219 155.191406 C 125.824219 154.867188 125.824219 154.558594 125.824219 154.234375 C 125.824219 154.09375 125.84375 153.960938 125.882812 153.824219 L 126.875 153.824219 C 134.050781 160.066406 176.261719 161.011719 181.035156 161.011719 C 185.808594 161.011719 228.015625 160.066406 235.195312 153.824219 L 236.1875 153.824219 C 236.222656 153.960938 236.242188 154.09375 236.242188 154.234375 C 236.242188 154.558594 236.242188 154.867188 236.242188 155.191406 C 236.242188 163.140625 186.253906 164.269531 181.035156 164.269531 C 175.816406 164.269531 125.824219 163.140625 125.824219 155.191406 " fill-opacity="1" fill-rule="evenodd"/><path fill="#96c4f6" d="M 236.1875 153.824219 C 234.398438 161.378906 186.15625 162.464844 181.035156 162.464844 C 175.914062 162.464844 127.671875 161.378906 125.882812 153.824219 L 127.613281 153.824219 C 128.535156 155.277344 133.957031 156.820312 142.261719 158.183594 C 152.152344 159.808594 165.859375 160.816406 181.035156 160.816406 C 196.207031 160.816406 209.914062 159.808594 219.808594 158.183594 C 228.109375 156.820312 233.535156 155.277344 234.457031 153.824219 L 236.1875 153.824219 " fill-opacity="1" fill-rule="evenodd"/><path fill="#f553c6" d="M 146.113281 154.132812 L 142.8125 129.457031 L 138.0625 137.691406 C 132.332031 131.132812 124.925781 126.347656 116.53125 123.804688 C 107.367188 121.03125 97.695312 121.15625 88.5625 124.171875 L 89.285156 126.371094 C 105.925781 120.878906 124.425781 125.910156 136.015625 138.878906 L 126.496094 138.828125 L 146.113281 154.132812 " fill-opacity="1" fill-rule="nonzero"/><path fill="#f553c6" d="M 215.957031 154.132812 L 219.253906 129.457031 L 224.007812 137.691406 C 229.734375 131.132812 237.144531 126.347656 245.539062 123.804688 C 254.699219 121.03125 264.371094 121.15625 273.507812 124.171875 L 272.78125 126.371094 C 256.144531 120.878906 237.640625 125.910156 226.050781 138.878906 L 235.574219 138.828125 L 215.957031 154.132812 " fill-opacity="1" fill-rule="nonzero"/><path fill="#6594e7" d="M 213.464844 94.441406 L 213.398438 106.628906 C 213.34375 115.851562 209.535156 124.214844 203.4375 130.25 C 197.339844 136.289062 188.949219 140.011719 179.730469 139.960938 C 170.515625 139.910156 162.164062 136.097656 156.132812 129.992188 C 150.097656 123.886719 146.382812 115.488281 146.433594 106.257812 L 146.5 94.074219 L 163.859375 94.167969 L 163.792969 106.355469 C 163.765625 110.785156 165.5625 114.828125 168.472656 117.773438 C 171.382812 120.71875 175.402344 122.558594 179.828125 122.582031 C 184.25 122.605469 188.289062 120.808594 191.230469 117.898438 C 194.171875 114.984375 196.011719 110.960938 196.035156 106.53125 L 196.101562 94.347656 L 213.464844 94.441406 " fill-opacity="1" fill-rule="evenodd"/><path fill="#e52ea7" d="M 213.464844 94.441406 L 213.398438 106.628906 C 213.34375 115.851562 209.535156 124.214844 203.4375 130.25 C 197.339844 136.289062 188.949219 140.011719 179.730469 139.960938 L 179.824219 122.582031 L 179.828125 122.582031 C 184.25 122.605469 188.289062 120.808594 191.230469 117.898438 C 194.171875 114.984375 196.011719 110.960938 196.035156 106.53125 L 196.101562 94.347656 L 213.464844 94.441406 " fill-opacity="1" fill-rule="evenodd"/><path fill="#6da8f4" d="M 213.464844 94.441406 L 213.347656 115.132812 C 213.300781 124.359375 209.488281 132.722656 203.390625 138.757812 C 197.292969 144.796875 188.902344 148.519531 179.683594 148.46875 C 170.46875 148.417969 162.117188 144.601562 156.085938 138.5 C 150.054688 132.394531 146.335938 123.992188 146.386719 114.765625 L 146.5 94.074219 L 163.859375 94.167969 L 163.746094 114.863281 C 163.71875 119.289062 165.515625 123.335938 168.425781 126.277344 C 171.335938 129.226562 175.355469 131.066406 179.777344 131.089844 C 184.203125 131.113281 188.242188 129.316406 191.183594 126.402344 C 194.128906 123.492188 195.964844 119.464844 195.992188 115.039062 L 196.101562 94.347656 L 213.464844 94.441406 " fill-opacity="1" fill-rule="evenodd"/><path fill="#f553c6" d="M 213.464844 94.441406 L 213.347656 115.132812 C 213.300781 124.359375 209.488281 132.722656 203.390625 138.757812 C 197.292969 144.796875 188.902344 148.519531 179.683594 148.46875 L 179.777344 131.089844 C 184.203125 131.113281 188.242188 129.316406 191.183594 126.402344 C 194.128906 123.492188 195.964844 119.464844 195.992188 115.039062 L 196.101562 94.347656 L 213.464844 94.441406 " fill-opacity="1" fill-rule="evenodd"/><g clip-path="url(#e8a9aff40c)"><path fill="#b0bec5" d="M 146.5 94.074219 L 146.609375 73.84375 L 163.96875 73.9375 L 163.859375 94.167969 Z M 213.574219 74.210938 L 213.464844 94.441406 L 196.101562 94.347656 L 196.214844 74.113281 L 213.574219 74.210938 " fill-opacity="1" fill-rule="evenodd"/></g><path fill="#b0bec5" d="M 213.574219 74.210938 L 213.464844 94.441406 L 196.101562 94.347656 L 196.214844 74.113281 L 213.574219 74.210938 " fill-opacity="1" fill-rule="evenodd"/><path fill="#e4e7ec" d="M 146.5 94.074219 L 146.5625 82.347656 L 163.921875 82.445312 L 163.859375 94.167969 Z M 213.527344 82.714844 L 213.464844 94.441406 L 196.101562 94.347656 L 196.167969 82.621094 L 213.527344 82.714844 " fill-opacity="1" fill-rule="evenodd"/><path fill="#e4e7ec" d="M 213.527344 82.714844 L 213.464844 94.441406 L 196.101562 94.347656 L 196.167969 82.621094 L 213.527344 82.714844 " fill-opacity="1" fill-rule="evenodd"/><path fill="#e52ea7" d="M 94.5625 219.597656 C 86.835938 219.597656 80.511719 225.929688 80.511719 233.664062 L 80.511719 253.578125 C 80.511719 254.273438 80.5625 254.960938 80.664062 255.632812 L 124.03125 255.632812 C 124.128906 254.960938 124.183594 254.273438 124.183594 253.578125 L 124.183594 233.664062 C 124.183594 225.929688 117.859375 219.597656 110.128906 219.597656 C 104.941406 219.597656 99.753906 219.597656 94.5625 219.597656 Z M 104.726562 193.304688 C 103.128906 193.304688 101.566406 193.304688 99.96875 193.304688 C 93.042969 193.304688 87.429688 198.921875 87.429688 205.855469 C 87.429688 212.789062 93.042969 218.40625 99.96875 218.40625 C 101.566406 218.40625 103.128906 218.40625 104.726562 218.40625 C 111.648438 218.40625 117.265625 212.789062 117.265625 205.855469 C 117.265625 198.921875 111.648438 193.304688 104.726562 193.304688 " fill-opacity="1" fill-rule="evenodd"/><path fill="#f553c6" d="M 110.128906 219.597656 L 99.320312 219.597656 C 91.589844 219.597656 85.265625 225.929688 85.265625 233.664062 L 85.265625 253.578125 C 85.265625 254.273438 85.320312 254.960938 85.417969 255.632812 L 124.03125 255.632812 C 124.128906 254.960938 124.183594 254.273438 124.183594 253.578125 L 124.183594 233.664062 C 124.183594 225.929688 117.859375 219.597656 110.128906 219.597656 Z M 104.726562 193.304688 C 97.800781 193.304688 92.1875 198.921875 92.1875 205.855469 C 92.1875 212.789062 97.800781 218.40625 104.726562 218.40625 C 111.648438 218.40625 117.265625 212.789062 117.265625 205.855469 C 117.265625 198.921875 111.648438 193.304688 104.726562 193.304688 " fill-opacity="1" fill-rule="evenodd"/><path fill="#fcb408" d="M 124.699219 236.25 C 119.710938 236.25 115.628906 240.335938 115.628906 245.328125 L 115.628906 255.632812 L 143.808594 255.632812 L 143.808594 245.328125 C 143.808594 240.335938 139.730469 236.25 134.742188 236.25 C 131.394531 236.25 128.046875 236.25 124.699219 236.25 Z M 131.253906 219.285156 C 130.222656 219.285156 129.214844 219.285156 128.183594 219.285156 C 123.714844 219.285156 120.09375 222.910156 120.09375 227.382812 C 120.09375 231.855469 123.714844 235.484375 128.183594 235.484375 C 129.214844 235.484375 130.222656 235.484375 131.253906 235.484375 C 135.722656 235.484375 139.34375 231.855469 139.34375 227.382812 C 139.34375 222.910156 135.722656 219.285156 131.253906 219.285156 " fill-opacity="1" fill-rule="evenodd"/><path fill="#fdd833" d="M 134.742188 236.25 L 127.765625 236.25 C 122.78125 236.25 118.699219 240.335938 118.699219 245.328125 L 118.699219 255.632812 L 143.808594 255.632812 L 143.808594 245.328125 C 143.808594 240.335938 139.730469 236.25 134.742188 236.25 Z M 131.253906 219.285156 C 126.785156 219.285156 123.164062 222.910156 123.164062 227.382812 C 123.164062 231.855469 126.785156 235.484375 131.253906 235.484375 C 135.722656 235.484375 139.34375 231.855469 139.34375 227.382812 C 139.34375 222.910156 135.722656 219.285156 131.253906 219.285156 " fill-opacity="1" fill-rule="evenodd"/><g clip-path="url(#629846108c)"><path fill="#fcb408" d="M 68.289062 235.367188 C 63.230469 235.367188 59.089844 239.511719 59.089844 244.582031 L 59.089844 255.632812 L 87.683594 255.632812 L 87.683594 244.582031 C 87.683594 239.511719 83.542969 235.367188 78.480469 235.367188 C 75.082031 235.367188 71.6875 235.367188 68.289062 235.367188 Z M 74.941406 218.152344 C 73.898438 218.152344 72.875 218.152344 71.828125 218.152344 C 67.292969 218.152344 63.617188 221.832031 63.617188 226.371094 C 63.617188 230.910156 67.292969 234.589844 71.828125 234.589844 C 72.875 234.589844 73.898438 234.589844 74.941406 234.589844 C 79.476562 234.589844 83.152344 230.910156 83.152344 226.371094 C 83.152344 221.832031 79.476562 218.152344 74.941406 218.152344 " fill-opacity="1" fill-rule="evenodd"/></g><path fill="#fdd833" d="M 78.480469 235.367188 L 71.402344 235.367188 C 66.34375 235.367188 62.203125 239.511719 62.203125 244.582031 L 62.203125 255.632812 L 87.683594 255.632812 L 87.683594 244.582031 C 87.683594 239.511719 83.542969 235.367188 78.480469 235.367188 Z M 74.941406 218.152344 C 70.40625 218.152344 66.730469 221.832031 66.730469 226.371094 C 66.730469 230.910156 70.40625 234.589844 74.941406 234.589844 C 79.476562 234.589844 83.152344 230.910156 83.152344 226.371094 C 83.152344 221.832031 79.476562 218.152344 74.941406 218.152344 " fill-opacity="1" fill-rule="evenodd"/></svg>