<svg xmlns="http://www.w3.org/2000/svg" xmlns:xlink="http://www.w3.org/1999/xlink" width="500" zoomAndPan="magnify" viewBox="0 0 375 374.999991" height="500" preserveAspectRatio="xMidYMid meet" version="1.0"><defs><clipPath id="97249e50dd"><path d="M 78 76.300781 L 297 76.300781 L 297 299 L 78 299 Z M 78 76.300781 " clip-rule="nonzero"/></clipPath></defs><g clip-path="url(#97249e50dd)"><path fill="#5271ff" d="M 264.175781 298.476562 C 260.269531 298.476562 256.042969 297.886719 252.296875 297.40625 C 250.105469 297.136719 248.015625 296.871094 246.359375 296.765625 C 224.042969 295.320312 223.9375 292.429688 223.242188 276.164062 C 223.1875 274.503906 223.082031 272.628906 222.972656 270.597656 C 220.992188 272.578125 219.65625 274.023438 218.585938 275.199219 C 215.695312 278.300781 214.359375 279.746094 205.957031 285.632812 C 203.761719 287.558594 199.269531 290.234375 196.433594 290.234375 L 195.683594 290.234375 C 192.203125 290.183594 188.621094 290.023438 185.195312 289.859375 L 182.359375 289.753906 C 181.019531 289.648438 179.683594 289.59375 178.238281 289.59375 C 171.550781 289.488281 164.003906 289.324219 161.222656 282.316406 C 157.691406 286.0625 151.695312 290.394531 145.703125 294.515625 L 145.648438 294.515625 C 142.8125 295.90625 140.03125 295.960938 136.765625 296.015625 L 134.039062 296.121094 L 128.3125 295.90625 C 122.105469 295.695312 116.21875 295.480469 110.117188 295.480469 L 106.855469 295.371094 L 101.769531 295.371094 C 96.742188 295.371094 91.070312 295.105469 87.859375 291.789062 C 85.933594 289.859375 85.074219 287.132812 85.128906 283.441406 C 83.09375 229.445312 81.0625 170.800781 79.082031 114.078125 L 78.867188 107.386719 C 77.691406 99.46875 81.972656 95.507812 85.398438 92.296875 L 85.878906 91.871094 C 87.375 90.265625 100.863281 76.511719 108.511719 76.511719 L 108.675781 76.511719 C 115.628906 77.261719 122.640625 78.117188 129.488281 78.921875 L 136.929688 79.832031 C 138.585938 80.097656 140.191406 80.203125 141.742188 80.3125 C 146.882812 80.632812 151.695312 80.902344 156.085938 86.574219 C 156.136719 86.574219 156.136719 86.625 156.136719 86.679688 C 162.773438 99.789062 169.675781 113.648438 176.3125 127.027344 C 181.503906 137.40625 186.800781 148.109375 191.992188 158.382812 C 194.773438 152.765625 197.554688 147.148438 200.230469 141.636719 C 204.40625 133.074219 208.738281 124.191406 213.179688 115.414062 C 213.214844 115.414062 213.234375 115.398438 213.234375 115.363281 C 225.488281 100.378906 236.832031 92.457031 246.839844 91.65625 C 252.941406 90.480469 258.773438 89.730469 264.390625 89.035156 L 265.460938 88.875 C 267.785156 88.695312 270.085938 88.355469 272.363281 87.855469 C 275.46875 87.214844 278.730469 86.574219 281.835938 86.574219 C 283.707031 86.53125 285.527344 86.816406 287.292969 87.429688 C 288.03125 87.714844 288.71875 88.09375 289.347656 88.574219 C 289.976562 89.050781 290.53125 89.609375 291.003906 90.242188 C 291.476562 90.875 291.851562 91.5625 292.132812 92.304688 C 292.410156 93.046875 292.582031 93.808594 292.644531 94.597656 C 293.875 115.949219 294.464844 133.019531 294.945312 159.777344 C 295.160156 172.886719 295.320312 186.050781 295.425781 198.839844 C 295.640625 219.441406 295.910156 240.792969 296.496094 261.714844 C 296.496094 262.25 296.550781 262.785156 296.550781 263.375 C 296.925781 269.847656 297.300781 277.234375 291.414062 281.40625 L 289.703125 283.171875 C 284.617188 288.308594 283.066406 289.859375 273.058594 296.65625 C 270.972656 297.886719 268.082031 298.476562 264.175781 298.476562 Z M 264.175781 298.476562 " fill-opacity="1" fill-rule="nonzero"/></g><path fill="#ff053d" d="M 288.472656 198.785156 C 288.042969 164.429688 287.828125 128.847656 285.636719 94.707031 C 284.777344 93.207031 282.15625 93.367188 280.820312 93.636719 C 267.335938 96.203125 253.476562 96.578125 240.417969 100.378906 C 232.980469 105.355469 224.097656 112.152344 218.90625 119.375 C 209.917969 137.675781 201.085938 155.707031 191.992188 174.0625 C 178.398438 146.664062 164.113281 118.359375 150.789062 91.335938 C 148.96875 85.984375 135.160156 87.429688 130.023438 86.039062 C 123.441406 85.179688 116.59375 84.378906 109.851562 83.628906 C 109.296875 83.457031 108.730469 83.40625 108.152344 83.46875 C 107.578125 83.535156 107.035156 83.714844 106.535156 84.003906 C 102.039062 87 94.226562 92.566406 90.910156 96.632812 C 87.910156 99.523438 84.808594 101.769531 85.769531 106.691406 C 87.804688 164.539062 89.945312 226.878906 92.085938 283.277344 C 92.246094 287.667969 92.886719 288.253906 97.488281 288.308594 L 116.378906 288.628906 C 124.671875 288.308594 133.824219 289.96875 142.066406 288.523438 C 146.078125 285.742188 154.160156 280.175781 157.101562 276.429688 C 159.617188 273.699219 163.578125 271.453125 162.878906 267.171875 C 164.21875 270.757812 165.609375 274.289062 166.949219 277.820312 C 168.285156 281.351562 169.140625 282.15625 173.316406 282.371094 L 194.023438 283.171875 C 195.523438 283.171875 196.859375 283.492188 198.304688 282.53125 L 208.527344 275.304688 C 211.628906 272.308594 214.625 269.207031 217.730469 266.15625 C 222.332031 258.609375 224.632812 247.960938 228.269531 239.722656 C 229.089844 254.382812 229.894531 269.117188 230.679688 283.921875 C 231.054688 287.453125 231.804688 288.253906 235.28125 288.628906 C 245.019531 289.058594 257.703125 292.054688 268.832031 291.199219 C 269.582031 290.558594 279.910156 283.546875 280.125 282.851562 L 286.007812 276.964844 C 288.578125 274.503906 290.183594 273.539062 289.753906 268.617188 C 289.007812 245.554688 288.738281 221.742188 288.472656 198.785156 Z M 288.472656 198.785156 " fill-opacity="1" fill-rule="nonzero"/><path fill="#ffe505" d="M 286.277344 275.414062 L 285.472656 275.414062 C 274.558594 274.449219 263.695312 273.378906 254.492188 272.417969 C 251.066406 272.042969 250.265625 271.238281 249.941406 267.707031 C 249.300781 256.148438 248.660156 244.429688 248.070312 233.085938 C 247.480469 222.917969 246.945312 212.75 246.410156 202.636719 L 246.410156 202.476562 C 246.570312 200.230469 245.984375 199.320312 245.714844 199.054688 C 245.53125 198.84375 245.296875 198.738281 245.019531 198.730469 C 244.21875 198.730469 243.039062 199.800781 242.503906 201.726562 L 242.453125 201.726562 C 239.777344 209.113281 236.941406 216.605469 234.210938 223.882812 L 227.523438 241.753906 C 226.128906 245.339844 224.6875 249.246094 223.292969 253.046875 C 221.902344 256.84375 220.941406 259.46875 219.761719 262.464844 C 218.585938 265.460938 217.515625 266.957031 214.894531 266.957031 L 213.289062 266.957031 L 202.050781 266.53125 L 192.578125 266.101562 C 188.351562 265.941406 187.710938 265.511719 186.210938 261.605469 L 178.132812 240.683594 L 166.089844 209.433594 C 166.066406 209.347656 166.050781 209.257812 166.039062 209.167969 C 165.929688 207.828125 163.898438 204.886719 162.828125 204.886719 C 162.613281 204.886719 162.292969 205.3125 162.078125 206.117188 C 162.125 206.632812 162.140625 207.148438 162.132812 207.667969 C 162.078125 208.078125 162.078125 208.488281 162.132812 208.898438 C 162.238281 210.074219 162.292969 216.710938 162.507812 240.84375 C 162.667969 253.152344 162.773438 265.886719 162.828125 266.796875 C 162.933594 268.351562 162.988281 270.488281 161.757812 271.828125 C 161.070312 272.542969 160.230469 272.882812 159.242188 272.84375 L 158.492188 272.84375 L 135.695312 272.417969 L 125.582031 272.203125 L 116.699219 272.09375 C 112.152344 272.042969 111.511719 271.453125 111.347656 267.011719 C 109.746094 225.488281 108.140625 180.324219 106.640625 136.605469 C 106.105469 121.621094 105.570312 106.800781 105.089844 92.351562 C 105.089844 91.816406 105.035156 91.175781 105.035156 90.53125 C 104.929688 88.230469 104.769531 85.878906 106.105469 84.484375 C 106.742188 83.804688 107.527344 83.464844 108.460938 83.46875 L 109.851562 83.628906 C 116.59375 84.378906 123.441406 85.179688 130.023438 86.039062 L 143.722656 87.644531 L 144.902344 87.804688 C 146.988281 88.070312 149.554688 88.339844 150.789062 91.335938 C 152.714844 95.347656 154.746094 99.414062 156.566406 103 L 164.164062 118.25 L 165.664062 121.246094 L 178.238281 146.453125 L 195.253906 180.589844 C 195.253906 180.644531 195.308594 180.699219 195.308594 180.753906 C 195.789062 182.144531 196.914062 183.265625 197.875 183.265625 C 198.839844 183.265625 199.269531 182.089844 199.535156 181.394531 C 199.53125 181.332031 199.546875 181.28125 199.589844 181.234375 C 208.417969 163.628906 217.300781 145.542969 225.917969 127.988281 C 229.984375 119.714844 234.066406 111.417969 238.171875 103.109375 C 239.347656 100.753906 240.953125 99.574219 243.683594 99.148438 L 262.304688 96.417969 L 280.820312 93.636719 C 281.277344 93.519531 281.738281 93.464844 282.210938 93.476562 C 283.121094 93.476562 285.207031 93.582031 285.636719 94.707031 C 285.679688 94.808594 285.695312 94.917969 285.6875 95.027344 C 287.722656 129.113281 288.097656 164.539062 288.472656 198.785156 C 288.738281 221.742188 289.007812 245.554688 289.753906 268.617188 C 289.914062 271.453125 289.542969 273.433594 288.523438 274.503906 C 287.90625 275.132812 287.15625 275.433594 286.277344 275.414062 Z M 286.277344 275.414062 " fill-opacity="1" fill-rule="nonzero"/><path fill="#820022" d="M 195.789062 282.15625 L 194.078125 282.15625 L 182.839844 281.726562 L 182.625 281.726562 L 173.851562 281.351562 C 173.636719 281.339844 173.441406 281.269531 173.269531 281.144531 C 173.097656 281.015625 172.96875 280.855469 172.886719 280.65625 C 172.8125 280.445312 172.804688 280.234375 172.863281 280.019531 C 172.921875 279.804688 173.039062 279.625 173.207031 279.480469 L 187.710938 266.851562 C 187.929688 266.679688 188.179688 266.589844 188.457031 266.582031 L 188.78125 266.582031 C 190 266.964844 191.25 267.144531 192.527344 267.117188 L 201.835938 267.546875 L 202.210938 267.546875 L 211.898438 267.921875 C 212.34375 267.976562 212.667969 268.207031 212.859375 268.617188 C 212.9375 268.8125 212.949219 269.015625 212.902344 269.222656 C 212.851562 269.425781 212.75 269.601562 212.59375 269.742188 L 207.882812 274.449219 L 207.722656 274.558594 L 201.355469 279.105469 L 200.605469 279.585938 L 197.714844 281.621094 C 197.132812 282.007812 196.492188 282.1875 195.789062 282.15625 Z M 195.789062 282.15625 " fill-opacity="1" fill-rule="nonzero"/><path fill="#820022" d="M 133.984375 288.042969 C 131.417969 288.042969 128.792969 287.933594 126.277344 287.773438 C 123.765625 287.613281 121.195312 287.507812 118.679688 287.507812 L 116.324219 287.507812 L 110.441406 287.398438 L 110.117188 287.398438 L 97.703125 287.183594 C 97.476562 287.1875 97.273438 287.125 97.085938 287 C 96.898438 286.871094 96.765625 286.703125 96.6875 286.488281 C 96.613281 286.28125 96.605469 286.066406 96.664062 285.851562 C 96.722656 285.636719 96.835938 285.457031 97.007812 285.3125 L 111.882812 272.792969 C 112.082031 272.609375 112.3125 272.519531 112.582031 272.523438 L 112.902344 272.523438 C 114.140625 272.898438 115.40625 273.058594 116.699219 273.003906 L 125.582031 273.113281 L 134.679688 273.328125 L 136.019531 273.328125 L 155.65625 273.699219 C 155.867188 273.703125 156.058594 273.765625 156.234375 273.878906 C 156.40625 273.996094 156.535156 274.152344 156.621094 274.34375 C 156.710938 274.535156 156.738281 274.730469 156.699219 274.941406 C 156.660156 275.148438 156.5625 275.324219 156.40625 275.464844 L 156.296875 275.574219 L 156.296875 275.679688 C 153.410156 279.371094 145.0625 285.097656 141.90625 287.238281 C 141.78125 287.34375 141.636719 287.394531 141.476562 287.398438 C 138.996094 287.828125 136.5 288.042969 133.984375 288.042969 Z M 133.984375 288.042969 " fill-opacity="1" fill-rule="nonzero"/><path fill="#820022" d="M 264.445312 290.289062 C 258.824219 290.289062 252.992188 289.539062 247.320312 288.789062 C 243.039062 288.253906 239.027344 287.71875 235.386719 287.558594 L 235.335938 287.558594 C 234.863281 287.503906 234.542969 287.253906 234.371094 286.8125 C 234.253906 286.359375 234.363281 285.964844 234.691406 285.632812 L 250.265625 272.84375 C 250.445312 272.671875 250.65625 272.582031 250.90625 272.578125 L 251.386719 272.683594 C 252.34375 273.109375 253.34375 273.359375 254.382812 273.433594 C 262.785156 274.289062 272.683594 275.304688 282.800781 276.214844 C 283.011719 276.21875 283.199219 276.285156 283.367188 276.414062 C 283.535156 276.542969 283.648438 276.707031 283.707031 276.910156 C 283.785156 277.105469 283.804688 277.300781 283.765625 277.503906 C 283.726562 277.707031 283.636719 277.882812 283.496094 278.035156 L 279.375 282.101562 L 279.105469 282.371094 L 278.894531 282.636719 C 277.5 283.761719 272.792969 287.078125 270.492188 288.683594 L 268.671875 289.96875 C 268.507812 290.074219 268.332031 290.125 268.136719 290.128906 C 266.960938 290.234375 265.730469 290.289062 264.445312 290.289062 Z M 264.445312 290.289062 " fill-opacity="1" fill-rule="nonzero"/><path fill="#000000" d="M 264.445312 293.5 C 258.664062 293.5 252.671875 292.695312 246.945312 291.949219 C 242.71875 291.414062 238.707031 290.929688 235.175781 290.769531 L 235.011719 290.769531 C 230.570312 290.289062 229.019531 288.683594 228.539062 284.136719 C 227.949219 273.21875 227.363281 262.195312 226.773438 251.601562 L 226.773438 250.15625 L 226.503906 250.796875 C 225.289062 254.652344 223.882812 258.433594 222.277344 262.140625 L 221.851562 263.265625 C 221.046875 265.566406 220.296875 266.90625 219.175781 267.816406 L 217.246094 269.742188 C 214.894531 272.09375 212.484375 274.558594 210.023438 276.910156 L 203.226562 281.78125 L 199.535156 284.402344 C 198.394531 285.128906 197.144531 285.46875 195.789062 285.417969 L 194.078125 285.417969 L 182.785156 284.992188 L 173.316406 284.617188 C 168.230469 284.402344 166.839844 283.386719 165.019531 278.730469 L 163.09375 273.699219 L 162.933594 273.808594 C 162.148438 274.699219 161.3125 275.539062 160.417969 276.324219 L 158.8125 277.929688 C 155.925781 281.511719 149.34375 286.222656 143.296875 290.394531 L 143.027344 290.558594 C 142.972656 290.628906 142.902344 290.664062 142.8125 290.664062 L 142.492188 290.664062 C 139.691406 291.121094 136.875 291.335938 134.039062 291.304688 C 131.417969 291.304688 128.742188 291.199219 126.171875 291.039062 C 123.605469 290.878906 121.140625 290.769531 118.789062 290.769531 L 116.378906 290.769531 L 110.171875 290.664062 C 105.785156 290.558594 101.234375 290.449219 97.4375 290.449219 C 91.765625 290.394531 90.160156 288.898438 89.945312 283.332031 C 87.910156 229.285156 85.878906 170.691406 83.898438 114.023438 L 83.628906 106.90625 C 82.667969 101.394531 85.824219 98.453125 88.605469 95.882812 L 89.355469 95.1875 C 92.941406 90.800781 100.914062 85.179688 105.355469 82.238281 L 105.839844 81.917969 L 105.890625 81.917969 L 106.371094 81.703125 L 106.480469 81.703125 L 106.90625 81.597656 L 107.070312 81.597656 L 107.496094 81.488281 L 109.371094 81.488281 L 110.226562 81.648438 L 117.609375 82.453125 L 120.714844 82.828125 L 130.078125 83.949219 L 130.347656 83.949219 L 136.445312 84.644531 L 136.929688 84.644531 C 140.085938 84.914062 143.402344 85.128906 146.238281 85.824219 C 148.164062 86.144531 150.574219 86.785156 152.125 89.25 C 152.402344 89.644531 152.617188 90.070312 152.765625 90.53125 L 158.867188 102.839844 C 160.417969 105.890625 163.683594 112.472656 165.824219 116.753906 L 167.589844 120.285156 L 175.9375 137.085938 L 177.007812 139.175781 C 182.144531 149.449219 187.175781 159.507812 191.992188 169.246094 C 196.378906 160.417969 200.714844 151.589844 204.941406 142.972656 C 208.953125 134.839844 212.96875 126.707031 216.980469 118.464844 L 217.140625 118.25 C 221.582031 112.097656 228.914062 105.570312 238.972656 98.773438 C 240.300781 97.859375 241.761719 97.304688 243.359375 97.113281 L 247.640625 96.472656 C 253.476562 95.292969 259.523438 94.546875 264.820312 93.902344 L 266.101562 93.742188 L 280.335938 91.601562 C 280.863281 91.472656 281.398438 91.398438 281.941406 91.386719 L 282.53125 91.386719 C 283.53125 91.359375 284.496094 91.539062 285.421875 91.921875 C 286.308594 92.246094 286.988281 92.816406 287.453125 93.636719 L 287.667969 93.957031 C 287.710938 94.023438 287.730469 94.09375 287.722656 94.171875 L 287.722656 94.332031 C 287.785156 94.523438 287.820312 94.71875 287.828125 94.921875 C 288.148438 99.84375 288.417969 105.085938 288.683594 110.757812 C 289.328125 124.941406 289.808594 140.511719 290.128906 159.828125 C 290.34375 172.886719 290.503906 185.996094 290.613281 198.679688 C 290.71875 210.183594 290.878906 220.5625 291.039062 231.050781 L 291.039062 233.566406 C 291.09375 234.585938 291.199219 241.378906 291.199219 242.34375 L 291.308594 246.945312 C 291.359375 248.335938 291.359375 249.726562 291.414062 251.066406 L 291.414062 253.152344 L 291.574219 259.789062 L 291.574219 261.820312 C 291.628906 264.015625 291.683594 266.261719 291.789062 268.457031 C 291.929688 269.878906 291.84375 271.289062 291.519531 272.683594 C 291.308594 273.902344 290.792969 274.972656 289.96875 275.894531 C 289.863281 276 289.808594 276.109375 289.703125 276.164062 C 289.59375 276.214844 288.578125 277.339844 288.042969 277.820312 L 287.402344 278.464844 L 281.730469 284.136719 C 281.140625 284.882812 279.535156 286.167969 272.203125 291.253906 L 270.011719 292.804688 L 269.636719 293.125 L 269.367188 293.230469 L 268.886719 293.230469 C 267.410156 293.402344 265.929688 293.488281 264.445312 293.5 Z M 235.441406 286.488281 C 239.132812 286.652344 243.199219 287.183594 247.480469 287.71875 C 253.101562 288.46875 258.933594 289.21875 264.445312 289.21875 L 268.03125 289.113281 L 269.902344 287.773438 C 271.988281 286.328125 276.859375 282.957031 278.195312 281.835938 C 278.195312 281.726562 278.25 281.675781 278.304688 281.675781 L 278.625 281.351562 L 282.691406 277.234375 C 272.632812 276.375 262.679688 275.359375 254.277344 274.503906 C 253.101562 274.417969 251.980469 274.132812 250.90625 273.648438 L 235.386719 286.488281 Z M 118.679688 286.4375 C 121.25 286.4375 123.816406 286.597656 126.332031 286.703125 C 128.847656 286.8125 131.46875 286.972656 133.984375 286.972656 C 136.40625 286.996094 138.8125 286.835938 141.207031 286.488281 C 144.417969 284.296875 152.660156 278.625 155.441406 275.09375 L 155.65625 274.878906 L 135.695312 274.503906 L 134.625 274.503906 L 125.53125 274.289062 L 116.699219 274.183594 C 115.296875 274.25 113.921875 274.070312 112.582031 273.648438 L 97.703125 286.167969 L 110.117188 286.382812 L 110.441406 286.382812 L 116.378906 286.488281 Z M 102.839844 89.195312 C 99.203125 91.816406 94.761719 95.292969 92.566406 97.96875 L 92.40625 98.183594 L 91.496094 98.988281 C 88.929688 101.394531 87.269531 103 87.859375 106.265625 L 87.859375 106.53125 L 88.179688 113.96875 C 90.160156 170.585938 92.191406 229.179688 94.226562 283.171875 L 94.226562 283.492188 L 109.636719 270.488281 C 109.351562 269.367188 109.207031 268.226562 109.210938 267.066406 C 107.605469 225.488281 106 180.378906 104.5 136.710938 L 104.5 135.964844 C 104.019531 121.246094 103.484375 106.640625 103 92.40625 L 103 92.191406 C 103 91.761719 102.949219 91.121094 102.949219 90.53125 C 102.882812 90.089844 102.847656 89.644531 102.839844 89.195312 Z M 231.054688 251.28125 C 231.589844 261.660156 232.175781 272.417969 232.765625 283.066406 L 248.230469 270.328125 C 248.011719 269.523438 247.871094 268.703125 247.800781 267.867188 C 247.160156 256.308594 246.519531 244.644531 245.929688 233.40625 L 245.929688 233.191406 C 245.394531 223.132812 244.859375 213.074219 244.269531 203.066406 L 236.246094 224.632812 L 236.191406 224.632812 L 230.464844 240.042969 Z M 194.183594 281.03125 L 195.789062 281.03125 C 196.269531 281.0625 196.714844 280.953125 197.128906 280.710938 L 200.714844 278.140625 L 207.132812 273.648438 C 208.738281 272.09375 210.292969 270.488281 211.84375 268.9375 L 202.15625 268.5625 L 201.996094 268.5625 L 192.527344 268.136719 C 190.597656 268.082031 189.421875 267.921875 188.457031 267.546875 L 173.902344 280.230469 L 182.679688 280.605469 L 182.894531 280.605469 L 194.078125 281.03125 Z M 168.980469 277.070312 C 169.140625 277.554688 169.355469 277.980469 169.515625 278.355469 L 185.25 264.710938 C 184.863281 263.925781 184.527344 263.125 184.230469 262.304688 C 181.664062 255.722656 179.09375 249.085938 176.578125 242.503906 L 176.097656 241.273438 C 172.210938 231.105469 168.285156 220.9375 164.324219 210.773438 C 164.433594 214.035156 164.484375 221.472656 164.648438 240.792969 C 164.753906 251.761719 164.914062 265.460938 164.96875 266.53125 L 164.96875 266.746094 Z M 248.550781 202.53125 C 249.085938 212.644531 249.621094 222.757812 250.210938 232.925781 L 250.210938 233.300781 C 250.800781 244.484375 251.441406 256.09375 252.082031 267.492188 C 252.296875 269.953125 252.296875 269.953125 254.707031 270.222656 C 263.910156 271.1875 274.773438 272.257812 285.6875 273.21875 L 286.277344 273.21875 C 286.492188 273.21875 286.652344 273.21875 286.757812 273.113281 C 287.121094 272.714844 287.355469 272.25 287.453125 271.722656 C 287.632812 270.710938 287.683594 269.695312 287.613281 268.671875 C 286.917969 248.015625 286.652344 226.34375 286.4375 207.613281 L 286.332031 198.785156 L 286.222656 189.046875 C 286.117188 179.574219 286.007812 169.78125 285.847656 159.988281 C 285.527344 141.207031 285.046875 125.6875 284.402344 111.1875 C 284.136719 105.675781 283.867188 100.644531 283.546875 95.722656 L 282.265625 95.617188 L 281.246094 95.722656 C 276.429688 96.632812 271.5625 97.273438 266.636719 97.917969 L 262.304688 98.558594 L 248.335938 100.644531 C 245.769531 101.179688 243.46875 101.714844 241.382812 102.304688 C 240.828125 102.800781 240.398438 103.390625 240.097656 104.070312 C 236.101562 112.132812 232.125 120.214844 228.164062 128.3125 L 227.84375 128.953125 C 219.28125 146.398438 210.398438 164.484375 201.515625 182.144531 C 200.605469 184.980469 198.839844 185.40625 197.875 185.40625 C 195.683594 185.40625 193.96875 183.375 193.273438 181.5 L 190.652344 176.203125 C 185.835938 166.410156 180.859375 156.511719 176.417969 147.574219 L 171.871094 138.53125 C 166.679688 128.152344 160.792969 116.378906 155.066406 104.820312 L 154.640625 103.964844 C 152.820312 100.324219 150.789062 96.257812 148.859375 92.296875 L 148.859375 92.191406 C 148.804688 91.996094 148.714844 91.816406 148.59375 91.65625 C 148.164062 91.015625 147.148438 90.480469 145.542969 90.050781 L 144.6875 89.945312 L 143.457031 89.785156 L 136.070312 88.925781 C 133.929688 88.816406 131.808594 88.546875 129.703125 88.125 L 116.539062 86.519531 L 114.398438 86.304688 L 109.691406 85.769531 L 109.421875 85.769531 L 108.460938 85.609375 L 108.40625 85.609375 C 108.160156 85.597656 107.929688 85.652344 107.710938 85.769531 L 107.710938 85.878906 C 107.015625 86.574219 107.121094 88.550781 107.230469 90.320312 C 107.230469 91.015625 107.28125 91.65625 107.28125 92.296875 C 107.765625 106.480469 108.300781 121.035156 108.78125 135.75 L 108.78125 136.550781 C 110.28125 180.21875 111.882812 225.328125 113.488281 266.90625 C 113.542969 268.402344 113.542969 269.3125 113.863281 269.582031 C 114.1875 269.847656 115.148438 269.902344 116.699219 269.902344 L 125.636719 270.007812 L 135.695312 270.222656 L 136.070312 270.222656 L 158.546875 270.652344 L 159.242188 270.652344 C 159.472656 270.664062 159.6875 270.609375 159.882812 270.488281 C 160.257812 270.066406 160.523438 269.585938 160.6875 269.046875 C 160.769531 268.332031 160.769531 267.617188 160.6875 266.90625 C 160.632812 265.941406 160.527344 256.363281 160.367188 240.738281 C 160.207031 218.316406 160.097656 210.128906 159.992188 208.953125 L 159.832031 207.402344 C 159.839844 207.257812 159.890625 207.132812 159.992188 207.027344 C 159.949219 206.742188 159.929688 206.457031 159.9375 206.167969 L 159.9375 205.472656 C 160.632812 203.066406 162.023438 202.691406 162.773438 202.691406 C 165.234375 202.746094 167.804688 206.652344 168.070312 208.738281 C 172.03125 218.90625 175.957031 229.074219 179.84375 239.238281 L 180.433594 240.738281 L 188.136719 260.804688 C 189.316406 263.800781 189.316406 263.800781 192.632812 263.960938 L 201.996094 264.335938 L 202.265625 264.335938 L 213.289062 264.765625 L 214.839844 264.765625 C 215.257812 264.78125 215.667969 264.730469 216.070312 264.605469 C 216.859375 263.234375 217.574219 261.824219 218.210938 260.375 L 221.207031 252.402344 L 222.757812 248.175781 C 223.828125 245.074219 224.953125 241.808594 226.238281 238.863281 C 228.164062 233.675781 230.144531 228.375 232.175781 223.078125 C 234.851562 215.855469 237.6875 208.363281 240.417969 200.980469 C 241.113281 198.355469 242.988281 196.484375 244.964844 196.484375 C 245.875 196.46875 246.625 196.808594 247.214844 197.5 C 247.964844 198.25 248.710938 199.695312 248.550781 202.53125 Z M 197.179688 179.683594 L 197.34375 180.054688 C 197.390625 180.226562 197.460938 180.386719 197.554688 180.539062 C 197.554688 180.429688 197.609375 180.378906 197.664062 180.269531 C 206.492188 162.664062 215.429688 144.523438 223.992188 127.027344 L 224.257812 126.546875 L 233.300781 108.085938 C 227.789062 112.417969 223.5625 116.59375 220.78125 120.5 C 216.765625 128.632812 212.804688 136.710938 208.792969 144.792969 C 204.351562 153.835938 199.320312 164.109375 194.398438 174.0625 C 195.308594 175.9375 196.21875 177.808594 197.179688 179.683594 Z M 197.179688 179.683594 " fill-opacity="1" fill-rule="nonzero"/></svg>